<svg version="1.2" xmlns="http://www.w3.org/2000/svg" viewBox="0 0 170 128" width="170" height="128"><style>.a{fill:#fff}.b{fill:#f00}.c{fill:#1d1d1b}</style><path fill-rule="evenodd" class="a" d="m12.1 0h145.8c6.7 0 12.1 5.4 12.1 12.1v103.3c0 6.7-5.4 12.1-12.1 12.1h-145.8c-6.7 0-12.1-5.4-12.1-12.1v-103.3c0-6.7 5.4-12.1 12.1-12.1z"/><path class="b" d="m18.6 89.7l-0.3 1.9q0 0.3 0.1 0.6 0.1 0.3 0.2 0.5 0.2 0.2 0.5 0.4 0.3 0.1 0.6 0.2h61.1q0.3 0 0.6-0.1 0.3-0.1 0.5-0.4 0.2-0.2 0.3-0.5 0.2-0.2 0.2-0.6 0 0 0 0 0 0 0-0.1 0 0 0 0 0 0 0 0l-0.3-1.9q0-0.6 0.1-1.1 0.2-0.5 0.5-0.9 0.3-0.4 0.8-0.6 0.5-0.3 1-0.4 0.5 0 1 0.1 0.5 0.2 0.9 0.5 0.4 0.3 0.7 0.8 0.3 0.5 0.3 1l0.2 1.8c0.5 4.1-1.8 7.7-6 7.7h-62.6c-4.1 0-6.4-3.6-5.9-7.7l0.2-1.8q0.1-0.5 0.3-1 0.2-0.5 0.7-0.8 0.4-0.3 0.9-0.5 0.5-0.1 1-0.1 0.5 0.1 1 0.4 0.4 0.2 0.8 0.6 0.3 0.4 0.5 0.9 0.1 0.6 0.1 1.1"/><path fill-rule="evenodd" class="c" d="m82.2 56.5q0 0.8-0.1 1.6-0.2 0.7-0.5 1.4-0.3 0.8-0.7 1.4-0.5 0.7-1 1.2l-0.2 0.2 0.2 0.1q1.1 0.6 2 1.5 0.9 0.9 1.6 1.9 0.6 1.1 1 2.3 0.4 1.2 0.4 2.5c0 1.3-0.2 2.6-0.7 3.8-0.5 1.2-1.2 2.3-2.1 3.2-0.9 1-2 1.7-3.2 2.2-1.2 0.6-2.5 0.9-3.8 0.9h-15q-0.5 0-1-0.2-0.5-0.2-0.8-0.6-0.4-0.4-0.6-0.9-0.2-0.4-0.2-1v-28.5q0-0.5 0.2-1 0.2-0.5 0.6-0.9 0.4-0.4 0.9-0.6 0.4-0.2 1-0.2h12.1c1.3 0 2.5 0.2 3.7 0.7 1.2 0.4 2.3 1.1 3.2 2 0.9 0.8 1.6 1.9 2.2 3 0.5 1.2 0.8 2.4 0.8 3.7v0.3m-7.3 19.1q1 0 1.9-0.3 0.9-0.4 1.7-1 0.7-0.7 1.1-1.6 0.5-0.9 0.5-1.9 0 0 0 0 0-0.1 0-0.1 0 0 0-0.1 0 0 0 0c0-2.9-2.7-4.8-5.6-4.8h-6c-0.7 0-1.3-0.3-1.8-0.8-0.4-0.4-0.7-1.1-0.7-1.7 0-0.7 0.3-1.3 0.7-1.8 0.5-0.4 1.1-0.7 1.8-0.7h4c2.7-0.1 4.8-1.8 4.9-4.3 0.1-2.7-2.2-4.8-5.1-4.8h-9.7v23.8h12.3z"/><path class="c" d="m34.8 70.9v0.2l0.1-0.2c0.7-1.9 1.5-4 2.4-6.2 0.9-2.2 1.8-4.7 2.7-6.9 0.9-2.1 1.7-4.1 2.6-5.9q0.2-0.4 0.4-0.9 0.2-0.5 0.5-0.9 0.2-0.5 0.5-0.9 0.3-0.4 0.6-0.9 0.2-0.3 0.6-0.6 0.4-0.3 0.8-0.5 0.4-0.2 0.8-0.3 0.5-0.1 1-0.1h0.6q0.2 0 0.5 0.1 0.2 0 0.5 0.1 0.2 0.1 0.5 0.2 0.2 0.1 0.4 0.3 0.1 0.1 0.3 0.2 0.1 0.2 0.2 0.4 0.1 0.2 0.2 0.3 0 0.2 0 0.4l3.9 29.5q0 0.3-0.1 0.5 0 0.3-0.1 0.5-0.1 0.2-0.2 0.4-0.1 0.2-0.3 0.4-0.2 0.2-0.4 0.3-0.2 0.1-0.5 0.2-0.2 0.1-0.4 0.1-0.3 0-0.5 0-0.3 0-0.5 0-0.3 0-0.5-0.1-0.3-0.1-0.5-0.2-0.3-0.1-0.5-0.2-0.1-0.2-0.3-0.3-0.2-0.2-0.3-0.4-0.1-0.2-0.2-0.4 0-0.2-0.1-0.4c-0.1-1-0.2-2.1-0.3-3.3-0.1-1.2-0.8-6.3-0.9-7.6-0.2-1.3-1.3-9.7-1.6-12.7v-0.3l-1.3 2.6q-0.6 1.3-1.3 3.1-0.8 1.9-1.5 4c-0.4 1.3-2.9 8-2.9 8-0.2 0.6-0.6 1.9-1 3-0.3 1.2-0.7 2.2-0.8 2.4q-0.3 0.6-0.8 1-0.5 0.4-1.2 0.7-0.6 0.2-1.3 0.1-0.7 0-1.3-0.3-0.2-0.2-0.4-0.3-0.3-0.2-0.5-0.4-0.2-0.2-0.3-0.4-0.2-0.2-0.3-0.5c-0.1-0.2-0.4-1.2-0.8-2.3-0.4-1.1-0.8-2.4-1-3 0 0-2.4-6.7-2.9-8.1-0.5-1.3-1-2.6-1.5-3.9-0.5-1.2-0.9-2.3-1.3-3.1l-1.3-2.6v0.3c-0.3 3-1.4 11.4-1.6 12.7-0.1 1.3-0.8 6.4-0.9 7.6q-0.2 1.8-0.4 3.3 0 0.2-0.1 0.4 0 0.2-0.2 0.4-0.1 0.2-0.2 0.4-0.2 0.1-0.4 0.2-0.2 0.2-0.4 0.3-0.2 0.1-0.5 0.2-0.2 0.1-0.5 0.1-0.2 0-0.5 0-0.2 0-0.5 0-0.2 0-0.4-0.1-0.3-0.1-0.5-0.2-0.2-0.1-0.4-0.3-0.2-0.2-0.3-0.4-0.1-0.2-0.2-0.4-0.1-0.3-0.1-0.5-0.1-0.2 0-0.5l3.7-29.5q0-0.2 0.1-0.3 0.1-0.2 0.2-0.4 0.1-0.2 0.2-0.3 0.1-0.2 0.3-0.3 0.2-0.1 0.4-0.3 0.2-0.1 0.5-0.2 0.2-0.1 0.5-0.1 0.2-0.1 0.5-0.1h0.6q0.5 0 0.9 0.1 0.5 0.1 0.9 0.3 0.4 0.2 0.7 0.5 0.4 0.2 0.7 0.6 0.3 0.4 0.6 0.9 0.2 0.4 0.5 0.9 0.2 0.4 0.5 0.9 0.2 0.4 0.4 0.9 1.2 2.6 2.6 5.9 1.3 3.3 2.7 6.9c0.9 2.2 1.7 4.3 2.4 6.2"/><path class="b" d="m27.3 29h46.3c4.3 0 6.5 3.3 7 7.6l0.2 1.4q0 0.5-0.1 1-0.2 0.5-0.5 1-0.4 0.4-0.8 0.6-0.5 0.3-1 0.4-0.6 0-1.1-0.1-0.5-0.2-0.9-0.6-0.4-0.3-0.6-0.8-0.3-0.4-0.3-1l-0.2-1.3c-0.2-1.6-0.9-2.9-2.5-2.9h-44.7c-1.6 0-2.3 1.3-2.5 2.9l-0.2 1.3q-0.1 0.6-0.3 1-0.3 0.5-0.7 0.8-0.4 0.4-0.9 0.5-0.5 0.2-1 0.1-0.5 0-1-0.3-0.5-0.2-0.8-0.7-0.4-0.4-0.5-0.9-0.2-0.5-0.1-1.1l0.2-1.3c0.5-4.3 2.7-7.6 7-7.6"/><path class="c" d="m110.5 60.1q-0.5 1.8-1 4c-0.3 1.5-0.7 2.7-1 4-0.3 1.2-0.7 2.4-1 3.4q-0.1 0.2-0.2 0.5 0 0.2-0.1 0.5-0.1 0.2-0.2 0.5-0.1 0.2-0.3 0.5-0.1 0.2-0.3 0.4-0.2 0.2-0.5 0.3-0.2 0.1-0.5 0.2-0.3 0-0.6 0-0.1 0-0.2 0-0.1 0-0.3 0-0.1-0.1-0.2-0.1-0.1 0-0.3-0.1-0.1 0-0.3-0.1-0.1-0.1-0.2-0.2-0.2-0.1-0.3-0.2-0.1-0.2-0.2-0.3-0.1-0.3-0.2-0.5-0.1-0.3-0.2-0.5-0.1-0.3-0.2-0.6 0-0.2-0.1-0.5c-0.3-1-0.6-2.2-1-3.6-0.4-1.3-0.7-2.7-1-4.2q-0.5-2.3-0.9-4.2-0.4-2-0.7-3.3-0.3-1.4-0.3-1.7 0 0 0 0 0-0.1 0-0.1 0 0 0-0.1 0 0 0 0v-0.1q0-0.2 0-0.3 0-0.1 0.1-0.3 0.1-0.1 0.1-0.2 0.1-0.1 0.2-0.2 0.1-0.1 0.3-0.1 0.1-0.1 0.2-0.1 0.2-0.1 0.3-0.1 0.2 0 0.3 0 0.1 0 0.3 0 0.1 0 0.2 0 0.2 0.1 0.3 0.1 0.1 0.1 0.2 0.1 0.1 0.1 0.2 0.2 0.1 0.1 0.2 0.2 0 0.1 0.1 0.3 0 0.1 0 0.2c0.1 0.1 0.1 0.4 0.2 1 0.1 0.7 0.3 1.4 0.5 2.3q0.3 1.4 0.6 3.2 0.4 1.8 0.8 3.6 0.4 1.8 0.8 3.4 0.4 1.7 0.7 2.9 0.3-1.1 0.7-2.6 0.4-1.4 0.9-3c0.2-1 0.5-2.1 0.7-3.1q0.4-1.5 0.7-2.9c0.2-0.9 0.4-1.7 0.6-2.4q0.2-1 0.3-1.6 0.1-0.1 0.1-0.2 0.1-0.2 0.2-0.3 0.1-0.1 0.2-0.2 0.1-0.2 0.2-0.3 0.1-0.1 0.2-0.1 0.2-0.1 0.3-0.2 0.1 0 0.3-0.1 0.1 0 0.3 0 0.2 0 0.3 0 0.2 0 0.3 0.1 0.2 0 0.3 0.1 0.2 0.1 0.3 0.2 0.1 0.1 0.2 0.2 0.1 0.1 0.2 0.2 0.1 0.2 0.1 0.3 0.1 0.1 0.1 0.3 0.4 1.6 0.8 3.7 0.5 2 0.9 4.1 0.5 2.1 1 4.1 0.6 2 1 3.5 0.4-1.2 0.8-2.8 0.4-1.7 0.8-3.5 0.4-1.8 0.7-3.6 0.4-1.7 0.7-3.1 0.3-1.4 0.5-2.3c0.1-0.6 0.2-0.9 0.2-0.9q0-0.1 0.1-0.3 0-0.1 0.1-0.2 0.1-0.1 0.1-0.2 0.1-0.1 0.2-0.2 0.1 0 0.3-0.1 0.1-0.1 0.2-0.1 0.1 0 0.3 0 0.1 0 0.2 0 0.2 0 0.3 0 0.2 0 0.3 0 0.1 0.1 0.3 0.2 0.1 0 0.2 0.1 0.1 0.1 0.2 0.2 0.1 0.1 0.1 0.2 0.1 0.1 0.1 0.3 0.1 0.1 0.1 0.2v0.2q0 0 0 0 0 0.1 0 0.1 0 0 0 0.1 0 0 0 0c0 0.2-0.2 0.7-0.4 1.7q-0.2 1.3-0.6 3.2-0.5 2-1 4.2-0.5 2.3-1 4.3-0.4 2-1 3.5 0 0.3-0.1 0.6-0.1 0.2-0.2 0.5-0.1 0.2-0.2 0.5-0.1 0.3-0.2 0.5-0.1 0.2-0.2 0.3-0.1 0.1-0.2 0.2-0.2 0.2-0.3 0.3-0.2 0-0.3 0.1-0.1 0-0.3 0.1-0.1 0-0.2 0-0.1 0-0.3 0.1-0.1 0-0.2 0-0.1 0-0.1 0-0.1 0-0.1 0-0.1 0-0.1 0-0.1 0-0.1 0-0.1 0-0.2 0 0-0.1-0.1-0.1-0.1 0-0.2 0 0 0-0.1-0.1-0.1 0-0.2 0 0 0-0.1-0.1-0.1 0-0.2-0.1 0 0-0.1-0.1-0.1 0-0.2-0.1 0-0.1-0.1-0.1-0.1-0.1-0.1-0.2-0.1-0.1-0.1-0.2-0.1-0.2-0.2-0.5-0.1-0.3-0.2-0.5-0.1-0.3-0.2-0.6 0-0.2-0.1-0.5-0.4-1.5-0.9-3.3c-0.4-1.3-0.7-2.6-1-3.9-0.4-1.4-0.6-2.7-0.9-3.9"/><path fill-rule="evenodd" class="c" d="m128.2 68.1q-0.5 1.7-0.9 3-0.4 1.4-0.7 2.3c-0.1 0.4-0.3 0.8-0.6 1-0.3 0.2-0.7 0.3-1.1 0.3-0.4-0.1-0.8-0.3-1-0.6-0.3-0.3-0.4-0.7-0.3-1.1q0-0.1 0-0.1 0-0.1 0-0.1 0-0.1 0-0.1 0-0.1 0-0.1l0.5-1.4q0.3-1.2 0.9-3 0.6-1.7 1.3-3.8 0.7-2.1 1.4-4.1c0.5-1.4 1-2.6 1.4-3.8q0.2-0.4 0.4-0.8 0.1-0.3 0.3-0.7 0.1-0.3 0.3-0.7 0.2-0.3 0.4-0.7 0.1-0.1 0.1-0.2 0.1-0.1 0.2-0.2 0.1-0.1 0.2-0.2 0.1-0.1 0.2-0.1 0.2-0.1 0.3-0.1 0.2-0.1 0.3-0.1 0.2 0 0.4 0 0.1-0.1 0.3 0 0.1-0.1 0.3 0 0.2 0 0.3 0 0.2 0 0.3 0.1 0.2 0 0.3 0.1 0.2 0 0.3 0.1 0.1 0.1 0.2 0.2 0.1 0.1 0.1 0.2 0.1 0.2 0.2 0.3 0.4 1 1.1 2.7 0.6 1.7 1.4 3.7c0.5 1.3 1 2.6 1.4 4 0.5 1.3 0.9 2.6 1.3 3.8q0.6 1.8 1 3c0.3 0.8 0.5 1.4 0.5 1.6q0.1 0.1 0.1 0.1 0 0.1 0 0.1 0 0.1 0 0.1 0 0.1 0 0.2 0 0.1 0 0.2 0 0.2-0.1 0.3 0 0.1-0.1 0.3-0.1 0.1-0.2 0.2-0.1 0.1-0.3 0.1-0.1 0.1-0.2 0.2-0.2 0-0.4 0-0.1 0.1-0.3 0-0.1 0.1-0.2 0.1-0.1-0.1-0.2-0.1-0.1 0-0.2-0.1-0.1 0-0.2-0.1-0.1-0.1-0.2-0.2-0.1 0-0.1-0.1-0.1-0.1-0.1-0.2-0.1-0.1-0.1-0.2-0.3-0.9-0.8-2.3-0.4-1.4-1-3h-8.4m7.5-2.9q-0.8-2.2-1.4-4c-0.4-1.2-0.8-2.4-1.3-3.5q-0.1-0.4-0.3-0.9c-0.1-0.3-0.2-0.5-0.2-0.5q-0.1 0-0.1 0.1 0 0.1-0.1 0.1 0 0.1 0 0.2-0.1 0-0.1 0.1-0.2 0.5-0.3 0.9-0.7 1.6-1.3 3.5-0.7 1.8-1.4 4z"/><path class="c" d="m147.2 65.9q-0.1-0.1-0.1-0.1-0.1 0-0.1-0.1-0.1 0-0.1-0.1 0 0-0.1-0.1l-0.3-0.5q-0.5-0.6-1-1.6c-0.3-0.6-0.7-1.3-1.1-2-0.4-0.7-0.7-1.4-1.1-2.2-0.3-0.7-0.7-1.4-0.9-2-0.3-0.6-0.6-1.2-0.8-1.6q0-0.1-0.1-0.3 0-0.1-0.1-0.2 0-0.1-0.1-0.3 0-0.1 0-0.2-0.1 0-0.1-0.1 0 0 0 0 0-0.1 0-0.1 0 0 0-0.1c0 0 0-0.1 0-0.2q0-0.2 0-0.3 0-0.1 0.1-0.3 0-0.1 0.1-0.2 0.1-0.1 0.2-0.2 0.1-0.1 0.2-0.2 0.2-0.1 0.3-0.1 0.2-0.1 0.3-0.1 0.2 0 0.4 0 0.1 0 0.2 0 0.2 0 0.3 0 0.1 0.1 0.2 0.1 0.2 0.1 0.3 0.2 0 0.1 0.1 0.2 0 0 0.1 0.1 0 0.1 0.1 0.2 0 0.1 0.1 0.2l0.3 0.7q0.3 0.6 0.6 1.4 0.4 0.9 0.9 1.9c0.3 0.7 0.6 1.3 1 2l0.9 1.9q0.1 0.1 0.2 0.3 0.1 0.2 0.2 0.4 0.1 0.2 0.2 0.4 0.2 0.1 0.3 0.3 0.2-0.3 0.4-0.6 0.1-0.3 0.3-0.6 0.2-0.3 0.3-0.6 0.2-0.3 0.4-0.7c0.5-1 1-1.9 1.4-2.9 0.4-0.9 0.8-1.8 1.2-2.5l0.6-1.4q0-0.1 0-0.2 0.1-0.1 0.1-0.2 0.1 0 0.1-0.1 0.1-0.1 0.2-0.2 0.1-0.1 0.2-0.2 0.1 0 0.2-0.1 0.2 0 0.3 0 0.1 0 0.3 0 0.1 0 0.3 0 0.1 0 0.3 0.1 0.1 0 0.3 0.1 0.1 0.1 0.2 0.2 0.1 0.1 0.2 0.2 0.1 0.1 0.2 0.2 0 0.2 0 0.3 0.1 0.1 0.1 0.3 0 0 0 0.1 0 0 0 0 0 0 0 0.1 0 0 0 0l-0.1 0.3-0.4 1q-0.3 0.7-0.7 1.6-0.5 1-1 2c-0.3 0.7-0.7 1.5-1.1 2.2q-0.5 1.1-1.1 2c-0.3 0.6-0.7 1.2-1 1.7q0 0.1-0.1 0.2-0.1 0.1-0.2 0.2 0 0.1-0.1 0.2-0.1 0.1-0.2 0.1v7q0 0.2 0 0.4-0.1 0.1-0.1 0.2-0.1 0.2-0.1 0.3-0.1 0.2-0.2 0.3-0.2 0.2-0.5 0.3-0.3 0.1-0.6 0.1-0.3 0-0.6-0.1-0.3-0.1-0.5-0.3-0.1-0.2-0.2-0.3-0.1-0.1-0.1-0.3-0.1-0.1-0.1-0.3-0.1-0.1-0.1-0.3v-7"/></svg>