<svg version="1.2" xmlns="http://www.w3.org/2000/svg" viewBox="0 0 170 128" width="170" height="128"><style>.a{fill:#fff}.b{fill:#3d73b9}.c{fill:#1d1d1b}</style><path fill-rule="evenodd" class="a" d="m12.1 0h145.8c6.7 0 12.1 5.4 12.1 12.1v103.3c0 6.7-5.4 12.1-12.1 12.1h-145.8c-6.7 0-12.1-5.4-12.1-12.1v-103.3c0-6.7 5.4-12.1 12.1-12.1z"/><path fill-rule="evenodd" class="b" d="m43.2 100.6c-9.5 0-9.6-10-8.6-15 0.5-3.4 6.2-3.3 6.9 0v3.9q0 0.6 0.2 1.2 0.3 0.6 0.7 1 0.5 0.5 1.1 0.7 0.6 0.3 1.2 0.3h80.1q0.6 0 1.2-0.3 0.6-0.2 1.1-0.7 0.4-0.4 0.7-1 0.2-0.6 0.2-1.2v-3.9c0.6-3.3 6.4-3.4 6.9 0 1 5 0.9 15-8.7 15zm76.1-96.6c4.6 0 8.3 3.9 8.3 8.7v4.1c0 5.9-8 5.8-8 0v-2.2q0-0.5-0.2-1-0.2-0.5-0.6-0.9-0.3-0.3-0.8-0.5-0.5-0.2-1-0.2h-64.6q-0.5 0-1 0.2-0.5 0.2-0.8 0.5-0.4 0.4-0.6 0.9-0.2 0.5-0.2 1v2.2c0 5.8-7.6 5.8-7.6 0.1v-4.2c0-4.8 3.7-8.7 8.2-8.7z"/><path fill-rule="evenodd" class="c" d="m125.9 51.6q1.7 0.7 3.1 1.9 1.4 1.2 2.4 2.7 1 1.5 1.5 3.2 0.6 1.8 0.6 3.6c0 6.9-6.1 12.6-13.6 12.6h-21q-0.7 0.1-1.3-0.2-0.7-0.2-1.2-0.7-0.5-0.4-0.7-1.1-0.3-0.6-0.4-1.3v-39.7q0-0.7 0.3-1.3 0.3-0.7 0.8-1.2 0.5-0.4 1.1-0.7 0.7-0.3 1.3-0.3h17.5c2.6 0 5.2 0.8 7.4 2.2 2.2 1.4 3.9 3.5 4.9 5.9 1 2.4 1.3 5 0.9 7.6-0.5 2.6-1.7 4.9-3.6 6.8zm-15.6-3.2h6.7v-0.1q1.1-0.2 2.1-0.7 1-0.6 1.7-1.4 0.7-0.9 1.1-1.9 0.4-1.1 0.4-2.2 0-1.3-0.5-2.4-0.4-1.2-1.3-2.1-0.9-0.9-2.1-1.3-1.1-0.5-2.4-0.5h-13.4v32.9h17c1.8 0.1 3.5-0.6 4.7-1.8 1.3-1.2 2-2.9 2-4.7 0-1.7-0.7-3.4-2-4.7-1.2-1.2-2.9-1.8-4.7-1.8h-9.3c-1 0-1.9-0.4-2.6-1.1-0.7-0.6-1.1-1.6-1.1-2.5 0-1 0.4-1.9 1.1-2.6 0.7-0.7 1.6-1.1 2.6-1.1z"/><path class="c" d="m57.6 112.8c0-0.3 0.1-0.5 0.3-0.8 0.2-0.2 0.5-0.3 0.8-0.3 0.3 0 0.6 0.1 0.8 0.3 0.2 0.3 0.4 0.5 0.4 0.8v6.1q0 1-0.4 1.9-0.4 0.9-1.1 1.6-0.7 0.7-1.7 1.1-0.9 0.4-1.9 0.4-1 0-1.9-0.4-0.9-0.4-1.6-1.1-0.8-0.7-1.1-1.6-0.4-0.9-0.4-1.9v-6.1c-0.1-0.3 0.1-0.6 0.3-0.8 0.2-0.2 0.5-0.4 0.8-0.4 0.3 0 0.6 0.2 0.8 0.4 0.2 0.2 0.3 0.5 0.3 0.8v6.1q0 0.6 0.2 1.1 0.3 0.5 0.6 0.9 0.4 0.4 1 0.6 0.5 0.2 1 0.2 0.6 0 1.1-0.2 0.5-0.2 0.9-0.6 0.4-0.4 0.6-0.9 0.2-0.6 0.2-1.1z"/><path class="c" d="m68.3 121.7c0.3 0 0.5 0.1 0.8 0.3 0.2 0.2 0.3 0.5 0.3 0.8 0 0.3-0.1 0.6-0.3 0.8-0.3 0.2-0.5 0.3-0.8 0.3h-3.2q-0.8 0-1.6-0.3-0.8-0.3-1.4-0.9-0.5-0.6-0.9-1.4-0.3-0.7-0.3-1.6v-6.9c0-0.3 0.1-0.5 0.3-0.8 0.2-0.2 0.5-0.3 0.8-0.3 0.3 0 0.6 0.1 0.8 0.3 0.2 0.3 0.3 0.5 0.3 0.8v6.9q0.1 0.4 0.2 0.8 0.2 0.3 0.4 0.6 0.3 0.3 0.7 0.4 0.3 0.2 0.7 0.2c0 0 3.2 0 3.2 0z"/><path class="c" d="m92 71.7c0.2 1.1-0.1 2.3-0.8 3.2-0.7 0.9-1.8 1.4-2.9 1.6-1.1 0.1-2.3-0.3-3.2-1-0.8-0.7-1.4-1.8-1.5-2.9l-3.4-31.6-12.2 30.9v0.1 0.1 0.1q-0.1 0.2-0.2 0.4-0.1 0.1-0.3 0.3-0.1 0.1-0.3 0.3-0.1 0.1-0.3 0.2v0.1q-0.1 0.1-0.2 0.1-0.1 0.1-0.2 0.2-0.1 0-0.2 0.1-0.1 0.1-0.2 0.1l-0.1 0.1h-0.1-0.1-0.1-0.1q-0.2 0-0.3 0.1-0.2 0-0.3 0.1-0.2 0-0.4 0-0.1 0-0.3 0h-0.3q-0.1 0-0.3 0-0.2 0-0.4-0.1-0.1 0-0.3 0-0.2-0.1-0.3-0.2h-0.1-0.1-0.1-0.1-0.1-0.1q-0.1-0.1-0.1-0.1-0.1-0.1-0.2-0.1-0.1-0.1-0.2-0.2-0.1 0-0.1-0.1l-0.2-0.1-0.1-0.1-0.2-0.1-0.2-0.1q0-0.1-0.1-0.2 0-0.1-0.1-0.1 0-0.1-0.1-0.2-0.1-0.1-0.1-0.2v-0.1l-0.1-0.1v-0.1-0.1-0.1l-12.4-30.9-3.4 31.6c-0.2 1.1-0.7 2.1-1.6 2.8-0.9 0.7-2 1-3.1 0.9-1.1-0.1-2.1-0.7-2.8-1.5-0.7-0.9-1-2-0.9-3.1l4.1-37.3q0-0.3 0.1-0.6 0-0.3 0.1-0.6 0.1-0.4 0.3-0.7 0.1-0.3 0.2-0.6 0.4-0.7 1-1.3 0.5-0.6 1.2-1.1 0.7-0.5 1.5-0.8 0.7-0.3 1.6-0.4h0.2q0.1 0 0.3 0 0.1 0 0.2 0 0.2 0 0.3 0 0.1 0 0.3 0 0.1 0 0.3 0 0.1 0.1 0.3 0.1 0.2 0 0.3 0 0.2 0.1 0.3 0.1 0.9 0.2 1.6 0.6 0.8 0.3 1.4 0.9 0.6 0.5 1.1 1.2 0.5 0.7 0.8 1.5l10.5 26.2 10.4-26.3q0.3-0.9 0.9-1.7 0.7-0.8 1.5-1.4 0.8-0.6 1.8-0.9 0.9-0.3 1.9-0.4 0.2 0 0.3 0 0.1 0 0.3 0 0.1 0 0.2 0 0.2 0 0.3 0h0.2q0.8 0.1 1.6 0.4 0.8 0.3 1.5 0.8 0.6 0.5 1.2 1.1 0.6 0.6 0.9 1.4 0.1 0.1 0.2 0.2 0.1 0.2 0.1 0.3 0.1 0.2 0.1 0.4 0.1 0.1 0.2 0.3 0 0.1 0 0.3 0.1 0.2 0.1 0.3 0.1 0.2 0.1 0.3 0 0.2 0 0.4z"/><path class="c" d="m49.3 122.7c0.1 0.3 0 0.6-0.2 0.8-0.2 0.3-0.4 0.5-0.7 0.5-0.4 0-0.7-0.1-0.9-0.3-0.2-0.2-0.4-0.5-0.4-0.8l-1-8-3.4 7.9q-0.1 0.2-0.2 0.3-0.2 0.2-0.4 0.3-0.2 0.1-0.4 0.1-0.3 0-0.5-0.1-0.1-0.1-0.2-0.1 0-0.1-0.1-0.2-0.1 0-0.2-0.1 0-0.1-0.1-0.2l-3.4-7.9-1 8c0 0.3-0.1 0.6-0.4 0.8-0.2 0.2-0.5 0.3-0.8 0.3-0.3 0-0.6-0.2-0.8-0.5-0.2-0.2-0.2-0.5-0.2-0.8l1.1-9.4q0.1-0.2 0.1-0.4 0.1-0.2 0.3-0.4 0.1-0.2 0.3-0.3 0.1-0.2 0.3-0.3 0.1 0 0.1 0 0 0 0 0 0.1 0 0.1-0.1 0 0 0 0h0.1q0.1 0 0.1 0 0.1 0 0.1 0 0 0 0.1 0 0 0 0.1-0.1 0.2 0 0.4 0 0.2 0.1 0.4 0.1 0.2 0.1 0.4 0.2 0.2 0.1 0.3 0.2 0.1 0.1 0.1 0.1 0 0 0.1 0.1 0 0 0 0 0 0.1 0.1 0.1 0 0 0 0.1 0 0 0 0 0 0 0.1 0.1 0 0 0 0 0 0 0 0 0 0.1 0 0.1 0 0 0 0 0 0 0.1 0l2.9 6.8 2.9-6.8q0.1-0.2 0.2-0.4 0.1-0.2 0.3-0.3 0.2-0.1 0.4-0.2 0.2-0.1 0.4-0.2 0 0 0.1 0 0 0 0.1 0 0 0 0.1 0 0 0 0 0h0.4q0.2 0 0.4 0.1 0.2 0 0.4 0.2 0.2 0.1 0.3 0.2 0.2 0.2 0.3 0.4 0 0 0 0 0.1 0.1 0.1 0.1 0 0.1 0 0.1 0 0 0 0.1 0.1 0 0.1 0 0 0.1 0 0.1 0 0 0 0.1 0 0 0 0 0 0 0 0 0 0.1 0 0.1 0 0 0 0 0 0 0 0.1z"/><path class="c" d="m73.2 122.8c0 0.3-0.2 0.6-0.4 0.8-0.2 0.2-0.5 0.3-0.8 0.3-0.3 0-0.6-0.1-0.8-0.3-0.2-0.2-0.3-0.5-0.3-0.8v-8.8h-3.2c-0.3 0-0.6-0.2-0.8-0.4-0.2-0.2-0.3-0.5-0.3-0.8 0-0.3 0.1-0.5 0.3-0.8 0.2-0.2 0.5-0.3 0.8-0.3h8.7c0.3 0 0.5 0.1 0.8 0.3 0.2 0.3 0.3 0.5 0.3 0.8 0 0.3-0.1 0.6-0.3 0.8-0.3 0.2-0.5 0.4-0.8 0.4h-3.2z"/><path class="c" d="m80.2 122.8c0 0.3-0.1 0.6-0.4 0.8-0.2 0.2-0.4 0.3-0.7 0.3-0.3 0-0.6-0.1-0.8-0.3-0.3-0.2-0.4-0.5-0.4-0.8v-10c0-0.3 0.1-0.5 0.4-0.8 0.2-0.2 0.5-0.3 0.8-0.3 0.3 0 0.5 0.1 0.7 0.3 0.3 0.3 0.4 0.5 0.4 0.8z"/><path class="c" d="m103.2 122.7q0.1 0.4-0.2 0.8-0.3 0.3-0.8 0.4-0.4 0-0.8-0.3-0.3-0.2-0.4-0.7l-0.4-3.1h-3.9c-0.3 0-0.6-0.1-0.8-0.3-0.2-0.2-0.4-0.5-0.4-0.8 0-0.3 0.2-0.6 0.4-0.9 0.2-0.2 0.5-0.3 0.8-0.3h3.7l-0.2-0.8c0 0 0 0 0-0.1q0 0 0-0.1 0-0.1 0-0.1 0-0.1 0-0.2-0.1-0.1-0.1-0.1 0-0.1 0-0.2-0.1-0.1-0.1-0.1 0-0.1 0-0.2-0.1 0-0.1-0.1-0.2-0.3-0.4-0.6-0.2-0.3-0.5-0.5-0.3-0.2-0.7-0.3-0.3-0.1-0.7-0.1-0.1 0-0.1 0-0.1 0-0.2 0 0 0-0.1 0-0.1 0-0.2 0 0 0.1-0.1 0.1-0.1 0-0.1 0-0.1 0-0.1 0.1-0.1 0-0.2 0-0.3 0.2-0.6 0.5-0.3 0.3-0.5 0.6-0.2 0.3-0.3 0.7-0.1 0.3-0.1 0.7l-0.7 6.2c-0.1 0.3-0.2 0.6-0.4 0.8-0.3 0.2-0.6 0.3-0.9 0.2-0.3 0-0.5-0.1-0.7-0.4-0.2-0.2-0.3-0.5-0.3-0.8l0.7-6.2q0.1-0.7 0.3-1.3 0.2-0.6 0.6-1.2 0.4-0.5 0.9-1 0.4-0.5 1-0.8 0.1 0 0.3-0.1 0.1 0 0.2-0.1 0.1 0 0.3-0.1 0.1 0 0.2 0 0.2-0.1 0.3-0.1 0.1 0 0.3 0 0.1 0 0.2 0 0.2-0.1 0.3-0.1 0.7 0 1.3 0.2 0.7 0.2 1.3 0.6 0.5 0.4 1 0.9 0.4 0.5 0.7 1.1 0 0.1 0.1 0.2 0.1 0.1 0.1 0.3 0 0.1 0.1 0.2 0 0.1 0.1 0.2 0 0.2 0 0.3 0.1 0.1 0.1 0.2 0 0.1 0 0.2 0.1 0.1 0.1 0.3 0 0 0 0 0 0 0 0 0 0 0 0 0 0 0 0.1z"/><path class="c" d="m106.7 122.8c0 0.3-0.1 0.6-0.3 0.8-0.2 0.3-0.5 0.4-0.9 0.4-0.3 0-0.6-0.1-0.8-0.4-0.2-0.2-0.3-0.5-0.3-0.8v-9.2q0-0.1 0-0.1 0 0 0 0 0-0.1 0-0.1 0 0 0 0 0-0.1 0-0.1 0-0.1 0.1-0.1 0-0.1 0-0.1 0 0 0-0.1l0.1-0.2q0.1-0.1 0.2-0.2 0.1-0.1 0.2-0.2 0.1-0.1 0.2-0.2 0.1-0.1 0.3-0.1l0.1-0.1h0.2 0.2 0.1q0.1 0.1 0.3 0.1 0.2 0 0.3 0.1 0.2 0.1 0.3 0.2 0.1 0.1 0.2 0.3l6 7.6v-7.5c0-0.3 0.1-0.5 0.3-0.8 0.2-0.2 0.5-0.3 0.8-0.3 0.3 0 0.6 0.1 0.8 0.3 0.2 0.3 0.4 0.5 0.4 0.8v9.3q0 0.1-0.1 0.3 0 0.2-0.1 0.3-0.1 0.2-0.2 0.3-0.1 0.2-0.2 0.3-0.1 0-0.1 0 0 0.1 0 0.1-0.1 0-0.1 0 0 0-0.1 0 0 0.1 0 0.1 0 0 0 0-0.1 0-0.1 0 0 0 0 0l-0.1 0.1q-0.1 0-0.3 0-0.2 0-0.3 0-0.2 0-0.3 0-0.2 0-0.3-0.1l-0.1-0.1q-0.1 0-0.1 0 0 0-0.1-0.1 0 0 0 0 0 0-0.1-0.1 0 0 0 0 0 0 0 0-0.1 0-0.1-0.1 0 0 0 0h-0.1l-5.9-7.7z"/><path class="c" d="m124.2 121.7c0.3 0 0.6 0.1 0.8 0.3 0.2 0.2 0.4 0.5 0.4 0.8 0 0.3-0.2 0.6-0.4 0.8-0.2 0.2-0.5 0.3-0.8 0.3h-3.3q-0.9 0-1.7-0.3-0.8-0.4-1.4-1-0.6-0.6-1-1.4-0.3-0.8-0.3-1.7v-3.4q0-0.8 0.3-1.6 0.4-0.9 1-1.5 0.6-0.6 1.4-0.9 0.8-0.4 1.7-0.4h3.3c0.3 0 0.6 0.1 0.8 0.4 0.2 0.2 0.4 0.5 0.4 0.8 0 0.2-0.2 0.5-0.4 0.7-0.2 0.3-0.5 0.4-0.8 0.4h-3.3q-0.2 0-0.4 0-0.2 0.1-0.4 0.1-0.2 0.1-0.4 0.3-0.2 0.1-0.3 0.2-0.2 0.2-0.3 0.4-0.1 0.1-0.2 0.3-0.1 0.2-0.1 0.4-0.1 0.3-0.1 0.5v3.3q0 0.5 0.2 0.9 0.2 0.4 0.5 0.7 0.3 0.3 0.7 0.4 0.4 0.2 0.8 0.2h3.3z"/><path fill-rule="evenodd" class="c" d="m131.8 111.8q0.5 0.1 0.9 0.3 0.5 0.2 0.9 0.5 0.5 0.2 0.8 0.6 0.4 0.3 0.7 0.7 0.3 0.5 0.5 0.9 0.2 0.5 0.3 1 0.1 0.5 0.1 1v2.1q0 0.5-0.1 1-0.1 0.4-0.3 0.9-0.2 0.5-0.5 0.9-0.3 0.4-0.7 0.7-0.3 0.4-0.8 0.7-0.4 0.2-0.9 0.4-0.4 0.2-0.9 0.3-0.5 0.1-1.1 0.1-0.5 0-1-0.1-0.5-0.1-0.9-0.3-0.5-0.2-0.9-0.4-0.5-0.3-0.8-0.7-0.4-0.3-0.7-0.7-0.3-0.4-0.5-0.9-0.2-0.5-0.3-0.9-0.1-0.5-0.1-1v-2.1q0-0.5 0.1-1 0.1-0.5 0.3-1 0.2-0.4 0.5-0.9 0.3-0.4 0.7-0.7 0.3-0.4 0.8-0.6 0.4-0.3 0.9-0.5 0.4-0.2 0.9-0.3 0.5-0.1 1-0.1 0.6 0 1.1 0.1zm-1.1 2.2q-0.2 0-0.5 0-0.3 0.1-0.6 0.2-0.3 0.1-0.5 0.2-0.3 0.2-0.5 0.4-0.2 0.2-0.3 0.4-0.2 0.2-0.3 0.5-0.1 0.3-0.2 0.5 0 0.3 0 0.6v2.1q0 0.2 0 0.5 0.1 0.3 0.2 0.5 0.1 0.3 0.3 0.5 0.1 0.3 0.3 0.4 0.2 0.2 0.5 0.4 0.2 0.2 0.5 0.3 0.3 0.1 0.6 0.1 0.2 0.1 0.5 0.1 0.3 0 0.6-0.1 0.3 0 0.6-0.1 0.3-0.1 0.5-0.3 0.3-0.2 0.5-0.4 0.2-0.1 0.3-0.4 0.2-0.2 0.3-0.5 0.1-0.2 0.2-0.5 0-0.3 0-0.5v-2.1q0-0.3 0-0.6-0.1-0.2-0.2-0.5-0.1-0.3-0.3-0.5-0.1-0.2-0.3-0.4-0.2-0.2-0.5-0.4-0.2-0.1-0.5-0.2-0.3-0.1-0.6-0.2-0.3 0-0.6 0z"/><path fill-rule="evenodd" class="c" d="m81.1 112.9q0-0.1 0-0.1 0-0.1 0-0.1 0-0.1 0.1-0.2 0 0 0-0.1 0 0 0.1-0.1 0 0 0-0.1 0 0 0.1-0.1 0 0 0.1 0 0-0.1 0.1-0.2 0.1 0 0.2-0.1 0.1 0 0.2 0 0.1-0.1 0.2-0.1h4.4q0.7 0 1.4 0.3 0.6 0.3 1.1 0.8 0.5 0.5 0.8 1.1 0.3 0.7 0.3 1.4 0 0.3 0 0.5-0.1 0.3-0.1 0.5-0.1 0.2-0.2 0.5-0.1 0.2-0.3 0.4 0.1 0.1 0.2 0.1 0.1 0.1 0.2 0.1 0.1 0.1 0.2 0.2 0 0 0.1 0.1l0.1 0.1q0.2 0.2 0.4 0.5 0.2 0.3 0.3 0.6 0.1 0.4 0.2 0.7 0.1 0.3 0.1 0.7 0 0.7-0.3 1.4-0.3 0.6-0.8 1.2-0.5 0.5-1.2 0.7-0.7 0.3-1.4 0.3h-5.5q-0.2 0-0.4-0.1-0.2-0.1-0.4-0.2-0.1-0.2-0.2-0.4-0.1-0.2-0.1-0.4zm2.3 8.8h4.3q0.3 0 0.6-0.1 0.2-0.1 0.4-0.3 0.2-0.2 0.3-0.5 0.1-0.2 0.1-0.5 0-0.1 0-0.3 0-0.1-0.1-0.2 0-0.1-0.1-0.3-0.1-0.1-0.2-0.2-0.1-0.1-0.2-0.2-0.1-0.1-0.3-0.1-0.1-0.1-0.2-0.1-0.2 0-0.3 0h-1.5c-0.3 0-0.6-0.1-0.8-0.4-0.2-0.2-0.3-0.4-0.3-0.7 0-0.3 0.1-0.6 0.3-0.8 0.2-0.3 0.5-0.4 0.8-0.4h0.5q0.1 0 0.3 0 0.1 0 0.2-0.1 0.1 0 0.2-0.1 0.1-0.1 0.2-0.2 0.1 0 0.1-0.2 0.1-0.1 0.2-0.2 0-0.1 0-0.2 0.1-0.2 0.1-0.3 0-0.3-0.1-0.5-0.1-0.2-0.3-0.4-0.2-0.2-0.5-0.3-0.2-0.1-0.5-0.1h-3.2z"/></svg>