<?xml version="1.0" encoding="utf-8"?>
<!-- Generator: Adobe Illustrator 23.0.0, SVG Export Plug-In . SVG Version: 6.00 Build 0)  -->
<svg version="1.1" id="Calque_1" xmlns="http://www.w3.org/2000/svg" xmlns:xlink="http://www.w3.org/1999/xlink" x="0px" y="0px"
	 viewBox="0 0 208.29 156.09" style="enable-background:new 0 0 208.29 156.09;" xml:space="preserve">
<style type="text/css">
	.st0{fill-rule:evenodd;clip-rule:evenodd;fill:#DF85B3;}
	.st1{fill-rule:evenodd;clip-rule:evenodd;fill:#FFFFFF;}
	.st2{fill-rule:evenodd;clip-rule:evenodd;fill:#CA1C67;}
	.st3{fill-rule:evenodd;clip-rule:evenodd;fill:#010101;}
	.st4{fill-rule:evenodd;clip-rule:evenodd;fill:#CA1C66;}
	.st5{fill-rule:evenodd;clip-rule:evenodd;fill:#ED2025;}
	.st6{fill-rule:evenodd;clip-rule:evenodd;fill:#F99F1B;}
	.st7{fill-rule:evenodd;clip-rule:evenodd;fill:#F16022;}
	.st8{fill-rule:evenodd;clip-rule:evenodd;fill:#1434CB;}
	.st9{fill-rule:evenodd;clip-rule:evenodd;fill:#F28D20;}
	.st10{fill:#FFFFFF;}
	.st11{fill-rule:evenodd;clip-rule:evenodd;fill:#DF87B3;}
	.st12{fill-rule:evenodd;clip-rule:evenodd;fill:#CA1C68;}
	.st13{fill-rule:evenodd;clip-rule:evenodd;}
	.st14{fill-rule:evenodd;clip-rule:evenodd;fill:#CDCCCC;}
	.st15{fill-rule:evenodd;clip-rule:evenodd;fill:#E16CA5;}
	.st16{fill-rule:evenodd;clip-rule:evenodd;fill:#595A5A;}
	.st17{fill-rule:evenodd;clip-rule:evenodd;fill:#7F7F7F;}
	.st18{fill-rule:evenodd;clip-rule:evenodd;fill:#E486B7;}
	.st19{fill-rule:evenodd;clip-rule:evenodd;fill:#E27CAE;}
	.st20{fill:none;}
</style>
<g>
	<path class="st11" d="M15.89-0.09h176.59c8.7,0,15.81,7.11,15.81,15.81v124.53c0,8.7-7.11,15.81-15.81,15.81H15.89
		c-8.7,0-15.81-7.12-15.81-15.81V15.72C0.08,7.02,7.2-0.09,15.89-0.09"/>
	<rect x="36.27" y="9.6" class="st1" width="135.01" height="133.06"/>
	<path class="st12" d="M86.22,100.61c5.4,0,19.33,0.22,23.81-0.17c9.12-0.78,15.36-4.5,19.14-10.89c2.39-4.05,3.26-9.84,3.14-14.64
		c-0.37-14.64-9.43-22.96-23.88-23.7c-4.9-0.25-12.6-0.05-18-0.06c-2.04,0-3.24,0.61-3.9,2.05C85.77,54.84,86.22,95.18,86.22,100.61
		 M100.39,69.84c1.72,0,6.39-0.16,7.77,0.09v1.84l-5.46,0.05l-0.01,2.22l5.01,0.03l0,1.79l-4.99,0.02l-0.02,2.54l5.56,0.01l0,1.97
		h-7.89L100.39,69.84z M89.37,80.4V69.84c3.85,0,9.3-0.98,9.25,5.25C98.57,81.44,93.3,80.4,89.37,80.4 M111.74,80.4l-2.06-0.02
		c0.35-1.48,1.4-3.85,1.98-5.37c0.36-0.95,1.57-4.78,2.18-5.16h1.92c0.57,0.15,3.92,9.72,4.13,10.56h-2.42l-0.72-2.29l-4-0.06
		C112.6,78.74,112.34,79.97,111.74,80.4 M121.29,69.85h2.33v8.6l5.01,0l0.02,1.95l-7.23,0.01
		C121.07,79.26,121.29,71.67,121.29,69.85"/>
	<path class="st1" d="M70.66,46.37c-2.47,0.77-2.36,2.64-2.36,5.5v48.2c0,2.67-0.02,4.86,2.6,5.39c1.34,0.27,29.77,0.08,31.93,0.09
		c9.89,0,19.26-2,25.15-7.05c5.65-4.85,9.33-11.83,9.32-22.71c-0.01-10.68-3.66-18.03-9.51-22.69c-6.14-4.9-15.22-6.89-25.14-6.89
		C98.97,46.21,71.88,45.99,70.66,46.37 M72.14,75.62c-0.56-6.8,9.46-7.52,10.09-1.04C82.89,81.46,72.67,82.06,72.14,75.62
		 M86.22,100.61c0-5.44-0.45-45.77,0.31-47.4c0.67-1.44,1.86-2.05,3.9-2.05c5.4,0,13.1-0.19,18,0.06
		c14.44,0.74,23.51,9.06,23.88,23.7c0.12,4.8-0.75,10.59-3.14,14.64c-3.77,6.4-10.01,10.11-19.14,10.89
		C105.56,100.83,91.62,100.61,86.22,100.61 M81.02,100.61c-3.67-0.13-6.4-2.37-7.31-5.3c-0.55-1.76-0.38-3.96-0.38-5.89
		c0-2.31-0.29-3.69,1.12-5.15c1.81-1.88,6.59-2.05,6.57,3.75C81.01,92.21,81.02,96.41,81.02,100.61"/>
	<path class="st12" d="M138.11,101.16c-2.24-0.02-0.99-0.1-3.24,1.95c-0.85,0.78-1.85,1.65-2.86,2.38l-2.91,2.11l14.07,0l0,11.2
		l6.44-0.03l0.05-11.17h8.25l0,22.39l-22.38-0.05l-0.05-11.16l-6.39,0.04l0,17.6l35.27,0l-0.07-35.27L138.11,101.16z"/>
	<path class="st13" d="M129.08,41.91c0,2.37-0.47,2.05,1.21,3.1c1.92,1.21,2.31,1.73,3.77,2.87c0.62,0.49,0.59,0.55,1.14,1.13
		c1.68,1.79,1.58,1.6,2.73,1.58l26.42-0.01l0-35.27l-35.27,0.07V41.91z M135.66,21.76h22.25l0,22.25c-0.49,0.25-0.64,0.18-1.46,0.17
		c-5.71-0.05-16.71,0.27-20.92-0.03c-0.25-3.46-0.03-7.76-0.03-11.32C135.49,31.5,135.25,22.56,135.66,21.76"/>
	<polygon class="st13" points="78.4,136.44 78.4,113.59 72.09,113.59 72.06,129.99 49.68,129.99 49.74,107.61 60.42,107.61 
		60.41,101.17 60.22,101.17 43.24,101.17 43.24,136.44 	"/>
	<polygon class="st13" points="72.09,38.17 78.38,38.17 78.4,15.31 43.24,15.32 43.24,50.59 60.4,50.59 60.42,44.15 49.74,44.15 
		49.68,21.76 72.06,21.76 	"/>
	<path class="st13" d="M139.2,79.81c0.45-5.1,0.02-10.78-1.44-15.37c-4.27-13.48-15.58-19.57-30.91-20.22
		c-5.59-0.24-11.49-0.07-17.12-0.07c-5.7,0-11.41,0.01-17.12,0c-3,0-4.72,0.95-5.75,2.85c-1.01,1.87-0.64,5.48-0.64,7.84v42.61
		c0,5.63-0.78,10.17,6.91,10.16h25.5c11.38,0,20.14-0.33,28.45-5.81C133.5,97.58,138.24,90.69,139.2,79.81 M70.66,46.37
		c1.23-0.38,28.31-0.15,32-0.16c9.92,0,19,1.99,25.14,6.89c5.85,4.66,9.5,12.01,9.51,22.69c0.01,10.87-3.67,17.86-9.32,22.71
		c-5.89,5.05-15.26,7.06-25.15,7.05c-2.16,0-30.59,0.19-31.93-0.08c-2.62-0.53-2.6-2.72-2.6-5.4v-48.2
		C68.3,49.01,68.19,47.13,70.66,46.37"/>
	<path class="st12" d="M95.48,129.89c-0.29,0.19-0.04,0.18-1.02,0.18l-7.64-0.01v6.34l34.15-0.01l-0.01-25.3
		c-0.29,0.04-6.27,1.48-6.43,1.54v17.35h-12.58l-0.08-16.57l-6.36,0L95.48,129.89z"/>
	<path class="st1" d="M157.91,44.01l0-22.25h-22.25v22.25H157.91z M152,38.33c-1.23,0-10.26,0.16-10.54-0.12
		c-0.28-0.28-0.12-9.3-0.12-10.61l10.74-0.01l0.02,10.13L152,38.33z"/>
	<path class="st12" d="M114.51,21.87l0.01,17.25l6.43,1.51l0.01-25.26l-34.12,0v6.31h24.37C112,21.67,113.9,21.42,114.51,21.87"/>
	<path class="st12" d="M43.11,93.33h17.31c0-1.57,0.13-5.11-0.07-6.46l-10.67,0l0-14.9l-6.44-0.05L43.11,93.33z"/>
	<path class="st12" d="M143.98,86.9c-0.43,1-0.68,2.29-1.03,3.34c-0.36,1.05-0.92,2.14-1.16,3.08c7,0.14,15.41,0.02,22.56,0.02
		V79.61c-1.59,0-5.06-0.12-6.44,0.07v7.2L143.98,86.9z"/>
	<path class="st12" d="M143.93,64.66c1.29,0.29,5.51,0.1,7.1,0.1c1.37,0,5.9-0.2,6.93,0.13l0,7.28l6.38-0.03
		c0-2.32,0.29-12.26-0.11-13.72l-22.38,0C141.86,58.44,143.71,64.07,143.93,64.66"/>
	<path class="st13" d="M152,38.33l0.1-0.61l-0.02-10.13l-10.74,0.01c0,1.31-0.16,10.33,0.12,10.61
		C141.74,38.49,150.76,38.33,152,38.33"/>
	<path class="st13" d="M81.02,100.61c0-4.2-0.01-8.4,0-12.59c0.02-5.8-4.76-5.63-6.57-3.75c-1.41,1.46-1.12,2.83-1.12,5.15
		c0,1.93-0.17,4.13,0.38,5.89C74.63,98.24,77.35,100.47,81.02,100.61"/>
	<rect x="55.51" y="27.59" class="st13" width="10.65" height="10.65"/>
	<rect x="55.51" y="113.51" class="st13" width="10.65" height="10.65"/>
	<polygon class="st12" points="43.28,64.85 60.42,64.85 60.44,59.02 60.22,58.41 43.8,58.41 43.32,58.41 43.24,59.02 	"/>
	<path class="st13" d="M72.14,75.62c0.53,6.45,10.75,5.85,10.08-1.04C81.6,68.09,71.58,68.82,72.14,75.62"/>
	<polygon class="st12" points="95.52,38.33 101.89,38.33 101.95,27.6 95.51,27.59 	"/>
	<path class="st1" d="M89.37,80.4c3.93,0,9.2,1.04,9.25-5.31c0.05-6.23-5.4-5.25-9.25-5.25V80.4z M91.73,71.84
		c2.86-0.33,4.5,0.34,4.56,3.24c0.07,3.04-1.69,3.69-4.58,3.28L91.73,71.84z"/>
	<path class="st1" d="M100.36,80.4h7.89l0-1.97l-5.56-0.01l0.02-2.54l4.99-0.03l0-1.79l-5.01-0.03l0.01-2.22l5.46-0.05v-1.85
		c-1.39-0.25-6.06-0.1-7.77-0.09L100.36,80.4z"/>
	<path class="st1" d="M111.74,80.4c0.6-0.43,0.86-1.65,1.02-2.35l4,0.05l0.72,2.3h2.42c-0.22-0.83-3.56-10.41-4.13-10.56h-1.92
		c-0.61,0.39-1.83,4.22-2.18,5.16c-0.57,1.52-1.63,3.89-1.98,5.37L111.74,80.4z M114.83,72.54l1.26,3.77l-2.68,0L114.83,72.54z"/>
	<path class="st1" d="M121.29,69.85c0,1.82-0.22,9.41,0.11,10.57l7.23-0.01l-0.02-1.95l-5.01,0v-8.6H121.29z"/>
	<path class="st12" d="M91.71,78.37c2.89,0.41,4.65-0.24,4.58-3.28c-0.07-2.91-1.71-3.58-4.56-3.24L91.71,78.37z"/>
	<path class="st14" d="M157.91,44.01h-22.25V21.76c-0.42,0.8-0.17,9.74-0.17,11.07c0,3.55-0.22,7.86,0.03,11.32
		c4.21,0.31,15.22-0.02,20.92,0.03C157.27,44.19,157.42,44.26,157.91,44.01"/>
	<path class="st15" d="M114.51,21.87c-0.61-0.45-2.52-0.2-3.3-0.2H86.85v-6.31c-0.45,0.36-0.21,5.81-0.15,6.36
		C88.04,22.14,110.32,21.63,114.51,21.87"/>
	<path class="st16" d="M72.09,38.17c0.25,0.33-0.28,0.12,0.53,0.22l5.86-0.05c0.33-1.41,0.06-17.33,0.09-21.58
		c0.01-0.79,0.08-0.97-0.16-1.45l-0.02,22.86H72.09z"/>
	<path class="st16" d="M78.4,136.44l0.18-0.74c0.01-0.18-0.01-0.51-0.01-0.71c-0.03-4.25,0.23-20.16-0.09-21.57l-4.98-0.04
		c-1.59-0.02-1.2-0.06-1.4,0.21h6.32V136.44z"/>
	<polygon class="st12" points="113.4,76.3 116.09,76.31 114.83,72.54 	"/>
	<path class="st17" d="M66.16,124.17c0.21-0.34,0.08,0.38,0.18-0.52c0.15-1.26-0.04-9.97-0.1-10.23c-0.26-0.06-9.2-0.27-10.38-0.07
		c-0.36,0.06-0.18,0.05-0.36,0.16h10.65V124.17z"/>
	<path class="st17" d="M55.51,38.24c0.68,0.43,10.5,0.14,10.74,0.09c0.06-0.26,0.24-8.96,0.1-10.23c-0.11-0.9,0.03-0.18-0.18-0.52
		v10.65H55.51z"/>
	<path class="st18" d="M157.97,72.17l0-7.28c-1.03-0.33-5.56-0.13-6.93-0.13c-1.6,0-5.82,0.19-7.11-0.1
		c0.31,0.34-0.07,0.25,0.8,0.28l13.05-0.01l0.05,6.99c0.01,0.03,0.05,0.15,0.06,0.13C157.9,72.02,157.94,72.13,157.97,72.17"/>
	<path class="st19" d="M86.82,136.41v-6.34l7.64,0.01c0.99,0,0.74,0.01,1.02-0.18c-1.54,0-7.8-0.21-8.79,0.13L86.64,135
		C86.62,136.43,86.59,136.03,86.82,136.41"/>
	<rect x="0.08" y="-0.09" class="st20" width="208.21" height="156.16"/>
	<rect x="0.08" y="-0.09" class="st20" width="208.21" height="156.16"/>
	<g>
		<path class="st1" d="M107.63,123.91l-52.49,0c-3.46,0-5.49-2.29-5.49-5.85l0-83.05c0-3.99,1.87-6.3,5.79-6.3l49.96,0
			c14.98,0,28.95,3.76,37.9,11.33c8.93,7.56,14.2,18.19,14.59,35.13c0.24,10.3-2.03,21.55-7.62,29.63
			c-2.73,3.94-5.31,6.65-9.16,9.49c-3.5,2.59-7.93,4.78-12.22,6.21C122.63,122.59,114.79,123.91,107.63,123.91"/>
		<path class="st12" d="M82.53,108c6.89,0,24.67,0.28,30.38-0.21c11.64-1,19.6-5.74,24.42-13.9c3.05-5.17,4.16-12.55,4.01-18.68
			c-0.47-18.68-12.04-29.3-30.47-30.25c-6.25-0.32-16.08-0.07-22.97-0.07c-2.6,0-4.13,0.78-4.98,2.62
			C81.96,49.59,82.53,101.07,82.53,108 M100.61,68.74c2.19-0.01,8.15-0.2,9.92,0.12v2.35l-6.97,0.06l-0.01,2.83l6.39,0.04l0,2.28
			l-6.37,0.03l-0.02,3.24l7.09,0.01l-0.01,2.51h-10.07L100.61,68.74z M86.55,82.21V68.74c4.91,0,11.87-1.25,11.8,6.7
			C98.28,83.53,91.56,82.21,86.55,82.21 M115.09,82.21l-2.63-0.03c0.45-1.89,1.79-4.92,2.52-6.86c0.46-1.21,2-6.09,2.78-6.59h2.45
			c0.73,0.19,5,12.41,5.28,13.47h-3.09l-0.92-2.93l-5.1-0.07C116.18,80.1,115.86,81.66,115.09,82.21 M127.28,68.75h2.97v10.97
			l6.39,0.01l0.02,2.49l-9.23,0.01C127,80.75,127.28,71.07,127.28,68.75"/>
		<path class="st1" d="M62.67,38.78c-3.15,0.98-3.01,3.37-3.01,7.02v61.51c0,3.41-0.02,6.21,3.32,6.88c1.71,0.35,38,0.11,40.75,0.11
			c12.62,0.01,24.58-2.55,32.1-9c7.22-6.19,11.91-15.1,11.9-28.98c-0.01-13.63-4.67-23.01-12.14-28.96
			c-7.84-6.25-19.42-8.79-32.08-8.79C98.79,38.58,64.23,38.29,62.67,38.78 M64.55,76.11c-0.71-8.68,12.07-9.6,12.87-1.33
			C78.27,83.57,65.23,84.33,64.55,76.11 M82.53,108c0-6.94-0.57-58.41,0.39-60.49c0.85-1.84,2.38-2.62,4.98-2.62
			c6.89,0.01,16.72-0.24,22.97,0.08c18.43,0.94,30,11.56,30.47,30.24c0.15,6.13-0.96,13.51-4.01,18.68
			c-4.82,8.16-12.78,12.9-24.42,13.9C107.2,108.28,89.42,108,82.53,108 M75.89,108c-4.69-0.17-8.16-3.03-9.32-6.77
			c-0.7-2.24-0.48-5.05-0.48-7.52c0-2.95-0.37-4.71,1.43-6.57c2.31-2.4,8.41-2.62,8.38,4.79C75.88,97.28,75.89,102.64,75.89,108"/>
		<path class="st13" d="M150.14,81.45c0.58-6.51,0.02-13.75-1.84-19.61c-5.44-17.2-19.88-24.97-39.45-25.81
			c-7.13-0.31-14.67-0.08-21.84-0.08c-7.28,0-14.56,0.01-21.84,0c-3.83-0.01-6.03,1.22-7.33,3.63c-1.29,2.39-0.82,6.99-0.82,10.01
			v54.38c0,7.19-1,12.98,8.82,12.97h32.54c14.52,0,25.71-0.42,36.31-7.41C142.86,104.13,148.91,95.34,150.14,81.45 M62.67,38.78
			c1.56-0.48,36.13-0.2,40.84-0.2c12.65-0.01,24.24,2.54,32.08,8.79c7.46,5.95,12.13,15.33,12.13,28.96
			c0.01,13.88-4.68,22.79-11.89,28.98c-7.52,6.45-19.48,9-32.1,9c-2.75,0-39.04,0.24-40.75-0.11c-3.35-0.68-3.32-3.47-3.32-6.89
			V45.79C59.65,42.15,59.52,39.76,62.67,38.78"/>
		<path class="st13" d="M75.89,108c0-5.36-0.02-10.71,0-16.07c0.03-7.4-6.07-7.19-8.38-4.79c-1.79,1.86-1.43,3.61-1.43,6.57
			c0,2.47-0.22,5.28,0.48,7.52C67.73,104.97,71.21,107.83,75.89,108"/>
		<path class="st13" d="M64.55,76.1c0.68,8.23,13.72,7.46,12.87-1.33C76.63,66.5,63.84,67.43,64.55,76.1"/>
		<path class="st1" d="M86.55,82.21c5.01,0,11.74,1.32,11.8-6.77c0.06-7.95-6.9-6.7-11.8-6.7V82.21z M89.55,71.29
			c3.65-0.42,5.74,0.43,5.82,4.14c0.09,3.88-2.16,4.71-5.85,4.18L89.55,71.29z"/>
		<path class="st1" d="M100.56,82.21h10.07l0.01-2.51l-7.09-0.01l0.02-3.24l6.37-0.03l0-2.28l-6.39-0.04l0.01-2.83l6.97-0.06v-2.36
			c-1.77-0.32-7.73-0.12-9.92-0.12L100.56,82.21z"/>
		<path class="st1" d="M115.09,82.21c0.77-0.55,1.1-2.11,1.3-3l5.1,0.07l0.92,2.93h3.09c-0.28-1.07-4.54-13.28-5.28-13.47h-2.45
			c-0.78,0.5-2.33,5.38-2.79,6.59c-0.73,1.94-2.08,4.97-2.52,6.85L115.09,82.21z M119.03,72.18l1.61,4.8l-3.42-0.01L119.03,72.18z"
			/>
		<path class="st1" d="M127.28,68.75c0,2.32-0.28,12,0.15,13.49l9.23-0.01l-0.02-2.49l-6.39-0.01V68.75H127.28z"/>
		<path class="st12" d="M89.53,79.62c3.69,0.53,5.93-0.3,5.85-4.18c-0.08-3.71-2.18-4.56-5.82-4.14L89.53,79.62z"/>
		<polygon class="st12" points="117.22,76.98 120.64,76.99 119.03,72.18 		"/>
	</g>
</g>
</svg>
