<svg xmlns="http://www.w3.org/2000/svg" viewBox="0 0 194.38 145.87" fill="none"><g transform="scale(0.313516 0.313699)">
<path d="M0 0 C204.6 0 409.2 0 620 0 C620 153.45 620 306.9 620 465 C415.4 465 210.8 465 0 465 C0 311.55 0 158.1 0 0 Z " fill="#562873" transform="translate(0,0)"/>
<path d="M0 0 C0.78794 0.20399 1.57588 0.40799 2.3877 0.61816 C25.85239 6.84941 48.11655 16.52891 67 32 C67.27264 32.2226 67.27264 32.2226 68.65234 33.34912 C86.26349 47.79046 86.26349 47.79046 88 53 C87.505 53.165 87.505 53.165 85 54 C84.30062 55.31647 83.63271 56.65022 83 58 C82.34 58.33 81.68 58.66 81 59 C80.67 59.99 80.34 60.98 80 62 C78.69444 63.36054 77.35784 64.69163 76 66 C72.04225 70.65889 68.59256 75.55564 65.375 80.75 C62.91499 84.71457 60.2994 87.7006 57 91 C55.64359 93.24823 54.41411 95.54408 53.18359 97.86328 C51.1057 101.61447 48.30176 104.65298 45.5 107.875 C43.29366 110.50641 41.62437 113.2514 39.97266 116.25391 C38.46009 118.96923 36.83696 121.48949 35 124 C34.34 124 33.68 124 33 124 C32.67 125.65 32.34 127.3 32 129 C32.98591 128.93736 33.97181 128.87472 34.98759 128.81018 C44.32803 128.21727 53.66874 127.62869 63.00971 127.04424 C67.81073 126.74372 72.61165 126.44172 77.41235 126.13623 C82.05463 125.84088 86.69715 125.54956 91.33985 125.26091 C93.10154 125.15069 94.86314 125.03908 96.62464 124.92598 C106.43414 124.29712 116.1657 123.82623 126 124 C126.48039 126.37476 126.95934 128.74979 127.4375 131.125 C127.57221 131.79016 127.70691 132.45531 127.8457 133.14062 C129.17321 139.74576 130.16991 146.05608 130.27344 152.80078 C130.28574 153.54673 130.29804 154.29268 130.31071 155.06123 C130.34284 157.47836 130.36165 159.8952 130.375 162.3125 C130.37761 162.72338 130.37761 162.72338 130.39084 164.80267 C130.43629 180.28619 128.92998 195.21007 124 210 C117.65712 209.73516 112.69321 208.71556 106.98438 205.92188 C104.69559 204.85858 102.49997 204.32258 100 204 C100 203.34 100 202.68 100 202 C98.95199 201.93941 97.90398 201.87883 96.82422 201.81641 C95.4453 201.73198 94.06639 201.64734 92.6875 201.5625 C91.99721 201.52318 91.30691 201.48387 90.5957 201.44336 C87.52838 201.25073 84.93032 200.97677 82 200 C82 199.01 82 198.02 82 197 C79.69 197 77.38 197 75 197 C75 196.34 75 195.68 75 195 C74.00355 194.88527 73.00711 194.77055 71.98047 194.65234 C67.9411 194.075 64.1682 192.86555 60.3125 191.5625 C53.61102 189.3723 47.00871 187.88936 40 187 C40 186.34 40 185.68 40 185 C39.44313 184.95102 38.88625 184.90203 38.3125 184.85156 C33.03433 184.33444 28.11638 183.39538 23 182 C23 181.01 23 180.02 23 179 C22.44313 178.87883 21.88625 178.75766 21.3125 178.63281 C20.93094 178.54902 20.93094 178.54902 19 178.125 C18.58492 178.03412 18.58492 178.03412 16.48438 177.57422 C14.39102 177.09038 12.31717 176.5232 10.25 175.9375 C5.58093 174.72561 0.85296 174.57379 -3.94922 174.34375 C-6.97318 174.00302 -9.24859 173.26596 -12 172 C-12 171.01 -12 170.02 -12 169 C-13.13437 168.87625 -14.26875 168.7525 -15.4375 168.625 C-20.03338 168.05771 -24.49901 167.07315 -29 166 C-29 165.34 -29 164.68 -29 164 C-29.99 164.33 -30.98 164.66 -32 165 C-32 165.66 -32 166.32 -32 167 C-31.34 167.33 -30.68 167.66 -30 168 C-27.99044 170.93704 -27 172.39222 -27 176 C-26.34 176 -25.68 176 -25 176 C-23.81641 177.79297 -23.81641 177.79297 -22.5625 180.1875 C-21.16739 182.81675 -19.77633 185.35478 -18.1875 187.875 C-17 190 -17 190 -17 193 C-16.34 193 -15.68 193 -15 193 C-11.70986 197.57759 -9 203.31332 -9 209 C-8.34 209 -7.68 209 -7 209 C-5.78125 210.82812 -5.78125 210.82812 -4.5 213.25 C-4.07719 214.03891 -3.65437 214.82781 -3.21875 215.64062 C-3.01766 216.02992 -3.01766 216.02992 -2 218 C-1.82408 218.30438 -1.82408 218.30438 -0.93384 219.84473 C0.15612 222.36032 0.21536 224.11139 0.16016 226.84375 C0.15468 227.30201 0.15468 227.30201 0.12695 229.62109 C0.10568 230.57113 0.08441 231.52117 0.0625 232.5 C0.02797 234.38534 -0.00215 236.27076 -0.02734 238.15625 C-0.04531 238.98963 -0.06328 239.82301 -0.08179 240.68164 C-0.00158 242.95516 0.40802 244.81276 1 247 C1.43841 250.1138 1.71063 253.24416 2 256.375 C2.08758 257.31948 2.17515 258.26396 2.26538 259.23706 C3.107 269.02985 3.4136 278.83303 3.6582 288.65576 C3.80963 294.4726 4.06144 300.18238 4.78833 305.95532 C5.15413 309.4889 5.10573 313.01411 5.0625 316.5625 C5.05799 317.28502 5.05348 318.00754 5.04883 318.75195 C5.03724 320.50134 5.01932 322.25068 5 324 C1.45847 324.64657 -2.08325 325.29212 -5.625 325.9375 C-6.62402 326.1199 -7.62305 326.3023 -8.65234 326.49023 C-10.59615 326.84424 -12.54048 327.19538 -14.48535 327.54346 C-16.33527 327.87932 -18.18081 328.23952 -20.02344 328.61328 C-36.23211 330.71913 -53.01072 328.87048 -69 326 C-69.61811 325.89172 -69.61811 325.89172 -72.74609 325.34375 C-78.11811 324.17015 -78.11811 324.17015 -80 323 C-82.19538 318.25915 -82.72186 313.07209 -83.4375 307.9375 C-83.50066 307.49789 -83.50066 307.49789 -83.82031 305.27319 C-84.08522 303.42689 -84.34805 301.58028 -84.60889 299.7334 C-84.97622 297.16621 -85.36146 294.60252 -85.75391 292.03906 C-87.24802 282.15073 -88.40561 272.26599 -89.375 262.3125 C-90.60896 249.66653 -92.34729 237.13756 -94.28662 224.58325 C-95.44216 217.06815 -96.44483 209.58593 -97 202 C-97.66 202 -98.32 202 -99 202 C-100.875 204.23047 -100.875 204.23047 -103 207.1875 C-103.70125 208.15043 -104.4025 209.11336 -105.125 210.10547 C-106.81994 212.72203 -107.87779 215.11363 -109 218 C-110.29687 219.92187 -110.29687 219.92187 -111.75 221.75 C-114.02014 224.66639 -116.07807 227.63234 -118.0625 230.75 C-120.34053 234.23264 -122.66769 236.47825 -126 239 C-127.5625 241.375 -127.5625 241.375 -129 244 C-131.0184 247.22944 -132.89387 249.89639 -135.625 252.5625 C-138 255 -138 255 -138.875 257.3125 C-140.05506 260.13154 -141.31893 261.58219 -143.375 263.8125 C-146.39537 267.10802 -148.30903 270.20264 -149.98047 274.33594 C-151.29581 276.48281 -152.70784 277.06036 -155 278 C-171.58311 260.79697 -195 230.4972 -195 205 C-164.00576 202.90452 -133.00603 200.91289 -102 199 C-101.67 197.68 -101.34 196.36 -101 195 C-101.29455 194.86529 -101.29455 194.86529 -102.78516 194.18359 C-104.99078 193.00493 -106.59172 191.73777 -108.4375 190.0625 C-110.37198 188.30755 -112.14609 186.91476 -114.41016 185.59375 C-117.30268 183.81373 -119.53821 181.77545 -122 179.4375 C-126.63377 175.14232 -131.44348 171.2753 -136.49609 167.48804 C-139.36963 165.31596 -142.02671 163.11953 -144.5 160.5 C-147 158 -147 158 -149.5625 157 C-152.50293 155.79367 -153.82097 153.99561 -155.74609 151.52734 C-157.99756 148.7849 -160.44347 146.29185 -164 145.625 C-166.73041 144.77175 -167.73635 142.96235 -169.42969 140.75781 C-171.99155 137.89005 -175.10328 135.76369 -178.20703 133.51562 C-178.50287 133.26555 -178.50287 133.26555 -180 132 C-180 131.34 -180 130.68 -180 130 C-181.6875 129.0625 -181.6875 129.0625 -184 128 C-185.70116 127.05988 -187.36504 126.05104 -189 125 C-189.55687 124.66227 -190.11375 124.32453 -190.6875 123.97656 C-192.375 122.8125 -192.375 122.8125 -195 120 C-194.78777 113.70854 -192.93232 108.40865 -190.5625 102.625 C-190.20978 101.75794 -189.85706 100.89089 -189.49365 99.99756 C-172.38878 59.08425 -139.14389 25.77164 -98.18018 8.79956 C-68.13675 -3.28712 -31.80882 -8.39753 0 0 Z " fill="#F5A8A3" transform="translate(344,70)"/>
<path d="M0 0 C0.165 0.33 0.165 0.33 1 2 C1.73477 2.29262 2.46953 2.58523 3.22656 2.88672 C6.36126 4.14501 8.67455 5.7891 11.375 7.8125 C12.33148 8.52148 13.28797 9.23047 14.27344 9.96094 C15.1732 10.63383 16.07297 11.30672 17 12 C23.55621 16.85207 23.55621 16.85207 27 18 C27 18.66 27 19.32 27 20 C27.39187 20.15469 27.39187 20.15469 29.375 20.9375 C32 22 32 22 34 23 C34 23.66 34 24.32 34 25 C34.59812 25.10313 35.19625 25.20625 35.8125 25.3125 C38.35458 26.11144 39.15969 27.11425 41 29 C42.14635 29.90145 43.31366 30.77687 44.5 31.625 C45.08781 32.05039 45.67562 32.47578 46.28125 32.91406 C48 34 48 34 51 35 C51 35.66 51 36.32 51 37 C52.6875 37.9375 52.6875 37.9375 55 39 C59.58127 41.63327 63.76816 44.68637 68.01562 47.82031 C69.98555 49.25908 71.97513 50.67136 73.98438 52.05469 C81.35548 57.17462 85.73704 61.51631 89 70 C89.33 70.495 89.33 70.495 91 73 C93 76 93 76 93.9375 78.4375 C95 81 95 81 97.1875 83.9375 C101.27884 89.46929 104.04187 95.81738 107 102 C107.44086 102.88945 107.88172 103.77891 108.33594 104.69531 C110.44179 109.10117 111.12072 112.0503 111 117 C111.99 117.66 112.98 118.32 114 119 C113 122 113 122 111.39062 122.92188 C110.68422 123.19516 109.97781 123.46844 109.25 123.75 C100.44821 127.40807 92.20101 132.29002 83.90234 136.95703 C82.56558 137.68992 81.19964 138.37083 79.81641 139.01172 C78 140 78 140 77 142 C74.68529 142.7287 72.34941 143.3924 70 144 C66.27245 145.24252 64.726 147.20752 62 150 C58.48276 153 58.48276 153 55 153 C54.67 154.32 54.34 155.64 54 157 C53.34 157 52.68 157 52 157 C50.125 159.23047 50.125 159.23047 48 162.1875 C47.29875 163.15043 46.5975 164.11336 45.875 165.10547 C44.18006 167.72203 43.12221 170.11363 42 173 C40.70312 174.92188 40.70312 174.92188 39.25 176.75 C36.97986 179.66639 34.92193 182.63234 32.9375 185.75 C30.65947 189.23264 28.33231 191.47825 25 194 C23.4375 196.375 23.4375 196.375 22 199 C19.9816 202.22944 18.10613 204.89639 15.375 207.5625 C13 210 13 210 12.125 212.3125 C10.94494 215.13154 9.68107 216.58219 7.625 218.8125 C4.60463 222.10802 2.69097 225.20264 1.01953 229.33594 C-0.29581 231.48281 -1.70784 232.06036 -4 233 C-20.58311 215.79697 -44 185.4972 -44 160 C-13.00576 157.90452 17.99397 155.91289 49 154 C49.33 152.68 49.66 151.36 50 150 C49.70545 149.86529 49.70545 149.86529 48.21484 149.18359 C46.00922 148.00493 44.40828 146.73777 42.5625 145.0625 C40.62802 143.30755 38.85391 141.91476 36.58984 140.59375 C33.69732 138.81373 31.46179 136.77545 29 134.4375 C24.36623 130.14232 19.55652 126.2753 14.50391 122.48804 C11.63037 120.31596 8.97329 118.11953 6.5 115.5 C4 113 4 113 1.4375 112 C-1.50293 110.79367 -2.82097 108.99561 -4.74609 106.52734 C-6.99756 103.7849 -9.44347 101.29185 -13 100.625 C-15.73041 99.77175 -16.73635 97.96235 -18.42969 95.75781 C-20.99155 92.89005 -24.10328 90.76369 -27.20703 88.51562 C-27.50287 88.26555 -27.50287 88.26555 -29 87 C-29 86.34 -29 85.68 -29 85 C-30.6875 84.0625 -30.6875 84.0625 -33 83 C-34.70116 82.05988 -36.36504 81.05104 -38 80 C-38.55687 79.66227 -39.11375 79.32453 -39.6875 78.97656 C-41.375 77.8125 -41.375 77.8125 -44 75 C-43.78777 68.70854 -41.93232 63.40865 -39.5625 57.625 C-39.20978 56.75794 -38.85706 55.89089 -38.49365 54.99756 C-30.46551 35.79496 -17.84088 11.89392 0 0 Z " fill="#A7A3CF" transform="translate(193,115)"/>
<path d="M0 0 C0.02506 0.56396 0.05011 1.12793 0.07593 1.70898 C0.19318 4.30615 0.31531 6.90306 0.4375 9.5 C0.47682 10.38688 0.51613 11.27375 0.55664 12.1875 C0.59854 13.06406 0.64043 13.94062 0.68359 14.84375 C0.72025 15.63975 0.75691 16.43574 0.79468 17.25586 C0.95649 19.41851 1.20744 21.57449 1.49072 23.72461 C2.08432 28.33046 2.2879 32.92452 2.46484 37.5625 C2.54231 39.42025 2.61995 41.278 2.69775 43.13574 C2.73685 44.09525 2.77594 45.05475 2.81622 46.04333 C3.50098 62.73726 4.35094 79.36902 6 96 C6.61875 95.34 7.2375 94.68 7.875 94 C10 92 10 92 12 92 C12.2475 91.2575 12.495 90.515 12.75 89.75 C14.12604 86.72271 15.62751 85.30471 18 83 C18.82943 81.84531 19.6408 80.67751 20.4375 79.5 C22.06559 77.14277 23.25579 75.80036 25.5625 74 C28.12671 71.89603 29.37624 69.85499 30.8125 66.87891 C32.50298 64.20417 34.75117 62.21911 37 60 C38.54366 58.16479 40.06474 56.31035 41.5625 54.4375 C43.64765 51.83196 45.68103 49.31533 48.05469 46.96875 C50.18598 44.81178 51.83039 42.55031 53.5625 40.0625 C57.54514 34.50016 61.87539 29.33427 66.32031 24.14453 C71.06671 18.59918 75.69158 12.96603 79.8125 6.9375 C82 4 82 4 85 3 C85.02686 5.14577 85.04633 7.29163 85.0625 9.4375 C85.0741 10.63246 85.0857 11.82742 85.09766 13.05859 C85 16 85 16 84 17 C83.63239 19.32818 83.29758 21.66184 83 24 C82.34 24 81.68 24 81 24 C80.86336 25.0132 80.72672 26.02641 80.58594 27.07031 C79.21195 36.28522 77.17218 45.23875 74 54 C73.34 54 72.68 54 72 54 C71.97551 54.30744 71.97551 54.30744 71.85156 55.86328 C71.7768 56.67152 71.70203 57.47977 71.625 58.3125 C71.55539 59.11301 71.48578 59.91352 71.41406 60.73828 C71 63 71 63 69 66 C68.54982 67.77907 68.10582 69.55985 67.6875 71.34668 C66.08792 77.52006 63.97565 83.56317 62 89.625 C61.54403 91.03117 61.0883 92.43742 60.63281 93.84375 C57.37009 103.90672 57.37009 103.90672 55.91577 108.20288 C54.54228 112.39806 53.58155 116.69254 52.58789 120.99023 C51.48508 125.57282 49.87894 129.66324 48 134 C47.2871 136.42438 46.6208 138.86292 46 141.3125 C44.47053 147.25362 42.81972 153.14106 41 159 C40.01 158.67 39.02 158.34 38 158 C36.8125 155.4375 36.8125 155.4375 36 153 C35.34 153 34.68 153 34 153 C33.08817 151.001 32.18823 148.99611 31.33203 146.97266 C27.95174 139.42896 24.13729 131.62972 19.1875 125 C17.46689 122.64031 16.44889 120.9394 15.375 118.3125 C14 115 14 115 12.5 113 C11 111 11 111 9.5625 107.5625 C6.98653 101.68929 3.69552 98.51665 -1.6875 95.125 C-6.29183 92.15428 -10.61275 89.02386 -14.88672 85.60156 C-17.64759 83.50922 -20.5609 81.75956 -23.56641 80.04297 C-23.80295 79.87088 -23.80295 79.87088 -25 79 C-25 78.34 -25 77.68 -25 77 C-25.28102 76.94779 -25.28102 76.94779 -26.70312 76.68359 C-29.4238 75.87387 -31.39258 74.63797 -33.75 73.0625 C-34.54922 72.53785 -35.34844 72.0132 -36.17188 71.47266 C-36.77516 70.98668 -37.37844 70.5007 -38 70 C-38 69.34 -38 68.68 -38 68 C-39.32 67.67 -40.64 67.34 -42 67 C-42 66.34 -42 65.68 -42 65 C-42.78375 64.69063 -43.5675 64.38125 -44.375 64.0625 C-47 63 -47 63 -49 62 C-49 61.34 -49 60.68 -49 60 C-49.29242 59.94151 -49.29242 59.94151 -50.77222 59.64551 C-53.12875 58.96269 -54.64248 58.07467 -56.64453 56.67188 C-57.32193 56.20137 -57.99934 55.73086 -58.69727 55.24609 C-59.39529 54.75238 -60.09332 54.25867 -60.8125 53.75 C-61.49893 53.27176 -62.18535 52.79352 -62.89258 52.30078 C-66.24327 49.96132 -69.57038 47.59096 -72.88672 45.20312 C-76 43 -76 43 -78 42 C-59.6488 24.85012 -39.54417 11.83661 -16 3 C-14.7741 2.53465 -13.5482 2.0693 -12.28516 1.58984 C-4.35186 -1.24691 -4.35186 -1.24691 0 0 Z " fill="#F17559" transform="translate(269,73)"/>
<path d="M0 0 C2.3125 0.1875 2.3125 0.1875 5 1 C7.20971 3.89548 8 5.33158 8 9 C8.66 9 9.32 9 10 9 C11.18359 10.79297 11.18359 10.79297 12.4375 13.1875 C13.83261 15.81675 15.22367 18.35478 16.8125 20.875 C18 23 18 23 18 26 C18.66 26 19.32 26 20 26 C23.29014 30.57759 26 36.31332 26 42 C26.66 42 27.32 42 28 42 C29.21875 43.82812 29.21875 43.82812 30.5 46.25 C30.92281 47.03891 31.34562 47.82781 31.78125 48.64062 C31.98234 49.02992 31.98234 49.02992 33 51 C33.35183 51.60876 33.70367 52.21752 34.06616 52.84473 C35.15612 55.36032 35.21536 57.11139 35.16016 59.84375 C35.15468 60.30201 35.15468 60.30201 35.12695 62.62109 C35.10568 63.57113 35.08441 64.52117 35.0625 65.5 C35.02797 67.38534 34.99785 69.27076 34.97266 71.15625 C34.95469 71.98963 34.93672 72.82301 34.91821 73.68164 C34.99842 75.95516 35.40802 77.81276 36 80 C36.43841 83.1138 36.71063 86.24416 37 89.375 C37.08758 90.31948 37.17515 91.26396 37.26538 92.23706 C38.107 102.02985 38.4136 111.83303 38.6582 121.65576 C38.80963 127.4726 39.06144 133.18238 39.78833 138.95532 C40.15413 142.4889 40.10573 146.01411 40.0625 149.5625 C40.05799 150.28502 40.05348 151.00754 40.04883 151.75195 C40.03724 153.50134 40.01932 155.25068 40 157 C36.45847 157.64657 32.91675 158.29212 29.375 158.9375 C28.87549 159.0287 28.87549 159.0287 26.34766 159.49023 C24.40385 159.84424 22.45952 160.19538 20.51465 160.54346 C18.66473 160.87932 16.81919 161.23952 14.97656 161.61328 C-4.35949 164.12545 -26.49692 162.24147 -45 156 C-44.42416 153.61436 -43.77772 151.33317 -43 149 C-42.34 149 -41.68 149 -41 149 C-40.96262 148.41734 -40.92523 147.83469 -40.88672 147.23438 C-40.32791 140.26569 -38.84009 133.73544 -37 127 C-36.34 127 -35.68 127 -35 127 C-35.0232 126.38512 -35.04641 125.77023 -35.07031 125.13672 C-35.07934 124.7326 -35.07934 124.7326 -35.125 122.6875 C-35.1482 121.88699 -35.17141 121.08648 -35.19531 120.26172 C-35 118 -35 118 -33 115 C-32.29313 112.2927 -31.65337 109.60714 -31.0625 106.875 C-29.6908 100.76568 -28.07033 94.91523 -26 89 C-25.62771 87.3416 -25.27064 85.67799 -25 84 C-24.34 84 -23.68 84 -23 84 C-22.89688 83.05125 -22.79375 82.1025 -22.6875 81.125 C-22.26487 78.06244 -21.4811 75.30394 -20.5 72.375 C-18.59195 66.34371 -18.28582 60.28796 -18 54 C-17.34 54 -16.68 54 -16 54 C-15.94521 53.70867 -15.94521 53.70867 -15.66797 52.23438 C-14.35101 45.42472 -12.7308 38.71549 -11 32 C-10.34 32 -9.68 32 -9 32 C-9 30.68 -9 29.36 -9 28 C-8.34 28 -7.68 28 -7 28 C-6.98582 27.35676 -6.97164 26.71352 -6.95703 26.05078 C-6.58622 19.02542 -4.86409 13.326 -2.15625 6.84766 C-1.22287 4.54889 -0.51278 2.41824 0 0 Z " fill="#EE9BA0" transform="translate(309,237)"/>
<path d="M0 0 C0.165 0.33 0.165 0.33 1 2 C1.73477 2.29262 2.46953 2.58523 3.22656 2.88672 C6.36126 4.14501 8.67455 5.7891 11.375 7.8125 C12.33148 8.52148 13.28797 9.23047 14.27344 9.96094 C15.1732 10.63383 16.07297 11.30672 17 12 C23.55621 16.85207 23.55621 16.85207 27 18 C27 18.66 27 19.32 27 20 C27.39187 20.15469 27.39187 20.15469 29.375 20.9375 C32 22 32 22 34 23 C34 23.66 34 24.32 34 25 C34.59812 25.10313 35.19625 25.20625 35.8125 25.3125 C38.35458 26.11144 39.15969 27.11425 41 29 C42.14635 29.90145 43.31366 30.77687 44.5 31.625 C45.08781 32.05039 45.67562 32.47578 46.28125 32.91406 C48 34 48 34 51 35 C51 35.66 51 36.32 51 37 C52.6875 37.9375 52.6875 37.9375 55 39 C59.57396 41.62906 63.75458 44.67693 67.99609 47.80469 C70.0328 49.29315 72.08837 50.75608 74.16016 52.19531 C75.15918 52.89398 76.1582 53.59266 77.1875 54.3125 C77.64834 54.63025 77.64834 54.63025 79.98047 56.23828 C80.64691 56.81965 81.31336 57.40102 82 58 C82 58.99 82 59.98 82 61 C81.36349 61.03497 81.36349 61.03497 78.14233 61.21191 C26.81007 64.07721 26.81007 64.07721 11.11084 68.53662 C8.52495 69.10428 6.06822 69.19907 3.42188 69.28125 C2.8824 69.29994 2.8824 69.29994 0.15234 69.39453 C-0.97043 69.42934 -2.0932 69.46414 -3.25 69.5 C-10.23616 69.71959 -17.07312 70.06872 -24 71 C-25.66575 71.05915 -27.33341 71.08854 -29 71.0625 C-29.76313 71.05348 -30.52625 71.04445 -31.3125 71.03516 C-31.86937 71.02355 -32.42625 71.01195 -33 71 C-33 71.66 -33 72.32 -33 73 C-35.64 73 -38.28 73 -41 73 C-41.1875 69.6875 -41.1875 69.6875 -41 66 C-40.49469 65.505 -39.98937 65.01 -39.46875 64.5 C-38.98406 64.005 -38.49937 63.51 -38 63 C-38.10313 61.78312 -38.20625 60.56625 -38.3125 59.3125 C-38.59229 51.5037 -33.6695 44.61208 -30 38 C-29.41477 36.91848 -28.82953 35.83695 -28.22656 34.72266 C-21.39228 22.51399 -11.90281 7.93521 0 0 Z " fill="#FCE77A" transform="translate(193,115)"/>
<path d="M0 0 C0.33 0.66 0.66 1.32 1 2 C1.29906 2.14437 1.29906 2.14437 2.8125 2.875 C5 4 5 4 6.8125 5.875 C8.79285 7.79876 10.35672 8.83446 12.75 10.125 C13.8225 10.74375 14.895 11.3625 16 12 C16 12.66 16 13.32 16 14 C17.33084 14.67164 18.66488 15.33692 20 16 C21.78919 17.45304 23.53729 18.95756 25.25 20.5 C25.69602 20.89703 25.69602 20.89703 27.95312 22.90625 C30 25 30 25 30 27 C30.68062 27.04125 31.36125 27.0825 32.0625 27.125 C36.98972 28.59268 40.64227 32.12006 43.625 36.25 C45 38 45 38 47.25 38.8125 C50.00652 40.00281 50.99257 40.86835 53 43 C56.15571 46.3135 59.59529 49.07732 63.25 51.8125 C68.67181 55.87651 73.64479 60.20077 78.5625 64.87109 C80.93842 66.94622 83.26894 68.43756 86 70 C87.64845 71.09035 89.27456 72.21533 90.875 73.375 C91.6768 73.93961 92.47859 74.50422 93.30469 75.08594 C93.86414 75.71758 94.42359 76.34922 95 77 C94.60596 79.61963 94.60596 79.61963 94 82 C79.02102 82.94387 64.04162 83.88096 49.06171 84.81 C46.23008 84.98572 43.39848 85.16202 40.56689 85.33838 C36.6479 85.582 32.72869 85.82196 28.80927 86.05865 C27.41389 86.14339 26.01858 86.22925 24.62335 86.31635 C17.38685 86.76712 10.2375 87.08573 2.98755 86.83325 C2.33166 86.88828 1.67577 86.94331 1 87 C0.835 87.33 0.835 87.33 0 89 C-0.20496 87.8682 -0.40992 86.73641 -0.62109 85.57031 C-0.89307 84.08851 -1.16521 82.60674 -1.4375 81.125 C-1.57221 80.37863 -1.70691 79.63227 -1.8457 78.86328 C-2.88672 73.22656 -2.88672 73.22656 -4 71 C-5.42584 62.56179 -5.19973 53.90563 -5.1875 45.375 C-5.18723 44.66379 -5.18696 43.95258 -5.18668 43.21982 C-5.1604 28.29924 -3.72792 14.51402 0 0 Z " fill="#EE4231" transform="translate(148,188)"/>
<path d="M0 0 C-0.33 0.99 -0.66 1.98 -1 3 C-1.66 3 -2.32 3 -3 3 C-3.70395 4.31403 -4.36346 5.65203 -5 7 C-8.62781 12.11192 -12.72527 16.8873 -16.75 21.6875 C-20.527 26.19795 -24.23234 30.75536 -27.875 35.375 C-28.32714 35.94565 -28.77928 36.5163 -29.24512 37.10425 C-31.33664 39.77012 -33.29109 42.43716 -35.17188 45.26172 C-37.16925 48.25351 -39.42834 50.48957 -42 53 C-44.72732 56.04413 -47.36561 59.11638 -49.75 62.4375 C-49.95625 62.69531 -49.95625 62.69531 -51 64 C-51.66 64 -52.32 64 -53 64 C-54 65.75 -54 65.75 -55 68 C-56 70.25 -56 70.25 -57 72 C-57.66 72 -58.32 72 -59 72 C-59.33 72.99 -59.66 73.98 -60 75 C-60.66 75 -61.32 75 -62 75 C-62.68774 76.32258 -63.34711 77.65987 -64 79 C-64.81006 80.26521 -65.64539 81.51445 -66.5 82.75 C-66.92281 83.36359 -67.34562 83.97719 -67.78125 84.60938 C-67.98234 84.83883 -67.98234 84.83883 -69 86 C-69.66 86 -70.32 86 -71 86 C-71.66 87.65 -72.32 89.3 -73 91 C-73.66 91 -74.32 91 -75 91 C-75.165 91.33 -75.165 91.33 -76 93 C-76.165 93.33 -76.165 93.33 -77 95 C-77.66 95 -78.32 95 -79 95 C-80.61946 91.76108 -80.60964 88.1904 -80.9375 84.625 C-81.0225 83.70832 -81.1075 82.79163 -81.19507 81.84717 C-82.31485 68.67091 -82.76671 55.44705 -83.30249 42.23682 C-83.34172 41.29455 -83.38094 40.35229 -83.42136 39.38147 C-83.49489 37.60531 -83.56559 35.82902 -83.63284 34.05261 C-83.84317 28.9804 -84.33618 24.03251 -85 19 C-85.12848 17.28282 -85.23719 15.56391 -85.31641 13.84375 C-85.3583 12.96719 -85.4002 12.09063 -85.44336 11.1875 C-85.46302 10.74406 -85.46302 10.74406 -85.5625 8.5 C-85.60568 7.58219 -85.64887 6.66438 -85.69336 5.71875 C-85.79833 3.47928 -85.90049 1.23972 -86 -1 C-85.01 -0.67 -84.02 -0.34 -83 0 C-81.11719 -0.70703 -81.11719 -0.70703 -78.875 -1.8125 C-54.91351 -11.73352 -24.18525 -6.19991 0 0 Z " fill="#2C57A5" transform="translate(354,74)"/>
<path d="M0 0 C0.48039 2.37476 0.95934 4.74979 1.4375 7.125 C1.57221 7.79016 1.70691 8.45531 1.8457 9.14062 C3.17321 15.74576 4.16991 22.05608 4.27344 28.80078 C4.28574 29.54678 4.29804 30.29277 4.31071 31.06137 C4.34284 33.47845 4.36165 35.89525 4.375 38.3125 C4.38023 39.13392 4.38545 39.95535 4.39084 40.80167 C4.48257 72.03486 4.48257 72.03486 -2 85 C-4.71127 83.72745 -6.99653 82.34682 -9.32031 80.46094 C-9.93358 79.9665 -10.54686 79.47207 -11.17871 78.96265 C-11.82099 78.43872 -12.46326 77.9148 -13.125 77.375 C-14.46609 76.2903 -15.80724 75.20566 -17.14844 74.12109 C-17.80296 73.58984 -18.45748 73.05858 -19.13184 72.51123 C-22.41575 69.85474 -25.73384 67.2411 -29.04688 64.62109 C-31.67314 62.4413 -33.93613 60.06919 -36.25 57.5625 C-38.76852 55.2157 -41.16912 53.78422 -44.14941 52.12231 C-47.1158 50.32331 -49.65113 48.09812 -52.25 45.8125 C-53.38737 44.83128 -54.52541 43.85082 -55.66406 42.87109 C-55.94459 42.62867 -55.94459 42.62867 -57.36426 41.40186 C-59.75333 39.35438 -62.18633 37.36297 -64.625 35.375 C-65.50672 34.6557 -66.38844 33.93641 -67.29688 33.19531 C-69.17976 31.66615 -71.06539 30.14036 -72.95312 28.61719 C-73.91734 27.83602 -74.88156 27.05484 -75.875 26.25 C-76.73867 25.55391 -77.60234 24.85781 -78.49219 24.14062 C-81 22 -81 22 -83.66797 19.32812 C-85.9938 17.00619 -88.1789 15.65137 -91 14 C-93.1242 12.42447 -95.03376 10.78333 -97 9 C-97 8.34 -97 7.68 -97 7 C-71.02985 4.61223 -71.02985 4.61223 -60 5 C-60 4.34 -60 3.68 -60 3 C-53.54491 2.56673 -47.08939 2.14026 -40.63354 1.71826 C-38.44269 1.57428 -36.25193 1.4288 -34.06128 1.28174 C-10.70932 -0.28393 -10.70932 -0.28393 0 0 Z " fill="#D4CFE4" transform="translate(470,194)"/>
<path d="M0 0 C-4.79002 17.60236 -12.68541 34.66208 -24 49 C-24.57492 49.7657 -25.14984 50.53141 -25.74219 51.32031 C-30.16766 57.17335 -34.99181 62.64004 -40 68 C-40.70125 68.76699 -41.4025 69.53398 -42.125 70.32422 C-42.74375 70.87723 -43.3625 71.43023 -44 72 C-46.3125 71.5 -46.3125 71.5 -49 70 C-50.13437 69.38125 -51.26875 68.7625 -52.4375 68.125 C-53.62843 67.42245 -54.81594 66.71407 -56 66 C-56.29391 65.82791 -56.29391 65.82791 -57.78125 64.95703 C-59.4375 63.9375 -59.4375 63.9375 -62 62 C-62 61.01 -62 60.02 -62 59 C-62.72188 58.77312 -63.44375 58.54625 -64.1875 58.3125 C-67.53534 56.75018 -69.40107 54.59893 -72 52 C-73.66073 51.31868 -75.32777 50.65258 -77 50 C-79.02055 48.3583 -81.02043 46.69088 -83 45 C-83.9075 44.46375 -84.815 43.9275 -85.75 43.375 C-88 42 -88 42 -90 39 C-91.65681 38.3092 -93.32509 37.64569 -95 37 C-96.74355 35.84306 -98.45042 34.62969 -100.125 33.375 C-100.60131 33.02115 -100.60131 33.02115 -103.01172 31.23047 C-103.99785 30.49441 -104.98398 29.75836 -106 29 C-107.97727 27.55989 -109.95637 26.12229 -111.9375 24.6875 C-113.62687 23.4609 -115.31456 22.23199 -117 21 C-117.76441 20.4702 -118.52883 19.94039 -119.31641 19.39453 C-119.87199 18.93434 -120.42758 18.47414 -121 18 C-121 17.34 -121 16.68 -121 16 C-121.66 15.67 -122.32 15.34 -123 15 C-116.71991 13.53465 -110.53325 12.70844 -104.125 12.125 C-96.13781 11.39186 -88.24157 10.32805 -80.3125 9.125 C-66.26913 7.01313 -52.17705 5.6632 -38.03638 4.39502 C-23.09085 3.03538 -23.09085 3.03538 -15.88428 1.41943 C-13.47686 0.88355 -11.07985 0.5952 -8.625 0.375 C-7.83352 0.30023 -7.04203 0.22547 -6.22656 0.14844 C-4.15505 0.01034 -2.07611 0 0 0 Z " fill="#9290C6" transform="translate(467,281)"/>
<path d="M0 0 C0.99 0.33 1.98 0.66 3 1 C3.67603 3.95239 3.67603 3.95239 4.09766 7.89453 C4.17745 8.59713 4.25725 9.29972 4.33946 10.02361 C4.59384 12.28533 4.82886 14.54855 5.0625 16.8125 C5.38147 19.7571 5.70798 22.70084 6.03516 25.64453 C6.1142 26.36877 6.19325 27.09301 6.27469 27.8392 C6.84378 32.94521 7.64132 37.98298 8.52905 43.0437 C9.43797 48.74926 9.94159 54.5015 10.5 60.25 C11.27855 68.03202 12.05634 75.80633 13.0625 83.5625 C13.8306 89.51363 14.5071 95.4692 15.125 101.4375 C15.16887 101.84617 15.16887 101.84617 15.39087 103.91431 C15.93543 109.30331 16.07591 114.58343 16 120 C-8.5497 117.25143 -36.99374 98.19346 -52.8125 79.8125 C-53.53438 78.88437 -54.25625 77.95625 -55 77 C-54.40187 76.29875 -53.80375 75.5975 -53.1875 74.875 C-51 72 -51 72 -49.6875 69.1875 C-48.13986 66.26418 -46.64058 64.35907 -44.4375 61.9375 C-41.77888 59.01302 -40.41913 56.68974 -39 53 C-37.1167 50.56246 -35.05516 48.2929 -33 46 C-30.93991 43.52789 -29.13667 41.24363 -27.5625 38.4375 C-26 36 -26 36 -23.5625 34.125 C-20.28884 31.41026 -19.03384 28.72871 -17 25 C-16.0198 23.98059 -15.02197 22.97754 -14 22 C-12.55714 19.80435 -11.27837 17.59725 -10.16797 15.21484 C-7.50601 9.51712 -3.99166 4.84381 0 0 Z " fill="#2A3892" transform="translate(245,271)"/>
<path d="M0 0 C0.78794 0.20399 1.57588 0.40799 2.3877 0.61816 C25.85239 6.84941 48.11655 16.52891 67 32 C67.54527 32.44521 68.09055 32.89042 68.65234 33.34912 C75.06718 38.60936 81.26223 43.99536 87 50 C85 52 85 52 82.14062 53.26953 C78.49325 55.27922 77.03757 57.24264 74.75 60.6875 C73.54442 62.48887 72.30477 64.26912 71 66 C70.34 66 69.68 66 69 66 C68.01562 67.76953 68.01562 67.76953 67 70 C65.39929 72.70845 63.69884 75.35222 62 78 C61.47535 78.81984 60.9507 79.63969 60.41016 80.48438 C60.14654 80.88914 60.14654 80.88914 58.8125 82.9375 C58.56822 83.31326 58.56822 83.31326 57.33203 85.21484 C56 87 56 87 54 88 C53.71125 88.78375 53.4225 89.5675 53.125 90.375 C51.83406 93.38719 50.56383 94.07713 48 96 C46.75 98.6875 46.75 98.6875 46 101 C45.34 101 44.68 101 44 101 C43.9175 101.61875 43.835 102.2375 43.75 102.875 C42.76175 105.67505 41.5964 105.74114 39 107 C38.30251 108.31747 37.6304 109.64914 37 111 C36.34 111 35.68 111 35 111 C33.44469 113.56168 32.62535 116.08172 32 119 C30.35 118.67 28.7 118.34 27 118 C26.91959 117.26999 26.83919 116.53998 26.75635 115.78784 C26.38319 112.42061 26.00413 109.05407 25.625 105.6875 C25.56184 105.11354 25.56184 105.11354 25.24219 102.20898 C24.52667 95.8945 23.64341 89.66633 22.45508 83.42358 C20.94711 75.39267 20.03055 67.27845 19.5625 59.125 C19.1978 53.37936 18.31796 47.83247 17.22681 42.19141 C15.71542 34.0726 14.9383 25.86445 14.17822 17.64551 C14.06785 16.56882 13.95747 15.49213 13.84375 14.38281 C13.79831 13.90014 13.79831 13.90014 13.56836 11.45752 C12.9276 8.68693 12.0766 7.8489 10 6 C10 5.34 10 4.68 10 4 C9.67129 3.94521 9.67129 3.94521 8.00781 3.66797 C7.05648 3.50941 6.10516 3.35086 5.125 3.1875 C4.5707 3.09791 4.5707 3.09791 1.76562 2.64453 C-0.79431 2.20637 -3.34679 1.7228 -5.89062 1.19922 C-27.25538 -3.07222 -53.7512 -4.00918 -74 5 C-74.33 3.68 -74.66 2.36 -75 1 C-72.83432 0.51637 -70.6674 0.03833 -68.5 -0.4375 C-67.29344 -0.70434 -66.08688 -0.97117 -64.84375 -1.24609 C-44.72975 -5.19122 -19.91728 -5.25816 0 0 Z " fill="#9593C8" transform="translate(344,70)"/>
<path d="M0 0 C0.02686 2.14577 0.04633 4.29163 0.0625 6.4375 C0.0741 7.63246 0.0857 8.82742 0.09766 10.05859 C0 13 0 13 -1 14 C-1.36761 16.32818 -1.70242 18.66184 -2 21 C-2.66 21 -3.32 21 -4 21 C-4.13664 22.0132 -4.27328 23.02641 -4.41406 24.07031 C-5.78805 33.28522 -7.82782 42.23875 -11 51 C-11.66 51 -12.32 51 -13 51 C-13.04898 51.61488 -13.09797 52.22977 -13.14844 52.86328 C-13.2232 53.67152 -13.29797 54.47977 -13.375 55.3125 C-13.44461 56.11301 -13.51422 56.91352 -13.58594 57.73828 C-14 60 -14 60 -16 63 C-16.45018 64.77907 -16.89418 66.55985 -17.3125 68.34668 C-18.91208 74.52006 -21.02435 80.56317 -23 86.625 C-23.45597 88.03117 -23.9117 89.43742 -24.36719 90.84375 C-27.62991 100.90672 -27.62991 100.90672 -29.08423 105.20288 C-30.45772 109.39806 -31.41845 113.69254 -32.41211 117.99023 C-33.51492 122.57282 -35.12106 126.66324 -37 131 C-37.7129 133.42438 -38.3792 135.86292 -39 138.3125 C-40.52947 144.25362 -42.18028 150.14106 -44 156 C-44.99 155.67 -45.98 155.34 -47 155 C-48.1875 152.4375 -48.1875 152.4375 -49 150 C-49.66 150 -50.32 150 -51 150 C-51.91183 148.001 -52.81177 145.99611 -53.66797 143.97266 C-55.28631 140.36105 -57.08248 136.86973 -58.9375 133.375 C-59.28587 132.71726 -59.63424 132.05951 -59.99316 131.38184 C-61.75147 128.12064 -63.55978 125.07981 -65.875 122.1875 C-68.35082 118.47377 -68.89638 115.50807 -69.44531 111.13672 C-70 109 -70 109 -73 107 C-74.87529 103.62895 -76.02949 100.23853 -75.9375 96.375 C-73.80373 90.96945 -70.37646 87.30734 -66.4375 83.125 C-62.51244 78.87178 -60.6931 75.47768 -59 70 C-58.67 69.835 -58.67 69.835 -57 69 C-56.07465 67.34075 -55.15159 65.67912 -54.29297 63.98438 C-52.53641 61.2885 -50.28802 59.25765 -48 57 C-46.45634 55.16479 -44.93526 53.31035 -43.4375 51.4375 C-41.35235 48.83196 -39.31897 46.31533 -36.94531 43.96875 C-34.81402 41.81178 -33.16961 39.55031 -31.4375 37.0625 C-27.45486 31.50016 -23.12461 26.33427 -18.67969 21.14453 C-13.92654 15.5913 -9.30922 9.93407 -5.125 3.9375 C-2.2766 0 -2.2766 0 0 0 Z " fill="#EE4130" transform="translate(354,76)"/>
<path d="M0 0 C0.66 0 1.32 0 2 0 C3.15524 2.08796 4.18548 4.15186 5.1875 6.3125 C7.45141 11.04318 9.84662 15.49219 12.75 19.875 C14.85096 23.04988 16.50894 25.96213 17.75 29.5625 C19 33 19 33 22 35 C23.16797 37.27734 23.16797 37.27734 24.1875 39.9375 C24.53168 40.81277 24.87586 41.68805 25.23047 42.58984 C26 45 26 45 26 48 C26.66 48 27.32 48 28 48 C28.165 48.66 28.165 48.66 29 52 C29.66 52 30.32 52 31 52 C32.90531 55.58646 33.42683 58.70298 32.8125 62.74219 C30.85515 68.18137 26.37944 72.64822 22.32031 76.66016 C21 78 21 78 19.75 80.125 C17.19316 84.32553 14.301 88.34902 11 92 C10.34 92 9.68 92 9 92 C8.84145 92.60328 8.68289 93.20656 8.51953 93.82812 C6.95973 99.17108 5.69391 101.75897 1 105 C-0.67067 106.99666 -2.33753 108.99651 -4 111 C-4.68063 111.47438 -5.36125 111.94875 -6.0625 112.4375 C-8.4306 114.34726 -9.51545 116.58553 -10.93359 119.23828 C-12.54123 121.89412 -14.78611 123.84146 -17 126 C-17.68063 127.09312 -18.36125 128.18625 -19.0625 129.3125 C-19.38219 129.75594 -19.38219 129.75594 -21 132 C-22.32 132 -23.64 132 -25 132 C-26.39051 134.04917 -26.95272 135.6785 -27.3125 138.125 C-27.53938 138.74375 -27.76625 139.3625 -28 140 C-29.66073 140.68132 -31.32777 141.34742 -33 142 C-34.125 143.9375 -34.125 143.9375 -35 146 C-36 147 -37 148 -38 149 C-38.495 149.86625 -38.99 150.7325 -39.5 151.625 C-41 154 -41 154 -44 155 C-43.67 153.02 -43.34 151.04 -43 149 C-42.34 149 -41.68 149 -41 149 C-40.96262 148.41734 -40.92523 147.83469 -40.88672 147.23438 C-40.32791 140.26569 -38.84009 133.73544 -37 127 C-36.34 127 -35.68 127 -35 127 C-35.0232 126.38512 -35.04641 125.77023 -35.07031 125.13672 C-35.07934 124.7326 -35.07934 124.7326 -35.125 122.6875 C-35.1482 121.88699 -35.17141 121.08648 -35.19531 120.26172 C-35 118 -35 118 -33 115 C-32.29313 112.2927 -31.65337 109.60714 -31.0625 106.875 C-29.6908 100.76568 -28.07033 94.91523 -26 89 C-25.62771 87.3416 -25.27064 85.67799 -25 84 C-24.34 84 -23.68 84 -23 84 C-22.89688 83.05125 -22.79375 82.1025 -22.6875 81.125 C-22.26487 78.06244 -21.4811 75.30394 -20.5 72.375 C-18.59195 66.34371 -18.28582 60.28796 -18 54 C-17.34 54 -16.68 54 -16 54 C-15.94521 53.70867 -15.94521 53.70867 -15.66797 52.23438 C-14.35101 45.42472 -12.7308 38.71549 -11 32 C-10.34 32 -9.68 32 -9 32 C-9 30.68 -9 29.36 -9 28 C-8.34 28 -7.68 28 -7 28 C-6.98582 27.35676 -6.97164 26.71352 -6.95703 26.05078 C-6.58622 19.02542 -4.86409 13.326 -2.15625 6.84766 C-1.22287 4.54889 -0.51278 2.41824 0 0 Z " fill="#F9F8F8" transform="translate(309,237)"/>
<path d="M0 0 C0.99 0 1.98 0 3 0 C3 0.66 3 1.32 3 2 C3.55687 2.04898 4.11375 2.09797 4.6875 2.14844 C9.96567 2.66556 14.88362 3.60462 20 5 C20 5.99 20 6.98 20 8 C20.56848 8.04898 20.56848 8.04898 23.44531 8.29688 C34.51594 9.33787 44.42701 11.47567 55 15 C55 15.99 55 16.98 55 18 C56.13437 18.12375 57.26875 18.2475 58.4375 18.375 C63.03338 18.94229 67.49901 19.92685 72 21 C72 21.66 72 22.32 72 23 C72.64582 23.00258 73.29164 23.00516 73.95703 23.00781 C83.51974 23.40026 92.01854 26.27205 100.99219 29.35156 C102.97915 29.99327 104.96913 30.51733 107 31 C107 31.66 107 32.32 107 33 C109.31 33 111.62 33 114 33 C114 33.99 114 34.98 114 36 C114.48211 36.03029 114.48211 36.03029 116.92188 36.18359 C118.18516 36.26738 119.44844 36.35117 120.75 36.4375 C122.00297 36.51871 123.25594 36.59992 124.54688 36.68359 C127.18318 36.92516 129.48037 37.24284 132 38 C132 38.66 132 39.32 132 40 C132.59812 40.05156 132.59812 40.05156 135.625 40.3125 C139.56338 40.80305 142.59898 41.87437 146 44 C146 44.66 146 45.32 146 46 C147.65 46.33 149.3 46.66 151 47 C151 47.33 151 47.66 151 48 C146.70025 48.58071 142.39965 49.15459 138.09814 49.72217 C136.23042 49.96949 134.36322 50.22079 132.49609 50.47266 C126.18738 51.29674 119.88187 52.02248 113.54688 52.61719 C97.97024 54.08411 82.53277 55.94182 67.06519 58.28638 C59.66629 59.39891 52.30562 60.32071 44.8335 60.80981 C40.54481 61.09767 36.27388 61.54656 32 62 C31.5875 60.82438 31.175 59.64875 30.75 58.4375 C29.6569 55.49293 28.4114 52.82776 26.8125 50.125 C25 47 25 47 25 45 C24.34 45 23.68 45 23 45 C21.74609 42.51562 21.74609 42.51562 20.4375 39.25 C20.00309 38.18266 19.56867 37.11531 19.12109 36.01562 C18.24873 33.66905 17.52719 31.44046 17 29 C16.34 29 15.68 29 15 29 C13.5625 26.55078 13.5625 26.55078 12 23.3125 C11.48438 22.25676 10.96875 21.20102 10.4375 20.11328 C9.2008 17.43489 8.06179 14.75148 7 12 C6.34 12 5.68 12 5 12 C2.95831 9.09451 2 7.59858 2 4 C1.01 3.67 0.02 3.34 -1 3 C-0.67 2.01 -0.34 1.02 0 0 Z " fill="#303890" transform="translate(312,234)"/>
<path d="M0 0 C1.22266 1.73438 1.22266 1.73438 2.0625 3.75 C3.2806 6.47717 4.44659 8.66989 6.125 11.1875 C8 14 8 14 8.9375 16.4375 C10 19 10 19 12.1875 21.9375 C16.27884 27.46929 19.04187 33.81738 22 40 C22.22043 40.44473 22.22043 40.44473 23.33594 42.69531 C25.3805 46.97294 26.49809 50.14361 26 55 C24.74187 55.04125 23.48375 55.0825 22.1875 55.125 C21.83365 55.1366 21.83365 55.1366 20.04297 55.19531 C18 55 18 55 15 53 C12.29326 52.25438 9.60771 51.56905 6.875 50.9375 C-0.87543 49.12457 -0.87543 49.12457 -2 48 C-3.40986 47.69573 -4.82869 47.43279 -6.25 47.1875 C-11.28276 46.21478 -16.06732 44.80247 -20.95312 43.26562 C-37.80573 37.97207 -54.67866 33.48235 -72 30 C-72 29.34 -72 28.68 -72 28 C-73.12793 27.88656 -74.25586 27.77312 -75.41797 27.65625 C-80.1925 27.05878 -84.69916 25.83775 -89.3125 24.5 C-89.71114 24.38721 -89.71114 24.38721 -91.72852 23.81641 C-94.84209 22.9313 -97.9286 22.0238 -101 21 C-101 20.34 -101 19.68 -101 19 C-102.25813 19.06187 -103.51625 19.12375 -104.8125 19.1875 C-110.35985 19.17869 -115.93047 18.32245 -121 16 C-122.14282 13.93457 -122.14282 13.93457 -123 12 C-122.67987 11.97233 -122.67987 11.97233 -121.05981 11.83228 C-118.14378 11.57856 -115.22815 11.32057 -112.3125 11.0625 C-111.8088 11.01899 -111.8088 11.01899 -109.25977 10.79883 C-108.2833 10.71182 -107.30684 10.6248 -106.30078 10.53516 C-105.40529 10.4566 -104.50979 10.37805 -103.58716 10.29712 C-101.01628 10.00187 -98.53591 9.5081 -96 9 C-93.20592 8.8016 -90.42199 8.63203 -87.625 8.5 C-82.35451 8.24858 -77.2141 7.82545 -72 7 C-72 6.34 -72 5.68 -72 5 C-56.72595 1.6267 -41.44941 0.21716 -25.875 -0.875 C-24.88472 -0.9482 -23.89444 -1.02141 -22.87415 -1.09683 C-20.01839 -1.30481 -17.16205 -1.49536 -14.30469 -1.67969 C-13.8728 -1.71131 -13.8728 -1.71131 -11.68716 -1.87135 C-7.30904 -2.12877 -3.94343 -2.23063 0 0 Z " fill="#EEEDF3" transform="translate(278,177)"/>
<path d="M0 0 C3.10907 1.03636 4.1042 2.12904 6.30078 4.41797 C10.18231 8.03181 14.67624 10.94555 19 14 C19.89977 14.6484 20.79953 15.2968 21.72656 15.96484 C25.23527 18.47182 28.55946 20.78374 32.4375 22.6875 C35.26972 24.13815 36.12578 25.50104 38 28 C39.99145 29.01691 41.99187 30.01643 44 31 C45.33333 32.33333 46.66667 33.66667 48 35 C48.80437 35.30937 49.60875 35.61875 50.4375 35.9375 C53.73821 37.30609 55.52287 39.45935 58 42 C58.76313 42.37125 59.52625 42.7425 60.3125 43.125 C60.86937 43.41375 61.42625 43.7025 62 44 C62 44.99 62 45.98 62 47 C63.75391 48.07422 63.75391 48.07422 66 49 C67.31501 49.59868 68.62751 50.2029 69.9375 50.8125 C70.5859 51.1077 71.2343 51.40289 71.90234 51.70703 C74.68925 53.42484 76.7532 55.63598 79 58 C62.83093 73.7993 43.14264 85.2106 22 93 C21.47084 93.20689 21.47084 93.20689 18.79297 94.25391 C14.25921 95.99579 10.87902 97.08609 6 97 C4.73383 83.96232 3.85419 70.97084 3.5 57.875 C3.24657 48.67856 2.84685 39.53741 2 30.375 C1.91686 29.47507 1.83371 28.57515 1.74805 27.64795 C1.14208 21.54177 1.14208 21.54177 0.47485 18.99756 C-0.02679 16.88731 -0.11406 15.05653 -0.09766 12.89062 C-0.09443 12.13652 -0.09121 11.38242 -0.08789 10.60547 C-0.07951 9.82816 -0.07113 9.05086 -0.0625 8.25 C-0.05799 7.45723 -0.05348 6.66445 -0.04883 5.84766 C-0.03709 3.8984 -0.01915 1.94919 0 0 Z " fill="#C93427" transform="translate(343,296)"/>
<path d="M0 0 C3.24477 0.58674 4.92653 1.56319 7.3125 3.8125 C9.6483 5.91322 11.85146 7.58811 14.625 9.0625 C18.12628 11.07249 20.21816 13.08877 23 16 C28.32411 20.98607 33.77852 25.70519 39.58594 30.11719 C42.4565 32.35604 45.22441 34.70825 48 37.0625 C52.22328 40.61157 56.48089 43.827 61.16016 46.74609 C63.01439 48.00981 64.43055 49.40503 66 51 C66.495 51.33 66.495 51.33 69 53 C69 53.66 69 54.32 69 55 C70.31978 55.6931 71.65594 56.35523 73 57 C74.17791 57.96201 75.32189 58.96639 76.4375 60 C80.59083 63.73096 84.96674 67.10218 89.4314 70.44727 C92.51926 72.78055 95.33789 75.18928 98 78 C91.65712 77.73516 86.69321 76.71556 80.98438 73.92188 C78.69559 72.85858 76.49997 72.32258 74 72 C74 71.34 74 70.68 74 70 C72.95199 69.93941 71.90398 69.87883 70.82422 69.81641 C69.4453 69.73198 68.06639 69.64734 66.6875 69.5625 C65.99721 69.52318 65.30691 69.48387 64.5957 69.44336 C61.52838 69.25073 58.93032 68.97677 56 68 C56 67.01 56 66.02 56 65 C53.69 65 51.38 65 49 65 C49 64.34 49 63.68 49 63 C48.00355 62.88527 47.00711 62.77055 45.98047 62.65234 C41.9411 62.075 38.1682 60.86555 34.3125 59.5625 C27.61102 57.3723 21.00871 55.88936 14 55 C14 54.34 14 53.68 14 53 C13.44313 52.95102 12.88625 52.90203 12.3125 52.85156 C7.03433 52.33444 2.11638 51.39538 -3 50 C-3 49.01 -3 48.02 -3 47 C-3.55687 46.87883 -4.11375 46.75766 -4.6875 46.63281 C-5.45063 46.46523 -6.21375 46.29766 -7 46.125 C-7.83016 45.94324 -8.66031 45.76148 -9.51562 45.57422 C-11.60898 45.09038 -13.68283 44.5232 -15.75 43.9375 C-20.41907 42.72561 -25.14704 42.57379 -29.94922 42.34375 C-32.97318 42.00302 -35.24859 41.26596 -38 40 C-38 39.01 -38 38.02 -38 37 C-38.56719 36.93813 -38.56719 36.93813 -41.4375 36.625 C-46.03338 36.05771 -50.49901 35.07315 -55 34 C-55 32.68 -55 31.36 -55 30 C-52.625 28.625 -52.625 28.625 -49 27 C-47.40982 26.01092 -45.82704 25.0099 -44.25 24 C-40.01292 21.40925 -36.04198 19.97588 -31.26172 18.72266 C-29.03073 18.00982 -27.46352 17.15964 -25.5625 15.8125 C-23 14 -23 14 -20 14 C-20 13.34 -20 12.68 -20 12 C-19.03062 11.73188 -18.06125 11.46375 -17.0625 11.1875 C-16.05187 10.79563 -15.04125 10.40375 -14 10 C-13.67 9.01 -13.34 8.02 -13 7 C-10.56641 5.61328 -10.56641 5.61328 -7.5625 4.3125 C-6.57379 3.87551 -5.58508 3.43852 -4.56641 2.98828 C-2 2 -2 2 0 2 C0 1.34 0 0.68 0 0 Z " fill="#E24031" transform="translate(370,202)"/>
<path d="M0 0 C-0.33 0.66 -0.66 1.32 -1 2 C-1.66 2 -2.32 2 -3 2 C-3.26812 2.70125 -3.53625 3.4025 -3.8125 4.125 C-6.34469 10.25557 -9.26442 16.26442 -14 21 C-14.15469 21.54656 -14.15469 21.54656 -14.9375 24.3125 C-16.70036 30.43066 -19.11554 33.09243 -24 37 C-25.5625 39.375 -25.5625 39.375 -27 42 C-29.0184 45.22944 -30.89387 47.89639 -33.625 50.5625 C-36 53 -36 53 -36.875 55.3125 C-38.05506 58.13154 -39.31893 59.58219 -41.375 61.8125 C-44.39537 65.10802 -46.30903 68.20264 -47.98047 72.33594 C-49.29581 74.48281 -50.70784 75.06036 -53 76 C-69.58311 58.79697 -93 28.4972 -93 3 C-69.63655 1.22541 -46.30405 -0.24264 -22.875 -0.75 C-21.89125 -0.77287 -20.90751 -0.79574 -19.89395 -0.81931 C-17.11428 -0.88164 -14.33462 -0.9352 -11.55469 -0.98438 C-10.7286 -1.00188 -9.90252 -1.01939 -9.05141 -1.03743 C-5.75673 -1.08325 -3.15047 -1.05016 0 0 Z " fill="#E9E8F3" transform="translate(242,272)"/>
<path d="M0 0 C9.8041 2.9957 17.37125 19.32737 22.11182 28.04443 C24.51949 32.64402 26.77639 37.3091 29 42 C29.1998 42.40992 29.1998 42.40992 30.21094 44.48438 C32.38804 49.11725 34.08784 53.91236 35.75 58.75 C35.86162 59.06941 35.86162 59.06941 36.42651 60.68579 C37.62212 64.2726 38.098 67.2421 38 71 C30.63562 71.50604 23.27113 72.01041 15.9065 72.51279 C12.48457 72.74627 9.06267 72.98027 5.64087 73.21558 C-20.5177 75.01364 -20.5177 75.01364 -31.875 75.625 C-32.23275 75.64464 -32.23275 75.64464 -34.04317 75.744 C-41.02953 76.10055 -48.00698 76.09408 -55 76 C-54.67 74.35 -54.34 72.7 -54 71 C-53.34 71 -52.68 71 -52 71 C-51.87625 70.63906 -51.87625 70.63906 -51.25 68.8125 C-49.88047 65.73105 -48.14003 63.59398 -46 61 C-45.78344 60.62875 -45.78344 60.62875 -44.6875 58.75 C-43.15508 56.25272 -41.51648 54.09472 -39.6875 51.8125 C-37.15744 48.61804 -34.97743 45.40194 -32.9375 41.875 C-30.78005 38.15939 -28.44373 35.08837 -25.57031 31.91406 C-22.93062 28.69653 -20.85917 25.11701 -18.66797 21.58594 C-16.65827 18.47019 -14.44382 15.78325 -12 13 C-11.44313 12.21625 -10.88625 11.4325 -10.3125 10.625 C-9.87937 10.08875 -9.44625 9.5525 -9 9 C-8.34 9 -7.68 9 -7 9 C-6.95875 8.44313 -6.9175 7.88625 -6.875 7.3125 C-5.46964 3.59833 -3.29548 2.19699 0 0 Z " fill="#CB3628" transform="translate(431,123)"/>
<path d="M0 0 C-0.14033 1.97956 -0.28741 3.95865 -0.4375 5.9375 C-0.51871 7.03965 -0.59992 8.1418 -0.68359 9.27734 C-1 12 -1 12 -2 13 C-2.18555 14.53739 -2.32319 16.08068 -2.4375 17.625 C-2.82695 21.99692 -3.64169 25.83452 -5 30 C-5.66 30 -6.32 30 -7 30 C-7.06187 30.60844 -7.06187 30.60844 -7.375 33.6875 C-7.62792 36.17458 -8.03318 38.08157 -8.98047 40.41016 C-10.08611 43.21874 -10.52281 45.76425 -10.9375 48.75 C-11.63127 53.15813 -12.60235 57.12947 -14.09375 61.32031 C-18.16838 73.36859 -20.9994 85.85371 -23.85669 98.23242 C-25.27267 104.28972 -26.93568 110.13073 -29 116 C-29.66 116 -30.32 116 -31 116 C-31.66 121.61 -32.32 127.22 -33 133 C-33.66 133 -34.32 133 -35 133 C-36.125 135 -36.125 135 -37 137 C-38.79276 133.88089 -39.34291 131.32318 -39.625 127.75 C-39.69977 126.85797 -39.77453 125.96594 -39.85156 125.04688 C-39.90055 124.37141 -39.94953 123.69594 -40 123 C-40.66 123 -41.32 123 -42 123 C-43.77813 111.46105 -45.25178 99.93425 -46.375 88.3125 C-47.15835 80.20897 -48.07472 72.16048 -49.30078 64.11328 C-49.35772 63.73861 -49.35772 63.73861 -49.64587 61.84254 C-50.2034 58.20338 -50.77795 54.56778 -51.37451 50.93481 C-52.45329 44.20096 -53.25488 37.51024 -53.41406 30.69141 C-53.44323 29.4817 -53.47239 28.272 -53.50244 27.02563 C-53 24 -53 24 -50.96948 22.0415 C-48.6875 20.8125 -48.6875 20.8125 -46.26172 19.95703 C-43.52354 18.79839 -42.63444 17.43232 -41 15 C-37.71985 12.73783 -34.91176 12.82219 -31 13 C-30.67 12.01 -30.34 11.02 -30 10 C-24.71544 6.46647 -19.08972 4.59586 -12.89062 3.46875 C-11 3 -11 3 -8.875 1.375 C-6.02879 -0.71222 -3.416 -0.19708 0 0 Z " fill="#FBDC1A" transform="translate(301,244)"/>
<path d="M0 0 C2.66217 1.59576 3.83651 2.41077 4.68188 5.45752 C4.76753 6.42287 4.85317 7.38821 4.94141 8.38281 C5.04856 9.4595 5.15571 10.53619 5.26611 11.64551 C5.36392 12.79374 5.46173 13.94197 5.5625 15.125 C5.79665 17.49781 6.03494 19.87021 6.27734 22.24219 C6.39449 23.40073 6.51163 24.55928 6.63232 25.75293 C7.1088 29.96086 7.81687 34.09501 8.625 38.25 C9.79015 44.35092 10.402 50.35867 10.76172 56.55859 C11.46234 66.67744 13.26356 76.69599 14.88745 86.69922 C16.22362 95.10045 17.14072 103.53859 18 112 C19.32 112.33 20.64 112.66 22 113 C22.04125 112.31937 22.0825 111.63875 22.125 110.9375 C23.83722 105.18932 28.30307 101.47921 33 98 C33.165 97.505 33.165 97.505 34 95 C34.66 94.67 35.32 94.34 36 94 C36.14437 93.60813 36.14437 93.60813 36.875 91.625 C38.16594 88.61281 39.43617 87.92287 42 86 C42.68132 84.33927 43.34742 82.67223 44 81 C45.312 79.64567 46.64631 78.31267 48 77 C49.01158 75.34034 50.00998 73.67262 51 72 C52.19411 70.26098 53.40256 68.53172 54.625 66.8125 C57.89324 62.21352 57.89324 62.21352 59 60 C59.66 60 60.32 60 61 60 C61.20625 59.31938 61.4125 58.63875 61.625 57.9375 C64.04823 52.7606 67.34909 49.03586 72.1875 46 C75 45 75 45 78 46 C77.835 46.33 77.835 46.33 77 48 C76.34 48 75.68 48 75 48 C74.3163 49.32468 73.65036 50.65864 73 52 C72.67 52.165 72.67 52.165 71 53 C70.67 53.99 70.34 54.98 70 56 C68.69444 57.36054 67.35784 58.69163 66 60 C62.04225 64.65889 58.59256 69.55564 55.375 74.75 C52.91499 78.71457 50.2994 81.7006 47 85 C45.64359 87.24823 44.41411 89.54408 43.18359 91.86328 C41.1057 95.61447 38.30176 98.65298 35.5 101.875 C33.29366 104.50641 31.62437 107.2514 29.97266 110.25391 C28.46009 112.96923 26.83696 115.48949 25 118 C24.34 118 23.68 118 23 118 C22.67 119.65 22.34 121.3 22 123 C22.43119 122.96391 22.43119 122.96391 24.61328 122.78125 C35.08993 121.98471 45.49647 121.89824 56 122 C56 122.33 56 122.66 56 123 C47.10885 124.0079 38.25169 124.11034 29.3125 124.125 C28.14155 124.12951 26.9706 124.13402 25.76416 124.13867 C24.6625 124.13674 23.56083 124.1348 22.42578 124.13281 C21.42974 124.13168 20.4337 124.13056 19.40747 124.12939 C17 124 17 124 15 123 C12.62017 117.61453 12.35038 111.9817 11.875 106.1875 C11.78863 105.24068 11.70227 104.29387 11.61328 103.31836 C11.1107 97.52271 10.91631 91.81669 11 86 C10.34 86 9.68 86 9 86 C8.86723 84.78441 8.73445 83.56883 8.59766 82.31641 C8.4195 80.73175 8.2411 79.14711 8.0625 77.5625 C7.97549 76.76006 7.88848 75.95762 7.79883 75.13086 C7.11328 69.11328 7.11328 69.11328 6 68 C5.79017 65.85796 5.63177 63.71076 5.5 61.5625 C5.11014 55.22028 5.11014 55.22028 4 53 C3.83496 50.393 3.71792 47.79731 3.625 45.1875 C3.18986 35.00863 2.12851 24.91418 1.01611 14.78979 C0.88576 13.5933 0.7554 12.39681 0.62109 11.16406 C0.56143 10.63015 0.56143 10.63015 0.25952 7.92822 C0.02347 5.26478 -0.04904 2.67171 0 0 Z " fill="#9E86AD" transform="translate(354,76)"/>
<path d="M0 0 C0.02686 2.14577 0.04633 4.29163 0.0625 6.4375 C0.0741 7.63246 0.0857 8.82742 0.09766 10.05859 C0 13 0 13 -1 14 C-1.36761 16.32818 -1.70242 18.66184 -2 21 C-2.66 21 -3.32 21 -4 21 C-4.13664 22.0132 -4.27328 23.02641 -4.41406 24.07031 C-5.78805 33.28522 -7.82782 42.23875 -11 51 C-11.66 51 -12.32 51 -13 51 C-13.04898 51.61488 -13.09797 52.22977 -13.14844 52.86328 C-13.2232 53.67152 -13.29797 54.47977 -13.375 55.3125 C-13.44461 56.11301 -13.51422 56.91352 -13.58594 57.73828 C-14 60 -14 60 -16 63 C-16.45018 64.77907 -16.89418 66.55985 -17.3125 68.34668 C-18.91208 74.52006 -21.02435 80.56317 -23 86.625 C-23.45597 88.03117 -23.9117 89.43742 -24.36719 90.84375 C-27.62991 100.90672 -27.62991 100.90672 -29.08423 105.20288 C-30.45772 109.39806 -31.41845 113.69254 -32.41211 117.99023 C-33.51492 122.57282 -35.12106 126.66324 -37 131 C-37.7129 133.42438 -38.3792 135.86292 -39 138.3125 C-40.52947 144.25362 -42.18028 150.14106 -44 156 C-44.99 155.67 -45.98 155.34 -47 155 C-48.1875 152.4375 -48.1875 152.4375 -49 150 C-49.66 150 -50.32 150 -51 150 C-51.91183 148.001 -52.81177 145.99611 -53.66797 143.97266 C-57.11334 136.28371 -60.99496 128.4395 -66.0625 121.6875 C-66.38219 121.24406 -66.38219 121.24406 -68 119 C-67.835 118.67 -67.835 118.67 -67 117 C-66.01 117.33 -65.02 117.66 -64 118 C-63.87625 118.96938 -63.7525 119.93875 -63.625 120.9375 C-63.41875 121.94813 -63.2125 122.95875 -63 124 C-62.21625 124.26812 -61.4325 124.53625 -60.625 124.8125 C-58 126 -58 126 -57.00391 128.00781 C-55.84496 131.45692 -55 134.34222 -55 138 C-54.38641 138.27586 -53.77281 138.55172 -53.14062 138.83594 C-50.09002 140.49484 -49.80549 142.38315 -48.75 145.625 C-48.41484 146.62789 -48.07969 147.63078 -47.73438 148.66406 C-47.49203 149.43492 -47.24969 150.20578 -47 151 C-46.01 151 -45.02 151 -44 151 C-43.89688 149.78313 -43.79375 148.56625 -43.6875 147.3125 C-43.12375 142.13253 -41.91658 137.16886 -40.69922 132.10938 C-39.86606 128.40437 -39.37022 124.7762 -39 121 C-38.34 121 -37.68 121 -37 121 C-36.34 118.03 -35.68 115.06 -35 112 C-34.34 112 -33.68 112 -33 112 C-32.95102 111.11957 -32.90203 110.23914 -32.85156 109.33203 C-32.7768 108.17059 -32.70203 107.00914 -32.625 105.8125 C-32.5902 105.23822 -32.5902 105.23822 -32.41406 102.33203 C-32.01967 99.15829 -31.27173 96.90545 -30 94 C-29.53885 92.36064 -29.10233 90.71419 -28.6875 89.0625 C-27.52543 84.66195 -26.09477 80.44979 -24.5 76.1875 C-22.30939 70.21431 -20.85294 64.30548 -19.67578 58.05859 C-19.0415 55.18783 -18.13735 52.70179 -17 50 C-16.63129 48.3408 -16.28718 46.67524 -16 45 C-15.34 45 -14.68 45 -14 45 C-13.96971 44.71576 -13.96971 44.71576 -13.81641 43.27734 C-13.64129 41.66356 -13.4613 40.0503 -13.27734 38.4375 C-13.04991 36.43861 -12.8356 34.43823 -12.625 32.4375 C-12.0089 29.04896 -11.03354 26.18222 -9.76562 23 C-8.63641 20.05021 -7.82532 17.04735 -7 14 C-9.68556 16.31238 -12.34798 18.64924 -15 21 C-15.9075 21.80437 -16.815 22.60875 -17.75 23.4375 C-20.16616 26.18924 -21.4429 28.79819 -22.96875 32.08984 C-24.47828 34.88591 -26.73686 36.79344 -29 39 C-29.74268 40.2299 -30.45076 41.48129 -31.125 42.75 C-33 46 -33 46 -36 47 C-37.5642 48.71439 -39.05612 50.49562 -40.5 52.3125 C-41.27344 53.27801 -42.04688 54.24352 -42.84375 55.23828 C-44.15278 56.91488 -45.43276 58.61546 -46.65625 60.35547 C-47.09969 60.89816 -47.54312 61.44086 -48 62 C-48.66 62 -49.32 62 -50 62 C-50.20625 62.72188 -50.4125 63.44375 -50.625 64.1875 C-52.45248 67.92553 -54.70439 69.49247 -58 72 C-58.33 71.34 -58.66 70.68 -59 70 C-58.67 69.835 -58.67 69.835 -57 69 C-56.07465 67.34075 -55.15159 65.67912 -54.29297 63.98438 C-52.53641 61.2885 -50.28802 59.25765 -48 57 C-46.45634 55.16479 -44.93526 53.31035 -43.4375 51.4375 C-41.35235 48.83196 -39.31897 46.31533 -36.94531 43.96875 C-34.81402 41.81178 -33.16961 39.55031 -31.4375 37.0625 C-27.45486 31.50016 -23.12461 26.33427 -18.67969 21.14453 C-13.92654 15.5913 -9.30922 9.93407 -5.125 3.9375 C-2.2766 0 -2.2766 0 0 0 Z " fill="#C9453C" transform="translate(354,76)"/>
<path d="M0 0 C4.44673 2.16914 8.7956 4.39327 13 7 C13 7.66 13 8.32 13 9 C13.39187 9.15469 13.39187 9.15469 15.375 9.9375 C18 11 18 11 20 12 C20 12.66 20 13.32 20 14 C20.59812 14.10313 21.19625 14.20625 21.8125 14.3125 C24.35458 15.11144 25.15969 16.11425 27 18 C28.14635 18.90145 29.31366 19.77687 30.5 20.625 C31.08781 21.05039 31.67562 21.47578 32.28125 21.91406 C34 23 34 23 37 24 C37 24.66 37 25.32 37 26 C38.6875 26.9375 38.6875 26.9375 41 28 C45.57396 30.62906 49.75458 33.67693 53.99609 36.80469 C56.0328 38.29315 58.08837 39.75608 60.16016 41.19531 C61.15918 41.89398 62.1582 42.59266 63.1875 43.3125 C63.64834 43.63025 63.64834 43.63025 65.98047 45.23828 C66.64691 45.81965 67.31336 46.40102 68 47 C68 47.99 68 48.98 68 50 C67.36349 50.03497 67.36349 50.03497 64.14233 50.21191 C12.81007 53.07721 12.81007 53.07721 -2.88916 57.53662 C-5.47505 58.10428 -7.93178 58.19907 -10.57812 58.28125 C-11.1176 58.29994 -11.1176 58.29994 -13.84766 58.39453 C-14.97043 58.42934 -16.0932 58.46414 -17.25 58.5 C-24.23616 58.71959 -31.07312 59.06872 -38 60 C-39.66575 60.05915 -41.33341 60.08854 -43 60.0625 C-43.76313 60.05348 -44.52625 60.04445 -45.3125 60.03516 C-45.86937 60.02355 -46.42625 60.01195 -47 60 C-47 60.66 -47 61.32 -47 62 C-49.64 62 -52.28 62 -55 62 C-55 61.34 -55 60.68 -55 60 C-52.27254 58.29286 -49.83167 57.67396 -46.66211 57.31396 C-45.81443 57.21401 -44.96675 57.11406 -44.09338 57.01108 C-43.186 56.91203 -42.27863 56.81299 -41.34375 56.71094 C-40.40447 56.60279 -39.46518 56.49464 -38.49744 56.38321 C-36.51415 56.15623 -34.53046 55.93288 -32.54639 55.71289 C-29.51047 55.37616 -26.4759 55.02893 -23.44141 54.67969 C-21.51309 54.46032 -19.58471 54.24155 -17.65625 54.02344 C-17.20256 53.97189 -17.20256 53.97189 -14.90662 53.71103 C-14.05894 53.61738 -13.21126 53.52373 -12.33789 53.42725 C-11.59495 53.34445 -10.852 53.26166 -10.08655 53.17636 C-8.06406 53.00541 -6.0297 53 -4 53 C-4 52.34 -4 51.68 -4 51 C-1.03 51 1.94 51 5 51 C5 50.34 5 49.68 5 49 C6.1434 48.95102 7.2868 48.90203 8.46484 48.85156 C9.95575 48.77655 11.44664 48.701 12.9375 48.625 C13.69225 48.59406 14.44699 48.56313 15.22461 48.53125 C17.15507 48.42737 19.07942 48.22104 21 48 C21.165 47.67 21.165 47.67 22 46 C25.35716 45.91275 28.6575 46.00809 32.00977 46.16602 C36.44719 46.28375 38.67718 45.95272 42 43 C42.66 43.33 43.32 43.66 44 44 C43.67 44.33 43.67 44.33 42 46 C44.64 46 47.28 46 50 46 C50 45.34 50 44.68 50 44 C50.99 44 51.98 44 53 44 C53 43.34 53 42.68 53 42 C52.68031 41.93813 52.68031 41.93813 51.0625 41.625 C50.38187 41.41875 49.70125 41.2125 49 41 C48.67 40.34 48.34 39.68 48 39 C47.34 38.835 46.68 38.67 46 38.5 C45.34 38.335 44.68 38.17 44 38 C43.67 37.34 43.34 36.68 43 36 C42.505 35.835 42.505 35.835 40 35 C39.835 35.33 39.835 35.33 39 37 C39.04125 36.07188 39.0825 35.14375 39.125 34.1875 C39 31 39 31 37 28 C34.61719 27.26953 34.61719 27.26953 31.875 26.8125 C31.41996 26.73322 31.41996 26.73322 29.11719 26.33203 C28.76785 26.27725 28.76785 26.27725 27 26 C27 25.34 27 24.68 27 24 C26.34 24 25.68 24 25 24 C24.835 23.505 24.835 23.505 24 21 C22.34052 19.98812 20.67419 18.98735 19 18 C19 17.34 19 16.68 19 16 C16.34771 14.92475 13.71632 13.90544 11 13 C10.3125 10.9375 10.3125 10.9375 10 9 C9.34 9 8.68 9 8 9 C8 8.34 8 7.68 8 7 C7.01 7 6.02 7 5 7 C5 6.34 5 5.68 5 5 C4.34 5 3.68 5 3 5 C1.375 3.625 1.375 3.625 0 2 C0 1.34 0 0.68 0 0 Z " fill="#EDD46D" transform="translate(207,126)"/>
<path d="M0 0 C1.31053 4.30423 0.45786 7.93705 -0.4375 12.25 C-0.5113 12.62254 -0.5113 12.62254 -0.88477 14.50781 C-1.24887 16.34008 -1.62341 18.17026 -2 20 C-2.66 20 -3.32 20 -4 20 C-3.95875 20.88688 -3.9175 21.77375 -3.875 22.6875 C-3.99897 25.97277 -4.61388 28.05449 -6 31 C-3.03 30.01 -0.06 29.02 3 28 C1 31 1 31 -1.625 31.6875 C-2.40875 31.79063 -3.1925 31.89375 -4 32 C-4 32.66 -4 33.32 -4 34 C-4.99 34.33 -5.98 34.66 -7 35 C-7.165 35.33 -7.165 35.33 -8 37 C-8.66 37 -9.32 37 -10 37 C-10.0825 38.13438 -10.165 39.26875 -10.25 40.4375 C-10.65144 43.75374 -11.48084 46.31253 -12.9375 49.3125 C-15.36676 54.36536 -16.21615 59.48208 -17 65 C-17.66 65 -18.32 65 -19 65 C-19 66.32 -19 67.64 -19 69 C-19.66 69 -20.32 69 -21 69 C-21.03738 69.61746 -21.07477 70.23492 -21.11328 70.87109 C-21.5885 76.99309 -22.84271 82.26677 -25 88 C-25.165 88.495 -25.165 88.495 -26 91 C-26.66 91 -27.32 91 -28 91 C-27.94199 91.74121 -27.88398 92.48242 -27.82422 93.24609 C-27.39492 103.26707 -29.84027 111.57725 -33 121 C-33.66 121 -34.32 121 -35 121 C-35.0825 122.21688 -35.165 123.43375 -35.25 124.6875 C-35.82488 129.91892 -37.33363 134.70169 -38.94922 139.69531 C-40.23755 143.74709 -41.32222 147.83785 -42.38672 151.95312 C-43 154 -43 154 -44 155 C-44.23193 156.51469 -44.41215 158.03755 -44.5625 159.5625 C-44.64629 160.38879 -44.73008 161.21508 -44.81641 162.06641 C-44.87699 162.70449 -44.93758 163.34258 -45 164 C-45.66 164 -46.32 164 -47 164 C-47.10312 165.21687 -47.20625 166.43375 -47.3125 167.6875 C-47.98839 173.90965 -49.50862 179.9313 -51 186 C-51.66 186 -52.32 186 -53 186 C-53.06187 186.30937 -53.06187 186.30937 -53.375 187.875 C-54 190 -54 190 -56 192 C-56.53351 188.58519 -57.04958 185.16796 -57.5625 181.75 C-57.63823 181.26596 -57.63823 181.26596 -58.02148 178.81641 C-58.16006 177.88184 -58.29863 176.94727 -58.44141 175.98438 C-58.57233 175.12554 -58.70325 174.2667 -58.83813 173.38184 C-59 171 -59 171 -58 167 C-57.01 171.29 -56.02 175.58 -55 180 C-54.34 179.01 -53.68 178.02 -53 177 C-52.34 177 -51.68 177 -51 177 C-51.04125 175.86563 -51.0825 174.73125 -51.125 173.5625 C-51.14184 168.85616 -50.17622 164.53684 -49 160 C-48.34 160 -47.68 160 -47 160 C-46.8698 158.99066 -46.73961 157.98133 -46.60547 156.94141 C-46.02953 153.19225 -45.24413 149.6129 -44.3125 145.9375 C-44.1417 145.2634 -43.9709 144.5893 -43.79492 143.89478 C-41.7775 136.00825 -39.61232 128.16112 -37.45312 120.3125 C-36.54996 117.02526 -35.66085 113.73526 -34.79688 110.4375 C-34.6177 109.75438 -34.43852 109.07125 -34.25391 108.36743 C-33.78659 106.57763 -33.32283 104.7869 -32.85938 102.99609 C-32 100 -32 100 -30.94922 97.42188 C-29.94721 94.8653 -29.48279 92.52237 -29.0625 89.8125 C-28.14053 84.38396 -26.70204 79.23093 -25 74 C-24.34 74 -23.68 74 -23 74 C-22.24235 69.02115 -21.70579 64.0577 -21.28125 59.03906 C-21 57 -21 57 -20 56 C-19.60431 53.98689 -19.25748 51.96403 -18.9375 49.9375 C-18.7609 48.83277 -18.5843 47.72805 -18.40234 46.58984 C-18.26957 45.7352 -18.1368 44.88055 -18 44 C-26.19643 45.51786 -26.19643 45.51786 -29.8125 47.6875 C-32 49 -32 49 -34.3125 48.6875 C-34.86937 48.46062 -35.42625 48.23375 -36 48 C-35.27426 47.56688 -34.54852 47.13375 -33.80078 46.6875 C-32.06052 45.63897 -30.32727 44.57858 -28.60547 43.5 C-24.6393 41.03957 -20.85072 38.80574 -16.4375 37.25 C-13 36 -13 36 -12 34 C-13.65 33.67 -15.3 33.34 -17 33 C-16.34 32.67 -15.68 32.34 -15 32 C-14.875 28.9375 -14.875 28.9375 -15 26 C-14.69063 26.40219 -14.69063 26.40219 -13.125 28.4375 C-11 31 -11 31 -9 32 C-8.86207 31.29875 -8.72414 30.5975 -8.58203 29.875 C-3.17717 3.17717 -3.17717 3.17717 0 0 Z " fill="#DDB076" transform="translate(319,200)"/>
<path d="M0 0 C0.33 0.66 0.66 1.32 1 2 C1.29906 2.14437 1.29906 2.14437 2.8125 2.875 C5 4 5 4 6.8125 5.875 C8.79285 7.79876 10.35672 8.83446 12.75 10.125 C13.8225 10.74375 14.895 11.3625 16 12 C16 12.66 16 13.32 16 14 C17.33084 14.67164 18.66488 15.33692 20 16 C21.78919 17.45304 23.53729 18.95756 25.25 20.5 C25.69602 20.89703 25.69602 20.89703 27.95312 22.90625 C30 25 30 25 30 27 C30.68062 27.04125 31.36125 27.0825 32.0625 27.125 C37.32577 28.69278 40.91365 32.388 43.9375 36.875 C44.28813 37.57625 44.63875 38.2775 45 39 C40.51536 37.01261 37.08375 33.8907 33.33984 30.77734 C31 29 31 29 28 28 C26.31364 26.35326 24.6497 24.68346 23 23 C20.14269 20.65013 17.24024 18.36736 14.32812 16.08594 C12 14 12 14 11 11 C9.15234 9.83203 9.15234 9.83203 6.9375 8.8125 C6.57076 8.64041 6.57076 8.64041 4.71484 7.76953 C4.14895 7.51559 3.58305 7.26164 3 7 C2.5189 9.52048 2.04007 12.04135 1.5625 14.5625 C1.42779 15.26697 1.29309 15.97145 1.1543 16.69727 C1.08823 17.04692 1.08823 17.04692 0.75391 18.81641 C0.63346 19.45006 0.51301 20.08372 0.38892 20.73657 C-0.67344 26.91933 -1.14856 32.81662 -1.13281 39.07422 C-1.13377 39.92047 -1.13473 40.76673 -1.13571 41.63863 C-1.13639 43.41607 -1.13457 45.19351 -1.13037 46.97095 C-1.125 49.68967 -1.13034 52.40823 -1.13672 55.12695 C-1.13606 56.85938 -1.13478 58.5918 -1.13281 60.32422 C-1.13484 61.13469 -1.13686 61.94516 -1.13895 62.7802 C-1.12403 66.36737 -0.91141 69.54373 0 73 C0.12205 75.67541 0.04467 78.31961 0 81 C0.66 81 1.32 81 2 81 C2.33 81.99 2.66 82.98 3 84 C7.04213 83.88785 11.0835 83.7578 15.125 83.625 C16.24777 83.59406 17.37055 83.56313 18.52734 83.53125 C24.20343 83.33664 29.70576 82.94872 35.3125 82.03125 C46.0862 80.37781 56.99756 80.26801 67.875 79.875 C70.12372 79.78842 72.37242 79.70119 74.62109 79.61328 C80.08046 79.40127 85.54008 79.19738 91 79 C91 78.34 91 77.68 91 77 C90.4225 76.73188 89.845 76.46375 89.25 76.1875 C87 75 87 75 85.125 72.5 C83 70 83 70 80.19141 69.125 C76.52453 67.83239 74.61022 66.17193 71.8125 63.5 C69.25074 61.07597 66.93958 58.95972 64 57 C64 56.34 64 55.68 64 55 C63.34 55 62.68 55 62 55 C61.36062 54.19563 60.72125 53.39125 60.0625 52.5625 C58 50 58 50 55 49 C53.21094 47.22266 53.21094 47.22266 51.375 45.0625 C50.76398 44.35223 50.15297 43.64195 49.52344 42.91016 C48 41 48 41 47 39 C50.73504 40.57586 53.25279 42.92219 56.1875 45.6875 C60.21235 49.43287 64.35302 52.8925 68.73828 56.20703 C72.20263 58.95338 75.41218 61.96694 78.64062 64.98438 C80.98768 66.98947 83.33046 68.46148 86 70 C87.64845 71.09035 89.27456 72.21533 90.875 73.375 C91.6768 73.93961 92.47859 74.50422 93.30469 75.08594 C93.86414 75.71758 94.42359 76.34922 95 77 C94.60596 79.61963 94.60596 79.61963 94 82 C79.02102 82.94387 64.04162 83.88096 49.06171 84.81 C46.23008 84.98572 43.39848 85.16202 40.56689 85.33838 C36.6479 85.582 32.72869 85.82196 28.80927 86.05865 C27.41389 86.14339 26.01858 86.22925 24.62335 86.31635 C17.38685 86.76712 10.2375 87.08573 2.98755 86.83325 C2.33166 86.88828 1.67577 86.94331 1 87 C0.835 87.33 0.835 87.33 0 89 C-0.20496 87.8682 -0.40992 86.73641 -0.62109 85.57031 C-0.89307 84.08851 -1.16521 82.60674 -1.4375 81.125 C-1.57221 80.37863 -1.70691 79.63227 -1.8457 78.86328 C-2.88672 73.22656 -2.88672 73.22656 -4 71 C-5.42584 62.56179 -5.19973 53.90563 -5.1875 45.375 C-5.18723 44.66379 -5.18696 43.95258 -5.18668 43.21982 C-5.1604 28.29924 -3.72792 14.51402 0 0 Z " fill="#D3645A" transform="translate(148,188)"/>
<path d="M0 0 C2.03125 3.73438 2.03125 3.73438 1.75 6.125 C1 8 1 8 -1 10 C-1.40047 12.32275 -1.73971 14.65739 -2 17 C0.64 17 3.28 17 6 17 C6 16.34 6 15.68 6 15 C21.2679 12.72418 36.58653 12.38695 52 12 C47.25911 15.1606 42.96272 15.18855 37.375 15.4375 C30.31878 15.79292 23.33773 16.44486 16.32959 17.3396 C11.1858 17.96844 6.18314 18.07652 1 18 C4.10907 22.6636 8.70182 22.88057 14 24 C17.00705 24.45235 19.96649 24.75135 23 25 C23 25.66 23 26.32 23 27 C26.63 27.66 30.26 28.32 34 29 C33.01 29.33 32.02 29.66 31 30 C30.375 31.875 30.375 31.875 30 34 C29.67 34.99 29.34 35.98 29 37 C29.99 37.33 30.98 37.66 32 38 C31.49396 40.16874 31.00016 41.99968 30 44 C27.25 44.5 27.25 44.5 24 44 C21.6875 41.4375 21.6875 41.4375 20.5 39.79297 C18.03025 36.84085 14.89562 34.7629 11.79297 32.51562 C11.20129 32.01547 10.60961 31.51531 10 31 C10 30.34 10 29.68 10 29 C8.3125 28.0625 8.3125 28.0625 6 27 C4.29884 26.05988 2.63496 25.05104 1 24 C0.72156 23.83113 0.72156 23.83113 -0.6875 22.97656 C-2.375 21.8125 -2.375 21.8125 -5 19 C-5.232 12.27208 -2.44589 6.18867 0 0 Z " fill="#DDC5B4" transform="translate(154,171)"/>
<path d="M0 0 C0 0.33 0 0.66 0 1 C-3.82321 2.42259 -6.91281 3.24042 -11 3 C-12.60355 6.50777 -13.22037 9.14355 -13 13 C-12.01 13 -11.02 13 -10 13 C-10 13.66 -10 14.32 -10 15 C-9.34 15 -8.68 15 -8 15 C-8 15.66 -8 16.32 -8 17 C-7.01 17.33 -6.02 17.66 -5 18 C-4 19 -3 20 -2 21 C-1.63906 21.17531 -1.63906 21.17531 0.1875 22.0625 C0.78562 22.37187 1.38375 22.68125 2 23 C2 23.66 2 24.32 2 25 C2.99 24.67 3.98 24.34 5 24 C5.165 24.495 5.165 24.495 6 27 C7.32849 28.00643 8.6615 29.00692 10 30 C10 30.66 10 31.32 10 32 C10.92813 32.26812 11.85625 32.53625 12.8125 32.8125 C15.85689 33.94668 16.89712 34.69684 19 37 C19.99 37.33 20.98 37.66 22 38 C22 38.66 22 39.32 22 40 C23.32123 40.69034 24.65902 41.34885 26 42 C28.38121 43.57888 30.68698 45.2608 33 46.9375 C33.61617 47.38029 34.23234 47.82309 34.86719 48.2793 C36.05531 49.13469 37.24037 49.99438 38.42188 50.85889 C39.73959 51.81171 41.08549 52.7254 42.4375 53.62891 C42.95312 54.08137 43.46875 54.53383 44 55 C44 55.99 44 56.98 44 58 C39.72903 56.44692 35.87997 54.33989 32 52 C31.41219 51.65582 30.82438 51.31164 30.21875 50.95703 C28.5625 49.9375 28.5625 49.9375 26 48 C26 47.01 26 46.02 26 45 C25.27812 44.77312 24.55625 44.54625 23.8125 44.3125 C20.46466 42.75018 18.59893 40.59893 16 38 C14.33927 37.31868 12.67223 36.65258 11 36 C8.97945 34.3583 6.97957 32.69088 5 31 C4.0925 30.46375 3.185 29.9275 2.25 29.375 C0 28 0 28 -2 25 C-3.65681 24.3092 -5.32509 23.64569 -7 23 C-8.74355 21.84306 -10.45042 20.62969 -12.125 19.375 C-12.60131 19.02115 -12.60131 19.02115 -15.01172 17.23047 C-15.99785 16.49441 -16.98398 15.75836 -18 15 C-19.97727 13.55989 -21.95637 12.12229 -23.9375 10.6875 C-25.62687 9.4609 -27.31456 8.23199 -29 7 C-29.76441 6.4702 -30.52883 5.94039 -31.31641 5.39453 C-31.87199 4.93434 -32.42758 4.47414 -33 4 C-33 3.34 -33 2.68 -33 2 C-22.05837 -0.53719 -11.16266 -0.20393 0 0 Z " fill="#C6A7C4" transform="translate(379,295)"/>
<path d="M0 0 C2 2 2 2 2.61328 5.11719 C1.70646 10.85846 -1.62931 13.31948 -5.8125 17.125 C-14.74383 25.47131 -14.74383 25.47131 -17 30 C-18.51252 32.63047 -19.95393 34.9467 -21.94141 37.24609 C-24.86275 41.15415 -26.08843 45.35976 -27.65625 49.94141 C-29.05085 53.11574 -30.50415 54.65889 -33 57 C-34.04688 58.92188 -34.04688 58.92188 -34.75 60.75 C-35.1625 61.8225 -35.575 62.895 -36 64 C-38.1311 60.53697 -38.34549 58.03233 -38 54 C-36.90545 51.33328 -35.78398 48.90459 -34.4375 46.375 C-34.25538 46.02389 -34.25538 46.02389 -33.33374 44.24707 C-32.23909 42.15535 -31.12412 40.07601 -30 38 C-29.41477 36.91461 -28.82953 35.82922 -28.22656 34.71094 C-21.36917 22.50929 -11.90778 7.93852 0 0 Z " fill="#F8F2B4" transform="translate(193,115)"/>
<path d="M0 0 C-4.79002 17.60236 -12.68541 34.66208 -24 49 C-24.57492 49.7657 -25.14984 50.53141 -25.74219 51.32031 C-30.16976 57.17613 -35.02993 62.60167 -40 68 C-40 63.46419 -37.70689 60.54185 -35 57 C-33.22841 55.36527 -31.39029 53.87433 -29.50391 52.375 C-27.48132 50.52578 -26.83471 48.57367 -26 46 C-25.0198 44.98059 -24.02197 43.97754 -23 43 C-22.67 42.01 -22.34 41.02 -22 40 C-21.34 40 -20.68 40 -20 40 C-19.96906 39.57719 -19.96906 39.57719 -19.8125 37.4375 C-18.92211 33.67048 -17.58779 31.87244 -15.27734 28.87891 C-13.18644 25.80329 -12.17185 22.51554 -11 19 C-10.34 19 -9.68 19 -9 19 C-8.85563 18.07187 -8.71125 17.14375 -8.5625 16.1875 C-8 13 -8 13 -7 10 C-6.34 10 -5.68 10 -5 10 C-5.375 7.5625 -5.375 7.5625 -6 5 C-6.33 4.835 -6.33 4.835 -8 4 C-8 3.34 -8 2.68 -8 2 C-8.66 2 -9.32 2 -10 2 C-10.33 2.99 -10.66 3.98 -11 5 C-11.99 4.67 -12.98 4.34 -14 4 C-14 4.66 -14 5.32 -14 6 C-14.65098 5.9884 -14.65098 5.9884 -17.94531 5.92969 C-19.67187 5.91092 -21.39843 5.89272 -23.125 5.875 C-23.55297 5.86662 -23.55297 5.86662 -25.71875 5.82422 C-30.59274 5.78673 -34.41211 6.16212 -39 8 C-41.72617 8.78289 -44.25153 9.15673 -47.08203 9.28125 C-47.84967 9.31863 -48.6173 9.35602 -49.4082 9.39453 C-50.20162 9.42934 -50.99504 9.46414 -51.8125 9.5 C-57.27925 9.74337 -62.57827 10.21932 -68 11 C-70.76853 11.19924 -73.53967 11.31472 -76.3125 11.4375 C-81.84647 11.71761 -87.05256 12.27282 -92.46094 13.52734 C-96.86865 14.34786 -101.32994 14.50859 -105.80078 14.75391 C-109 15 -109 15 -111.61719 15.52344 C-114.08267 16.01653 -116.30255 16.09996 -118.8125 16.0625 C-119.6027 16.05348 -120.39289 16.04445 -121.20703 16.03516 C-121.79871 16.02355 -122.39039 16.01195 -123 16 C-123 15.67 -123 15.34 -123 15 C-116.71991 13.53465 -110.53325 12.70844 -104.125 12.125 C-96.13781 11.39186 -88.24157 10.32805 -80.3125 9.125 C-66.26913 7.01313 -52.17705 5.6632 -38.03638 4.39502 C-23.09085 3.03538 -23.09085 3.03538 -15.88428 1.41943 C-13.47686 0.88355 -11.07985 0.5952 -8.625 0.375 C-7.83352 0.30023 -7.04203 0.22547 -6.22656 0.14844 C-4.15505 0.01034 -2.07611 0 0 0 Z " fill="#6969AD" transform="translate(467,281)"/>
<path d="M0 0 C15.45161 1.22581 15.45161 1.22581 21 4 C20 7 20 7 18.39062 7.92188 C18.03742 8.05852 18.03742 8.05852 16.25 8.75 C7.44821 12.40807 -0.79899 17.29002 -9.09766 21.95703 C-10.43442 22.68992 -11.80036 23.37083 -13.18359 24.01172 C-15 25 -15 25 -16 27 C-18.31471 27.7287 -20.65059 28.3924 -23 29 C-26.72755 30.24252 -28.274 32.20752 -31 35 C-34.51724 38 -34.51724 38 -38 38 C-38.33 39.32 -38.66 40.64 -39 42 C-39.66 42 -40.32 42 -41 42 C-42.875 44.23047 -42.875 44.23047 -45 47.1875 C-45.35063 47.66896 -45.35063 47.66896 -47.125 50.10547 C-48.82154 52.7245 -49.87319 55.11254 -51 58 C-52.4375 60.20312 -52.4375 60.20312 -54 62.25 C-54.51562 62.93578 -55.03125 63.62156 -55.5625 64.32812 C-57 66 -57 66 -59 67 C-58.48455 63.1857 -57.79434 61.57939 -55 59 C-52.46816 55.20224 -50.78448 51.18964 -49 47 C-48.34 46.01 -47.68 45.02 -47 44 C-46.34 44 -45.68 44 -45 44 C-45 43.34 -45 42.68 -45 42 C-56.55 42 -68.1 42 -80 42 C-80 41.67 -80 41.34 -80 41 C-68.12 40.34 -56.24 39.68 -44 39 C-43.67 37.68 -43.34 36.36 -43 35 C-43.5891 34.73059 -44.1782 34.46117 -44.78516 34.18359 C-46.99078 33.00493 -48.59172 31.73777 -50.4375 30.0625 C-52.35551 28.3225 -54.11128 26.93552 -56.35938 25.63281 C-59.53093 23.6717 -62.08049 21.34701 -64.8125 18.8125 C-65.31459 18.34908 -65.81668 17.88566 -66.33398 17.4082 C-67.55957 16.276 -68.78029 15.13854 -70 14 C-66.46077 14 -65.68108 14.70481 -62.9375 16.8125 C-62.24527 17.33457 -61.55305 17.85664 -60.83984 18.39453 C-59 20 -59 20 -57 23 C-54.41356 24.7243 -51.82679 26.07939 -49 27.375 C-46 29 -46 29 -43.4375 31.75 C-42.63313 32.4925 -41.82875 33.235 -41 34 C-38.5 33.875 -38.5 33.875 -36 33 C-35.07188 32.81437 -34.14375 32.62875 -33.1875 32.4375 C-32.46562 32.29313 -31.74375 32.14875 -31 32 C-31 31.01 -31 30.02 -31 29 C-22.57143 25.57143 -22.57143 25.57143 -18 26 C-18 25.01 -18 24.02 -18 23 C-17.15438 22.77312 -16.30875 22.54625 -15.4375 22.3125 C-10.18338 20.30638 -6.13587 17.70381 -3 13 C-1.68 13 -0.36 13 1 13 C1.33 12.01 1.66 11.02 2 10 C3.84766 9.48828 3.84766 9.48828 6.0625 9.3125 C7.36187 9.20937 8.66125 9.10625 10 9 C10.33 7.68 10.66 6.36 11 5 C10.01 5 9.02 5 8 5 C8 4.34 8 3.68 8 3 C7.01 3 6.02 3 5 3 C5 2.34 5 1.68 5 1 C3.35 1 1.7 1 0 1 C0 0.67 0 0.34 0 0 Z " fill="#AE9AAE" transform="translate(286,230)"/>
<path d="M0 0 C-0.33 0.99 -0.66 1.98 -1 3 C-1.66 3 -2.32 3 -3 3 C-3.70288 4.3146 -4.36245 5.6525 -5 7 C-5.9862 8.37959 -7.01072 9.73223 -8.0625 11.0625 C-8.67352 11.83594 -9.28453 12.60938 -9.91406 13.40625 C-13.57855 17.96285 -17.28077 22.48801 -21 27 C-21.33 26.01 -21.66 25.02 -22 24 C-21.34 23.34 -20.68 22.68 -20 22 C-19.60236 20.01179 -19.26225 18.01056 -19 16 C-18.34 16 -17.68 16 -17 16 C-13.92188 12.08239 -12.31838 8.98791 -12 4 C-12.4375 1.125 -12.4375 1.125 -13 -1 C-13.83918 -0.82855 -14.67836 -0.65711 -15.54297 -0.48047 C-22.99234 0.55487 -31.33597 -0.16925 -38.625 -2.0625 C-48.01269 -4.3488 -57.61599 -2.95118 -67.0625 -1.6875 C-67.97935 -1.56995 -68.89619 -1.45241 -69.84082 -1.3313 C-70.70933 -1.20521 -71.57783 -1.07913 -72.47266 -0.94922 C-73.24875 -0.83925 -74.02485 -0.72927 -74.82446 -0.61597 C-77.38424 0.10879 -78.92096 1.37396 -81 3 C-81.66 3 -82.32 3 -83 3 C-83 10.92 -83 18.84 -83 27 C-83.33 27 -83.66 27 -84 27 C-84.85731 20.83312 -85.28684 14.71811 -85.5625 8.5 C-85.60568 7.58219 -85.64887 6.66438 -85.69336 5.71875 C-85.79833 3.47928 -85.90049 1.23972 -86 -1 C-85.01 -0.67 -84.02 -0.34 -83 0 C-81.11719 -0.70703 -81.11719 -0.70703 -78.875 -1.8125 C-54.91351 -11.73352 -24.18525 -6.19991 0 0 Z " fill="#354484" transform="translate(354,74)"/>
<path d="M0 0 C0.33 0 0.66 0 1 0 C1 11.88 1 23.76 1 36 C-10.55 36 -22.1 36 -34 36 C-31.62783 34.81391 -29.24155 33.6544 -26.82812 32.55469 C-14.23047 26.64094 -7.46123 20.1321 -2 7 C-1.18184 4.65959 -0.55009 2.42038 0 0 Z " fill="#000000" transform="translate(619,429)"/>
<path d="M0 0 C0.33 0 0.66 0 1 0 C1.14695 0.60586 1.29391 1.21172 1.44531 1.83594 C4.04571 11.55005 8.73496 20.91899 17 27 C21.57255 29.56063 26.24089 31.80304 31 34 C32.32 34.66 33.64 35.32 35 36 C23.45 36 11.9 36 0 36 C0 24.12 0 12.24 0 0 Z " fill="#000000" transform="translate(0,429)"/>
<path d="M0 0 C11.88 0 23.76 0 36 0 C36 11.88 36 23.76 36 36 C35.67 36 35.34 36 35 36 C34.85305 35.39414 34.70609 34.78828 34.55469 34.16406 C31.5505 22.94153 25.69697 12.818 15.5 6.75 C10.42785 4.21392 5.64632 1.8555 0 1 C0 0.67 0 0.34 0 0 Z " fill="#000000" transform="translate(584,0)"/>
<path d="M0 0 C11.88 0 23.76 0 36 0 C36 0.33 36 0.66 36 1 C35.31035 1.14695 34.6207 1.29391 33.91016 1.44531 C22.79871 4.09743 13.60107 9.91817 7.30469 19.60938 C4.23632 24.97531 2.14559 29.92835 1 36 C0.67 36 0.34 36 0 36 C0 24.12 0 12.24 0 0 Z " fill="#000000" transform="translate(0,0)"/>
<path d="M0 0 C-0.33 0.66 -0.66 1.32 -1 2 C-1.66 2 -2.32 2 -3 2 C-3.6837 3.32468 -4.34964 4.65864 -5 6 C-5.66 6.33 -6.32 6.66 -7 7 C-7.33 7.99 -7.66 8.98 -8 10 C-9.30556 11.36054 -10.64216 12.69163 -12 14 C-15.95775 18.65889 -19.40744 23.55564 -22.625 28.75 C-25.08501 32.71457 -27.7006 35.7006 -31 39 C-32.35641 41.24823 -33.58589 43.54408 -34.81641 45.86328 C-36.8943 49.61447 -39.69824 52.65298 -42.5 55.875 C-44.70634 58.50641 -46.37563 61.2514 -48.02734 64.25391 C-49.53991 66.96923 -51.16304 69.48949 -53 72 C-53.66 72 -54.32 72 -55 72 C-55.33 73.65 -55.66 75.3 -56 77 C-55.56881 76.96391 -55.56881 76.96391 -53.38672 76.78125 C-42.91007 75.98471 -32.50353 75.89824 -22 76 C-22 76.33 -22 76.66 -22 77 C-30.90453 78.00942 -39.79699 78.13873 -48.75 78.1875 C-49.33967 78.19395 -49.33967 78.19395 -52.32373 78.22656 C-53.42862 78.22785 -54.53351 78.22914 -55.67188 78.23047 C-56.67315 78.23458 -57.67443 78.23869 -58.70605 78.24292 C-59.46306 78.16276 -60.22006 78.08259 -61 78 C-61.33 77.34 -61.66 76.68 -62 76 C-61.175 75.835 -61.175 75.835 -57 75 C-57.10312 74.31937 -57.20625 73.63875 -57.3125 72.9375 C-56.81431 68.25448 -53.89747 64.79233 -50.51953 61.60156 C-49 60 -49 60 -47.59375 57.64062 C-45.8239 54.70823 -43.75723 52.32324 -41.5 49.75 C-37.98278 45.53956 -35.99874 42.1278 -34.60547 36.86328 C-33.73764 34.19261 -32.08118 32.82103 -30 31 C-28.98545 29.34215 -27.98757 27.67406 -27 26 C-25.80589 24.26098 -24.59744 22.53172 -23.375 20.8125 C-20.10676 16.21352 -20.10676 16.21352 -19 14 C-18.34 14 -17.68 14 -17 14 C-16.79375 13.31938 -16.5875 12.63875 -16.375 11.9375 C-13.95177 6.7606 -10.65091 3.03586 -5.8125 0 C-3 -1 -3 -1 0 0 Z " fill="#CD787F" transform="translate(432,122)"/>
<path d="M0 0 C8.64229 -0.33744 17.23703 0.01461 25.125 3.875 C29.54273 6.01547 34.0551 7.13703 38.8125 8.25 C39.18351 8.33758 39.18351 8.33758 41.06104 8.78076 C44.48579 9.55455 47.47061 10 51 10 C51 9.34 51 8.68 51 8 C52.32 8.33 53.64 8.66 55 9 C54.835 8.34 54.835 8.34 54 5 C54.825 5.165 54.825 5.165 59 6 C59 6.99 59 7.98 59 9 C59.63937 9.12375 60.27875 9.2475 60.9375 9.375 C61.61813 9.58125 62.29875 9.7875 63 10 C63.165 10.33 63.165 10.33 64 12 C66.0625 12.625 66.0625 12.625 68 13 C68 14.32 68 15.64 68 17 C69.32 17 70.64 17 72 17 C72.165 17.33 72.165 17.33 73 19 C74.09312 19.28875 75.18625 19.5775 76.3125 19.875 C80.08054 21.02457 81.52678 22.03213 84 25 C77.65712 24.73516 72.69321 23.71556 66.98438 20.92188 C64.69559 19.85858 62.49997 19.32258 60 19 C60 18.34 60 17.68 60 17 C59.476 16.96971 59.476 16.96971 56.82422 16.81641 C55.4453 16.73198 54.06639 16.64734 52.6875 16.5625 C51.99721 16.52318 51.30691 16.48387 50.5957 16.44336 C47.52838 16.25073 44.93032 15.97677 42 15 C42 14.01 42 13.02 42 12 C39.69 12 37.38 12 35 12 C35 11.34 35 10.68 35 10 C34.00355 9.88527 33.00711 9.77055 31.98047 9.65234 C27.9411 9.075 24.1682 7.86555 20.3125 6.5625 C13.61102 4.3723 7.00871 2.88936 0 2 C0 1.34 0 0.68 0 0 Z " fill="#AE383A" transform="translate(384,255)"/>
<path d="M0 0 C2.20838 3.31257 3.38287 6.63416 4.625 10.375 C4.85445 11.035 5.08391 11.695 5.32031 12.375 C6.55639 16.06851 7.10905 19.12816 7 23 C-0.36438 23.50604 -7.72887 24.01041 -15.0935 24.51279 C-18.51543 24.74627 -21.93733 24.98027 -25.35913 25.21558 C-51.5177 27.01364 -51.5177 27.01364 -62.875 27.625 C-63.5905 27.66427 -64.30599 27.70354 -65.04317 27.744 C-72.02953 28.10055 -79.00698 28.09408 -86 28 C-85.34 26.68 -84.68 25.36 -84 24 C-83.67 24.66 -83.34 25.32 -83 26 C-82.01 25.67 -81.02 25.34 -80 25 C-77.05408 24.71945 -74.11939 24.48251 -71.16797 24.28125 C-70.2986 24.21845 -69.42923 24.15565 -68.53352 24.09094 C-65.75176 23.89029 -62.96968 23.69469 -60.1875 23.5 C-57.41606 23.30495 -54.64472 23.10872 -51.87361 22.90906 C-50.14976 22.78494 -48.42571 22.66348 -46.70146 22.54504 C-42.41383 22.23726 -38.23198 21.7948 -34 21 C-34 20.34 -34 19.68 -34 19 C-33.36498 19.03553 -32.72995 19.07106 -32.07568 19.10767 C-29.17578 19.26607 -26.27544 19.41437 -23.375 19.5625 C-22.87549 19.59054 -22.87549 19.59054 -20.34766 19.73242 C-15.35864 19.98022 -10.93036 19.92541 -6 19 C-5.505 19.165 -5.505 19.165 -3 20 C-0.8125 19.0625 -0.8125 19.0625 1 18 C1 18.66 1 19.32 1 20 C1.66 19.34 2.32 18.68 3 18 C2.75443 17.83178 2.75443 17.83178 1.51172 16.98047 C-0.7728 13.98757 -0.31858 10.91205 -0.1875 7.3125 C-0.18073 6.96155 -0.18073 6.96155 -0.14648 5.18555 C-0.1112 3.4567 -0.0574 1.72825 0 0 Z " fill="#A7332E" transform="translate(462,171)"/>
<path d="M0 0 C0.66 0 1.32 0 2 0 C2.06059 1.27875 2.12117 2.5575 2.18359 3.875 C2.26807 5.58334 2.35272 7.29167 2.4375 9 C2.47682 9.83918 2.51613 10.67836 2.55664 11.54297 C2.59854 12.37441 2.64043 13.20586 2.68359 14.0625 C2.70192 14.43955 2.70192 14.43955 2.79468 16.34766 C2.95936 18.47504 3.211 20.59561 3.49072 22.71094 C4.08321 27.32141 4.28773 31.92007 4.46484 36.5625 C4.54231 38.42025 4.61995 40.278 4.69775 42.13574 C4.73685 43.09525 4.77594 44.05475 4.81622 45.04333 C5.50098 61.73726 6.35094 78.36902 8 95 C8.30937 94.67 8.30937 94.67 9.875 93 C12 91 12 91 14 91 C14.2475 90.2575 14.495 89.515 14.75 88.75 C16.12604 85.72271 17.62751 84.30471 20 82 C21.29538 80.18887 22.53635 78.35254 23.75391 76.48828 C25 75 25 75 28 74 C26.69169 79.19453 24.25218 82.33434 20.5625 86.0625 C14.06924 92.72641 14.06924 92.72641 12 97 C12.25 100.5 12.25 100.5 13 104 C13.10312 104.92812 13.20625 105.85625 13.3125 106.8125 C13.53938 107.53438 13.76625 108.25625 14 109 C14.33 109.15469 14.33 109.15469 16 109.9375 C16.66 110.28812 17.32 110.63875 18 111 C18.75 114.125 18.75 114.125 19 117 C15.63429 113.79457 13.37097 110.8871 11.5625 106.5625 C9.68087 102.27239 7.28693 99.28693 4 96 C3.92927 93.63809 3.96604 91.35648 4.0625 89 C4.27141 79.92151 3.23012 71.08101 2.06665 62.08789 C1.47527 57.45254 0.91474 52.96318 1.03125 48.28516 C1.02094 47.20105 1.01063 46.11695 1 45 C0.34 44.67 -0.32 44.34 -1 44 C-1 43.34 -1 42.68 -1 42 C-0.34 42 0.32 42 1 42 C0.85127 41.23921 0.70255 40.47842 0.54932 39.69458 C-1.0079 30.89223 -1.07553 22.59449 -0.625 13.6875 C-0.56654 12.34966 -0.50925 11.01177 -0.45312 9.67383 C-0.3134 6.44853 -0.16219 3.22423 0 0 Z " fill="#B84F59" transform="translate(267,74)"/>
<path d="M0 0 C0.02686 2.14577 0.04633 4.29163 0.0625 6.4375 C0.0741 7.63246 0.0857 8.82742 0.09766 10.05859 C0 13 0 13 -1 14 C-1.36761 16.32818 -1.70242 18.66184 -2 21 C-2.66 21 -3.32 21 -4 21 C-4.13664 22.0132 -4.27328 23.02641 -4.41406 24.07031 C-5.78805 33.28522 -7.82782 42.23875 -11 51 C-11.66 51 -12.32 51 -13 51 C-13.03738 51.61488 -13.07477 52.22977 -13.11328 52.86328 C-13.17902 53.67152 -13.24477 54.47977 -13.3125 55.3125 C-13.3415 55.71275 -13.3415 55.71275 -13.48828 57.73828 C-14.08207 60.36272 -14.9578 61.30821 -17 63 C-16.21086 56.21339 -14.58725 49.63851 -13 43 C-12.34 43 -11.68 43 -11 43 C-10.40552 40.12762 -9.87457 37.25622 -9.38672 34.36328 C-8.17143 27.23463 -6.79657 20.71686 -3.85156 14.0625 C-2.76217 11.42397 -2.29796 8.83062 -2 6 C-2.66 6 -3.32 6 -4 6 C-4.2475 6.78375 -4.495 7.5675 -4.75 8.375 C-6.20781 11.4364 -7.07993 11.58707 -10 13 C-10.13535 13.59426 -10.2707 14.18852 -10.41016 14.80078 C-11.15692 17.58509 -12.45349 18.99269 -14.375 21.125 C-14.98086 21.8082 -15.58672 22.49141 -16.21094 23.19531 C-18 25 -18 25 -21 27 C-21.71851 28.73096 -22.43436 30.46322 -23.12109 32.20703 C-24.49173 35.00312 -26.78682 36.8408 -29 39 C-29.74344 40.22944 -30.4517 41.48079 -31.125 42.75 C-33 46 -33 46 -36 47 C-37.5642 48.71439 -39.05612 50.49562 -40.5 52.3125 C-41.27344 53.27801 -42.04688 54.24352 -42.84375 55.23828 C-44.15278 56.91488 -45.43276 58.61546 -46.65625 60.35547 C-47.09969 60.89816 -47.54312 61.44086 -48 62 C-48.66 62 -49.32 62 -50 62 C-50.20625 62.72188 -50.4125 63.44375 -50.625 64.1875 C-52.45248 67.92553 -54.70439 69.49247 -58 72 C-58.33 71.34 -58.66 70.68 -59 70 C-58.67 69.835 -58.67 69.835 -57 69 C-56.07465 67.34075 -55.15159 65.67912 -54.29297 63.98438 C-52.53641 61.2885 -50.28802 59.25765 -48 57 C-46.45634 55.16479 -44.93526 53.31035 -43.4375 51.4375 C-41.35235 48.83196 -39.31897 46.31533 -36.94531 43.96875 C-34.81402 41.81178 -33.16961 39.55031 -31.4375 37.0625 C-27.45486 31.50016 -23.12461 26.33427 -18.67969 21.14453 C-13.92654 15.5913 -9.30922 9.93407 -5.125 3.9375 C-2.2766 0 -2.2766 0 0 0 Z " fill="#C7636E" transform="translate(354,76)"/>
<path d="M0 0 C3.37463 0.54724 5.08235 1.0549 8 3 C8 3.66 8 4.32 8 5 C8.71414 5.25008 9.42828 5.50016 10.16406 5.75781 C13.28318 7.12404 15.66544 8.8176 18.375 10.875 C21.56604 13.25857 24.67865 15.48837 28.1875 17.375 C29.11562 17.91125 30.04375 18.4475 31 19 C31 19.66 31 20.32 31 21 C32.6875 21.9375 32.6875 21.9375 35 23 C38.20846 24.78248 41.05485 26.8058 43.9375 29.0625 C47.15612 31.5238 50.02321 33.0058 54 34 C54 34.66 54 35.32 54 36 C54.78375 36.30937 55.5675 36.61875 56.375 36.9375 C60.17613 38.47605 62.80396 40.42758 66 43 C66.495 43.33 66.495 43.33 69 45 C69 45.99 69 46.98 69 48 C70.155 47.835 70.155 47.835 76 47 C75.67 45.185 75.67 45.185 74 36 C73.67 36 73.34 36 73 36 C72.94631 33.18725 72.90648 30.37551 72.875 27.5625 C72.85824 26.76006 72.84148 25.95762 72.82422 25.13086 C72.80697 23.08647 72.89551 21.04179 73 19 C73.33 18.835 73.33 18.835 75 18 C76.4352 30.39143 77.29087 42.52475 77 55 C72.53304 53.48862 69.00441 51.02709 65.25 48.25 C60.41804 44.72243 55.55176 41.33055 50.47656 38.15625 C50.23293 37.96547 50.23293 37.96547 49 37 C49 36.34 49 35.68 49 35 C48.71898 34.94779 48.71898 34.94779 47.29688 34.68359 C44.5762 33.87387 42.60742 32.63797 40.25 31.0625 C39.45078 30.53785 38.65156 30.0132 37.82812 29.47266 C37.22484 28.98668 36.62156 28.5007 36 28 C36 27.34 36 26.68 36 26 C34.68 25.67 33.36 25.34 32 25 C32 24.34 32 23.68 32 23 C31.21625 22.69063 30.4325 22.38125 29.625 22.0625 C27 21 27 21 25 20 C25 19.34 25 18.68 25 18 C24.70831 17.94187 24.70831 17.94187 23.23218 17.64771 C20.85426 16.95771 19.31037 16.04737 17.28516 14.63672 C16.59873 14.1617 15.9123 13.68668 15.20508 13.19727 C14.49803 12.69904 13.79098 12.20082 13.0625 11.6875 C12.35932 11.20088 11.65613 10.71426 10.93164 10.21289 C3.15904 4.80048 3.15904 4.80048 0 2 C0 1.34 0 0.68 0 0 Z " fill="#E0632B" transform="translate(195,115)"/>
<path d="M0 0 C3.10907 1.03636 4.1042 2.12904 6.30078 4.41797 C10.18231 8.03181 14.67624 10.94555 19 14 C19.89977 14.6484 20.79953 15.2968 21.72656 15.96484 C25.23527 18.47182 28.55946 20.78374 32.4375 22.6875 C35.26972 24.13815 36.12578 25.50104 38 28 C39.9918 29.01623 41.99153 30.01713 44 31 C44.66 31.99 45.32 32.98 46 34 C38.73686 32.11158 33.6035 30.2476 29 24 C28.34 23.67 27.68 23.34 27 23 C27 23.66 27 24.32 27 25 C26.34 24.67 25.68 24.34 25 24 C25.33 23.34 25.66 22.68 26 22 C25.07187 21.73188 24.14375 21.46375 23.1875 21.1875 C19.42752 19.78672 17.77427 18.54854 16 15 C12.82954 13.75939 10.41762 13 7 13 C6.67 12.67 6.34 12.34 6 12 C3.68887 15.4667 3.75701 16.85655 3.8125 20.9375 C3.81895 21.97777 3.82539 23.01805 3.83203 24.08984 C4 27 4 27 4.47559 28.73853 C7.18157 40.40775 6.12844 53.57943 6.0625 65.5 C6.05747 67.11328 6.05291 68.72656 6.04883 70.33984 C6.038 74.2266 6.02084 78.11328 6 82 C5.67 82 5.34 82 5 82 C3.9889 74.27049 3.75643 66.60057 3.5625 58.8125 C3.28761 49.30903 2.87807 39.84479 2 30.375 C1.91694 29.47628 1.83387 28.57756 1.74829 27.65161 C1.14236 21.54283 1.14236 21.54283 0.47485 18.99756 C-0.02679 16.88731 -0.11406 15.05653 -0.09766 12.89062 C-0.09443 12.13652 -0.09121 11.38242 -0.08789 10.60547 C-0.07951 9.82816 -0.07113 9.05086 -0.0625 8.25 C-0.05799 7.45723 -0.05348 6.66445 -0.04883 5.84766 C-0.03709 3.8984 -0.01915 1.94919 0 0 Z " fill="#DA5149" transform="translate(343,296)"/>
<path d="M0 0 C4.44673 2.16914 8.7956 4.39327 13 7 C13 7.66 13 8.32 13 9 C13.78375 9.30937 14.5675 9.61875 15.375 9.9375 C18 11 18 11 20 12 C20 12.66 20 13.32 20 14 C20.29906 14.05156 20.29906 14.05156 21.8125 14.3125 C24.35458 15.11144 25.15969 16.11425 27 18 C28.14635 18.90145 29.31366 19.77687 30.5 20.625 C31.08781 21.05039 31.67562 21.47578 32.28125 21.91406 C34 23 34 23 37 24 C37 24.66 37 25.32 37 26 C38.6875 26.9375 38.6875 26.9375 41 28 C44.63167 30.08314 48.00493 32.39331 51.375 34.875 C55.56304 37.94661 59.76741 40.99016 64 44 C63.67 44.99 63.34 45.98 63 47 C57.39 47 51.78 47 46 47 C46.66 46.835 46.66 46.835 50 46 C50 45.34 50 44.68 50 44 C50.99 44 51.98 44 53 44 C53 43.34 53 42.68 53 42 C52.68031 41.93813 52.68031 41.93813 51.0625 41.625 C50.38187 41.41875 49.70125 41.2125 49 41 C48.67 40.34 48.34 39.68 48 39 C47.67 38.9175 47.67 38.9175 46 38.5 C45.67 38.4175 45.67 38.4175 44 38 C43.67 37.34 43.34 36.68 43 36 C42.01 35.67 41.02 35.34 40 35 C39.835 35.33 39.835 35.33 39 37 C39.04125 36.07188 39.0825 35.14375 39.125 34.1875 C39 31 39 31 37 28 C34.61719 27.26953 34.61719 27.26953 31.875 26.8125 C31.41996 26.73322 31.41996 26.73322 29.11719 26.33203 C28.41852 26.22246 27.71984 26.11289 27 26 C27 25.34 27 24.68 27 24 C26.34 24 25.68 24 25 24 C24.67 23.01 24.34 22.02 24 21 C22.34052 19.98812 20.67419 18.98735 19 18 C19 17.34 19 16.68 19 16 C16.34771 14.92475 13.71632 13.90544 11 13 C10.3125 10.9375 10.3125 10.9375 10 9 C9.34 9 8.68 9 8 9 C8 8.34 8 7.68 8 7 C7.01 7 6.02 7 5 7 C5 6.34 5 5.68 5 5 C4.34 5 3.68 5 3 5 C1.375 3.625 1.375 3.625 0 2 C0 1.34 0 0.68 0 0 Z " fill="#F9CE48" transform="translate(207,126)"/>
<path d="M0 0 C0.33 0 0.66 0 1 0 C1.33 11.55 1.66 23.1 2 35 C2.66 35 3.32 35 4 35 C4.83779 44.70944 5.12277 54.26055 5 64 C5.45375 63.505 5.9075 63.01 6.375 62.5 C8 61 8 61 10 61 C10.23848 60.27684 10.47695 59.55367 10.72266 58.80859 C12.18999 55.58226 13.98549 53.61114 16.4375 51.0625 C21.06262 46.25451 24.01754 41.68073 25 35 C26.155 34.835 26.155 34.835 32 34 C32 33.01 32 32.02 32 31 C33.12028 29.84577 34.25099 28.69998 35.42969 27.60547 C38.06774 24.90836 40.21664 21.82749 42.44922 18.79297 C42.96098 18.20129 43.47273 17.60961 44 17 C44.66 17 45.32 17 46 17 C46.33 15.68 46.66 14.36 47 13 C47.99 13 48.98 13 50 13 C50.9375 11.375 50.9375 11.375 52 9 C55.92727 2.45455 55.92727 2.45455 60 1 C58.48342 4.39276 56.48592 7.01516 54.125 9.875 C51.87083 12.64093 49.78111 15.33146 47.8125 18.3125 C45.81633 21.27234 43.55256 23.50821 41 26 C38.27268 29.04413 35.63439 32.11638 33.25 35.4375 C33.04375 35.69531 33.04375 35.69531 32 37 C31.34 37 30.68 37 30 37 C29 38.75 29 38.75 28 41 C27 43.25 27 43.25 26 45 C25.34 45 24.68 45 24 45 C23.67 45.99 23.34 46.98 23 48 C22.34 48 21.68 48 21 48 C20.31226 49.32258 19.65289 50.65987 19 52 C18.18994 53.26521 17.35461 54.51445 16.5 55.75 C16.07719 56.36359 15.65438 56.97719 15.21875 57.60938 C15.01766 57.83883 15.01766 57.83883 14 59 C13.34 59 12.68 59 12 59 C11.67 59.825 11.67 59.825 10 64 C9.34 64 8.68 64 8 64 C7.835 64.33 7.835 64.33 7 66 C6.835 66.33 6.835 66.33 6 68 C5.34 68 4.68 68 4 68 C2.87061 65.74123 2.72752 64.13587 2.5 61.625 C2.41798 60.732 2.33597 59.839 2.25146 58.91895 C2.16848 57.95569 2.0855 56.99244 2 56 C1.91315 55.00323 1.8263 54.00646 1.73682 52.97949 C0.23058 35.2833 -0.13417 17.76371 0 0 Z " fill="#493977" transform="translate(271,101)"/>
<path d="M0 0 C0.66 0.33 1.32 0.66 2 1 C-3.625 5 -3.625 5 -7 5 C-7 5.99 -7 6.98 -7 8 C-9.79983 10.12108 -12.06602 11.01533 -15.5 11.8125 C-18.98795 12.99591 -19.5874 13.34852 -21.6875 16.0625 C-24.07699 19.0978 -24.46733 19.39759 -28 20 C-27.78344 20.825 -27.56688 21.65 -27.34375 22.5 C-25.63565 29.58544 -24.84359 35.85955 -25.0564 43.1936 C-25.18193 50.98517 -24.09887 58.62456 -23.13892 66.34351 C-22.27683 73.35095 -21.6622 80.29892 -21.34619 87.34985 C-21.08628 92.6425 -20.29832 97.75553 -19.41016 102.97266 C-18.77595 107.65368 -18.83001 112.2874 -19 117 C-19.33 117 -19.66 117 -20 117 C-21.77813 105.46105 -23.25178 93.93425 -24.375 82.3125 C-25.15835 74.20897 -26.07472 66.16048 -27.30078 58.11328 C-27.35772 57.73861 -27.35772 57.73861 -27.64587 55.84254 C-28.2034 52.20338 -28.77795 48.56778 -29.37451 44.93481 C-30.45329 38.20096 -31.25488 31.51024 -31.41406 24.69141 C-31.44323 23.4817 -31.47239 22.272 -31.50244 21.02563 C-31 18 -31 18 -28.96948 16.0415 C-26.6875 14.8125 -26.6875 14.8125 -24.26172 13.95703 C-21.52354 12.79839 -20.63444 11.43232 -19 9 C-15.71985 6.73783 -12.91176 6.82219 -9 7 C-8.67 6.01 -8.34 5.02 -8 4 C-6.22266 2.79688 -6.22266 2.79688 -4.0625 1.75 C-3.35223 1.39422 -2.64195 1.03844 -1.91016 0.67188 C-1.2798 0.45016 -0.64945 0.22844 0 0 Z " fill="#D4BE56" transform="translate(279,250)"/>
<path d="M0 0 C0.33 0.165 0.33 0.165 2 1 C3.14583 4.4375 3.4024 7.72489 3.68359 11.30859 C3.80789 12.79362 3.93224 14.27865 4.05664 15.76367 C4.24676 18.08671 4.43528 20.40987 4.62231 22.73315 C6.73084 48.73084 6.73084 48.73084 9 51 C10.2216 59.61156 10.11551 68.324 10 77 C10.66 77 11.32 77 12 77 C12.08564 77.8826 12.17128 78.76521 12.25952 79.67456 C12.57993 82.96415 12.90261 86.2535 13.22681 89.54272 C13.36638 90.96353 13.50506 92.38443 13.64282 93.80542 C13.84154 95.85359 14.04351 97.90142 14.24609 99.94922 C14.30632 100.56454 14.30632 100.56454 14.61108 103.67847 C14.94183 106.50321 15.41967 109.21934 16 112 C16.11679 114.67678 16.04545 117.31841 16 120 C16.99 120 17.98 120 19 120 C19.33 118.35 19.66 116.7 20 115 C20.99 115 21.98 115 23 115 C22.375 117.875 22.375 117.875 21 121 C17.875 122.375 17.875 122.375 15 123 C12.7899 117.47474 12.35663 112.05783 11.875 106.1875 C11.78863 105.24068 11.70227 104.29387 11.61328 103.31836 C11.1107 97.52271 10.91631 91.81669 11 86 C10.34 86 9.68 86 9 86 C8.86723 84.78441 8.73445 83.56883 8.59766 82.31641 C8.4195 80.73175 8.2411 79.14711 8.0625 77.5625 C7.97549 76.76006 7.88848 75.95762 7.79883 75.13086 C7.11328 69.11328 7.11328 69.11328 6 68 C5.79017 65.85796 5.63177 63.71076 5.5 61.5625 C5.11014 55.22028 5.11014 55.22028 4 53 C3.83496 50.393 3.71792 47.79731 3.625 45.1875 C3.18986 35.00863 2.12851 24.91418 1.01611 14.78979 C0.88576 13.5933 0.7554 12.39681 0.62109 11.16406 C0.56143 10.63015 0.56143 10.63015 0.25952 7.92822 C0.02347 5.26478 -0.04904 2.67171 0 0 Z " fill="#C394A9" transform="translate(354,76)"/>
<path d="M0 0 C1.00693 3.12179 0.9729 4.9897 0.00391 8.10938 C-0.2249 8.86348 -0.45371 9.61758 -0.68945 10.39453 C-0.93631 11.17184 -1.18316 11.94914 -1.4375 12.75 C-1.68049 13.54277 -1.92348 14.33555 -2.17383 15.15234 C-2.77354 17.10435 -3.38558 19.05257 -4 21 C-4.66 21 -5.32 21 -6 21 C-6.0825 22.21688 -6.165 23.43375 -6.25 24.6875 C-6.82488 29.91892 -8.33363 34.70169 -9.94922 39.69531 C-11.23755 43.74709 -12.32222 47.83785 -13.38672 51.95312 C-14 54 -14 54 -15 55 C-15.23193 56.51469 -15.41215 58.03755 -15.5625 59.5625 C-15.64629 60.38879 -15.73008 61.21508 -15.81641 62.06641 C-15.87699 62.70449 -15.93758 63.34258 -16 64 C-16.66 64 -17.32 64 -18 64 C-18.05156 64.60844 -18.05156 64.60844 -18.3125 67.6875 C-18.98839 73.90965 -20.50862 79.9313 -22 86 C-22.66 86 -23.32 86 -24 86 C-24.12375 86.61875 -24.2475 87.2375 -24.375 87.875 C-25 90 -25 90 -27 92 C-27.53351 88.58519 -28.04958 85.16796 -28.5625 81.75 C-28.71396 80.78191 -28.86543 79.81383 -29.02148 78.81641 C-29.16006 77.88184 -29.29863 76.94727 -29.44141 75.98438 C-29.57233 75.12554 -29.70325 74.2667 -29.83813 73.38184 C-30 71 -30 71 -29 67 C-28.01 71.29 -27.02 75.58 -26 80 C-25.34 79.01 -24.68 78.02 -24 77 C-23.34 77 -22.68 77 -22 77 C-22.04125 75.86563 -22.0825 74.73125 -22.125 73.5625 C-22.14184 68.85616 -21.17622 64.53684 -20 60 C-19.34 60 -18.68 60 -18 60 C-17.9349 59.49533 -17.9349 59.49533 -17.60547 56.94141 C-17.02953 53.19225 -16.24413 49.6129 -15.3125 45.9375 C-15.14315 45.2692 -14.9738 44.6009 -14.79932 43.91235 C-11.72421 31.89283 -8.43424 19.92172 -5 8 C-4.01 8 -3.02 8 -2 8 C-1.85562 7.23687 -1.71125 6.47375 -1.5625 5.6875 C-1 3 -1 3 0 0 Z " fill="#D6C392" transform="translate(290,300)"/>
<path d="M0 0 C0.66797 1.82422 0.66797 1.82422 1 4 C-0.4191 5.4851 -1.84987 6.96235 -3.35938 8.35547 C-5.99183 10.9942 -7.43222 13.61361 -9 17 C-8.6762 18.33568 -8.34342 19.66923 -8 21 C-9.6875 24.1875 -9.6875 24.1875 -12 27 C-12.66645 27.12504 -13.33289 27.25008 -14.01953 27.37891 C-16 28 -16 28 -17.125 30.10938 C-17.26937 30.54508 -17.26937 30.54508 -18 32.75 C-19.46651 36.81201 -21.01345 39.80013 -24 43 C-17.22538 52.31266 -17.22538 52.31266 -12 55 C-11.34 55.99 -10.68 56.98 -10 58 C-9.64937 58.17531 -9.64937 58.17531 -7.875 59.0625 C-7.25625 59.37187 -6.6375 59.68125 -6 60 C-6 60.66 -6 61.32 -6 62 C-5.03062 62.26812 -4.06125 62.53625 -3.0625 62.8125 C-2.05187 63.20438 -1.04125 63.59625 0 64 C0.33 64.99 0.66 65.98 1 67 C-3.32077 65.53845 -6.64283 63.23358 -10.1875 60.4375 C-10.75195 59.99712 -11.3164 59.55675 -11.89795 59.10303 C-25.5206 48.36246 -25.5206 48.36246 -30 42 C-29.40187 41.29875 -28.80375 40.5975 -28.1875 39.875 C-26 37 -26 37 -24.6875 34.1875 C-23.13986 31.26418 -21.64058 29.35907 -19.4375 26.9375 C-16.77888 24.01302 -15.41913 21.68974 -14 18 C-12.1167 15.56246 -10.05516 13.2929 -8 11 C-5.33112 7.79735 -3.09963 4.59936 -1 1 C-0.67 0.67 -0.34 0.34 0 0 Z " fill="#5058A0" transform="translate(220,306)"/>
<path d="M0 0 C0 3.52032 -0.70351 4.43853 -3 7 C-3.66 7 -4.32 7 -5 7 C-5.07928 7.30164 -5.07928 7.30164 -5.48047 8.82812 C-7.04027 14.17108 -8.30609 16.75897 -13 20 C-14.67067 21.99666 -16.33753 23.99651 -18 26 C-18.68063 26.47438 -19.36125 26.94875 -20.0625 27.4375 C-22.4306 29.34726 -23.51545 31.58553 -24.93359 34.23828 C-26.54123 36.89412 -28.78611 38.84146 -31 41 C-31.68063 42.09312 -32.36125 43.18625 -33.0625 44.3125 C-33.70187 45.19938 -34.34125 46.08625 -35 47 C-36.32 47 -37.64 47 -39 47 C-40.39051 49.04917 -40.95272 50.6785 -41.3125 53.125 C-41.42594 53.43437 -41.42594 53.43437 -42 55 C-43.66073 55.68132 -45.32777 56.34742 -47 57 C-48.125 58.9375 -48.125 58.9375 -49 61 C-50 62 -51 63 -52 64 C-52.495 64.86625 -52.99 65.7325 -53.5 66.625 C-55 69 -55 69 -58 70 C-57.67 68.02 -57.34 66.04 -57 64 C-56.34 64 -55.68 64 -55 64 C-54.95102 63.35934 -54.90203 62.71867 -54.85156 62.05859 C-54.39599 56.78804 -53.64026 52.03014 -52 47 C-51.67 47 -51.34 47 -51 47 C-51 49.64 -51 52.28 -51 55 C-51.66 55 -52.32 55 -53 55 C-52.67 55.99 -52.34 56.98 -52 58 C-51.01 57.34 -50.02 56.68 -49 56 C-48.01 56 -47.02 56 -46 56 C-45.95875 55.60812 -45.95875 55.60812 -45.75 53.625 C-45.62625 53.19187 -45.62625 53.19187 -45 51 C-43.67532 50.3163 -42.34136 49.65036 -41 49 C-40.27841 47.35637 -39.60649 45.6895 -39 44 C-38.67 43.835 -38.67 43.835 -37 43 C-36.67 42.01 -36.34 41.02 -36 40 C-34.37897 38.28891 -32.70497 36.62747 -31 35 C-27.09886 31.2043 -23.51576 27.20641 -19.96484 23.08594 C-18 21 -18 21 -15.80859 19.36719 C-14 18 -14 18 -13.125 15.75 C-11.75054 12.3902 -9.75951 10.21892 -7.33984 7.55078 C-6 6 -6 6 -5 4 C-4.34 4 -3.68 4 -3 4 C-2.67 3.01 -2.34 2.02 -2 1 C-1.34 0.67 -0.68 0.34 0 0 Z " fill="#F7DBD8" transform="translate(323,322)"/>
<path d="M0 0 C0.33 0.66 0.66 1.32 1 2 C1.29906 2.14437 1.29906 2.14437 2.8125 2.875 C5 4 5 4 6.8125 5.875 C8.79285 7.79876 10.35672 8.83446 12.75 10.125 C13.8225 10.74375 14.895 11.3625 16 12 C16 12.66 16 13.32 16 14 C17.33084 14.67164 18.66488 15.33692 20 16 C21.78919 17.45304 23.53729 18.95756 25.25 20.5 C25.69602 20.89703 25.69602 20.89703 27.95312 22.90625 C30 25 30 25 30 27 C30.68062 27.04125 31.36125 27.0825 32.0625 27.125 C37.32577 28.69278 40.91365 32.388 43.9375 36.875 C44.28813 37.57625 44.63875 38.2775 45 39 C40.51536 37.01261 37.08375 33.8907 33.33984 30.77734 C31 29 31 29 28 28 C26.31364 26.35326 24.6497 24.68346 23 23 C20.14269 20.65013 17.24024 18.36736 14.32812 16.08594 C12 14 12 14 11 11 C7.62132 8.53448 6.29442 8 2 8 C1.34 9.98 0.68 11.96 0 14 C-0.66 14 -1.32 14 -2 14 C-2.33 31.49 -2.66 48.98 -3 67 C-3.33 67 -3.66 67 -4 67 C-4.83889 62.61099 -5.14025 58.44255 -5.16797 53.97656 C-5.17216 53.31767 -5.17635 52.65877 -5.18066 51.9799 C-5.19039 49.86154 -5.19046 47.74338 -5.1875 45.625 C-5.18723 44.9038 -5.18696 44.1826 -5.18668 43.43954 C-5.16056 28.4392 -3.74795 14.59203 0 0 Z " fill="#E18D83" transform="translate(148,188)"/>
<path d="M0 0 C3.135 0.495 3.135 0.495 19 3 C19 3.66 19 4.32 19 5 C22.63 5.66 26.26 6.32 30 7 C29.01 7.33 28.02 7.66 27 8 C26.375 9.875 26.375 9.875 26 12 C25.67 12.99 25.34 13.98 25 15 C25.99 15.33 26.98 15.66 28 16 C27.49396 18.16874 27.00016 19.99968 26 22 C25.34 22 24.68 22 24 22 C23.97938 21.4225 23.95875 20.845 23.9375 20.25 C22.68476 17.24343 20.71942 16.53657 17.92188 15.07422 C14.90903 13.39021 12.5306 11.34544 10 9 C10 8.34 10 7.68 10 7 C8.68747 6.29325 7.34721 5.63815 6 5 C3.97048 3.71204 1.96498 2.38442 0 1 C0 0.67 0 0.34 0 0 Z " fill="#C3C5E1" transform="translate(158,193)"/>
<path d="M0 0 C5.32158 0.34879 7.97924 3.28744 11.625 6.8125 C12.19734 7.34682 12.76969 7.88113 13.35938 8.43164 C16.19899 11.11607 18.78595 13.75744 21 17 C20.4225 17.21656 20.4225 17.21656 17.5 18.3125 C12.29938 20.83878 9.77179 25.00468 6.66406 29.73438 C6.11492 30.48203 5.56578 31.22969 5 32 C4.34 32 3.68 32 3 32 C2.02734 33.74219 2.02734 33.74219 1 36 C0.20733 37.38652 -0.60552 38.7617 -1.4375 40.125 C-1.64311 40.4666 -1.64311 40.4666 -2.68359 42.19531 C-4 44 -4 44 -7 46 C-5.60101 43.02799 -3.9567 40.42983 -2.0625 37.75 C0.74047 33.62397 2.35467 29.68918 4 25 C4.66 24.34 5.32 23.68 6 23 C6.99 23 7.98 23 9 23 C8.835 22.15438 8.67 21.30875 8.5 20.4375 C7.98658 16.90772 8 13.5614 8 10 C7.8125 7.625 7.8125 7.625 7 6 C5.335 5.65846 3.66821 5.32551 2 5 C0 1.95238 0 1.95238 0 0 Z " fill="#887DB1" transform="translate(410,104)"/>
</g></svg>